<svg width="637" height="959" viewBox="0 0 637 959" fill="none" xmlns="http://www.w3.org/2000/svg">
<mask id="mask0_351_115" style="mask-type:alpha" maskUnits="userSpaceOnUse" x="0" y="0" width="637" height="959">
<rect width="637" height="959" fill="#D9D9D9"/>
</mask>
<g mask="url(#mask0_351_115)">
<mask id="path-2-inside-1_351_115" fill="white">
<path d="M944 218.745C944 371.805 943.848 437.337 943.441 437.134C942.578 436.575 940.596 431.648 938.361 424.536C935.974 416.865 935.008 414.426 930.436 404.622C927.134 397.561 922.664 386.74 919.616 378.46C917.99 373.99 912.047 360.324 908.135 352.146C900.515 335.991 889.39 320.802 871.508 302.26C864.955 295.453 855.659 287.274 850.172 283.566C844.33 279.603 832.951 274.523 824.214 272.034C814.206 269.088 802.014 268.63 784.285 270.51C765.844 272.44 754.262 275.387 738.006 282.296C725.001 287.782 705.189 298.907 687.714 310.54C677.198 317.551 661.247 332.435 654.389 341.63C646.363 352.349 635.136 371.805 627.516 388.112C624.671 394.106 619.794 404.063 616.594 410.21C610.803 421.437 606.028 431.902 606.078 433.324C606.231 442.824 607.552 462.331 608.466 469.9C610.295 484.48 610.65 489.966 611.514 512.877C612.936 552.348 613.495 557.581 619.337 587.248C624.417 613.054 624.925 618.134 625.992 652.78C626.398 666.699 626.602 668.63 628.481 679.704C630.92 694.334 632.342 705.358 633.358 718.312C633.764 723.748 634.679 731.977 635.339 736.6C636.508 744.372 637.879 756.768 639.2 771.398C639.505 774.751 640.572 783.438 641.537 790.702C644.432 812.292 644.839 816.966 645.144 831.19C645.296 838.708 645.499 844.804 645.601 844.804C645.702 844.804 648.192 844.144 651.087 843.331C658.656 841.197 671.306 838.606 687.409 835.965C703.818 833.222 709.406 832.002 722.868 828.243C737.244 824.281 749.538 820.369 762.39 815.696C782.862 808.279 801.658 802.183 819.946 797.001C829.903 794.207 842.095 790.651 846.972 789.178C859.012 785.52 862.771 784.454 878.976 780.339C886.647 778.408 897.162 775.513 902.344 773.938C924.594 767.232 930.894 765.353 936.837 763.727C940.342 762.762 943.34 762 943.594 762C943.797 762 944 796.747 944 839.216V916.381L937.498 912.419C927.439 906.272 920.429 902.462 913.774 899.617C902.344 894.74 879.992 887.832 870.492 886.206C864.295 885.19 838.946 882.548 827.77 881.786C812.784 880.821 795.359 882.65 784.488 886.409C768.486 891.896 756.751 899.058 740.546 913.13C728.71 923.442 726.322 926.338 719.921 938.378C715.756 946.15 713.419 949.655 707.526 956.767C700.719 965.098 695.486 973.633 687.714 989.076C685.276 993.953 683.142 999.947 679.738 1011.68L678.519 1015.75L598.357 1015.9L518.144 1016L513.114 1010.67C510.371 1007.77 506.002 1003.66 503.412 1001.62C500.821 999.541 495.995 995.375 492.642 992.429C480.247 981.405 471.357 976.579 457.692 973.582C454.593 972.922 452.002 972.769 445.5 972.922C437.829 973.125 436.965 973.226 432.444 974.801C426.145 976.935 420.455 979.983 409.33 987.298C393.125 997.864 383.27 1005.99 376.462 1014.32L375.091 1016H178.241C21.0656 1016 -18.66 1015.85 -18.66 1015.34C-18.66 1015.03 -18.406 1010.06 -18.152 1004.42C-17.5932 992.734 -16.8312 985.52 -14.342 966.216C-12.8688 954.938 -12.4624 949.554 -11.802 933.196C-10.9384 910.946 -10.6336 907.39 -8.24597 891.54C-7.28076 885.241 -6.26477 877.468 -5.95996 874.268C-5.14722 865.073 -4.58838 841.248 -4.84241 826.465L-5.04559 812.902L-6.26477 812.343C-9.10956 811.073 -6.82361 808.431 -0.422791 805.688C2.21881 804.57 4.65723 803.656 5.01282 803.656C5.41919 803.656 5.57159 803.351 5.47003 802.996C4.91119 801.573 3.18402 788.162 2.67603 781.304C1.66003 768.147 -0.270386 761.136 -5.04559 752.958C-7.38239 749.046 -13.1228 742.899 -15.8152 741.426C-20.438 738.937 -25.7212 743.56 -30.8012 754.431C-34.154 761.594 -37.3544 771.855 -38.5228 779.018C-39.0816 782.676 -40.25 788.924 -41.0628 792.937C-42.6884 800.659 -43.1964 804.418 -45.33 824.23C-46.0412 830.936 -47.3112 841.705 -48.124 848.157C-48.9368 854.608 -49.9528 863.752 -50.41 868.477C-50.8164 873.201 -51.6292 880.11 -52.188 883.869C-54.0168 896.112 -54.2708 899.719 -54.728 918.21C-55.1852 938.276 -56.5568 954.684 -60.062 981.964C-60.7224 987.298 -61.2304 993.648 -62.094 1010.06L-62.4496 1016H-67.2248H-72L-71.8984 846.43L-71.746 676.91L-43.806 662.94C-28.4644 655.269 -13.6308 647.649 -10.8876 646.024C-2.65796 641.147 6.5368 633.832 17.916 623.113C23.0976 618.236 29.5492 613.105 38.8456 606.4C42.6556 603.656 49.3612 598.424 53.7808 594.766C82.5336 571.094 95.8432 561.238 110.88 552.653C120.532 547.167 123.58 545.135 123.275 544.373C123.021 543.662 132.521 538.074 149.742 528.828C169.656 518.109 175.65 514.248 189.061 503.479C204.555 490.982 210.042 486.867 219.592 480.365C225.028 476.656 233.714 470.56 238.896 466.852C244.078 463.144 251.952 457.454 256.422 454.254C265.972 447.345 274.405 441.808 290.458 431.8C306.562 421.792 321.954 411.378 330.793 404.52C334.857 401.371 340.445 397.256 343.239 395.427C347.76 392.379 365.439 382.575 385.149 372.161C389.315 369.976 396.071 366.116 400.135 363.525C404.25 360.985 413.445 355.194 420.658 350.723C427.821 346.202 436.203 341.122 439.302 339.344C448.395 334.162 452.662 331.267 452.967 329.946C453.12 329.286 453.831 328.066 454.542 327.203C456.879 324.46 469.833 316.84 484.26 309.728C495.538 304.19 498.128 302.717 509.66 294.996C521.75 286.918 526.068 283.718 537.854 274.269C559.342 256.946 572.754 247.701 603.792 228.854C614.359 222.402 626.703 214.478 631.224 211.226C635.746 207.924 647.43 199.898 657.234 193.345C666.988 186.792 678.672 178.562 683.142 175.057C695.385 165.405 700.566 161.798 733.79 139.954C747.048 131.267 756.7 123.698 769.908 111.658C777.986 104.242 782.456 100.889 789.822 96.6216C816.746 81.026 830.868 72.7456 833.967 70.612C835.999 69.2912 841.638 64.9732 846.515 61.1124C854.795 54.5592 858.91 51.4604 870.594 43.18C876.639 38.862 885.682 31.6992 891.676 26.416C901.836 17.4752 912.301 9.80438 924.391 2.43842L928.404 0H936.228H944V218.745ZM915.196 46.8376C914.841 47.4472 914.028 71.628 914.333 72.0344C914.384 72.136 917.178 70.5612 920.48 68.5292C923.782 66.4972 929.217 63.3984 932.57 61.5696C935.923 59.7916 938.971 58.0136 939.326 57.658C939.885 57.15 938.971 56.4388 933.992 53.7464C925.306 48.9712 924.798 48.7172 920.886 47.4472C916.771 46.0756 915.755 45.974 915.196 46.8376ZM815.222 114.859C813.342 118.466 811.158 125.984 810.599 131.115L810.244 134.315L812.225 132.74C813.292 131.877 816.492 129.692 819.286 127.864C822.08 126.035 826.093 123.342 828.176 121.92C830.259 120.447 832.646 118.974 833.408 118.669L834.831 118.059L831.834 115.672C830.157 114.402 827.008 111.963 824.823 110.236L820.81 107.188L818.88 109.322C817.864 110.541 816.187 113.03 815.222 114.859ZM765.184 147.32C763.406 149.86 760.307 157.429 758.885 162.865C758.123 165.608 757.412 168.3 757.259 168.808C757.005 169.57 758.326 169.062 763 166.675C769.045 163.576 778.087 158.293 780.424 156.515L781.643 155.55L780.424 154.483C777.122 151.638 767.826 145.796 766.657 145.796C766.454 145.796 765.794 146.507 765.184 147.32ZM711.234 188.468C706.764 199.187 706.967 198.374 708.694 197.206C709.456 196.698 712.098 195.174 714.638 193.802C717.127 192.43 721.801 189.738 724.95 187.808L730.742 184.252L728.506 182.88C726.068 181.356 722.106 179.934 717.94 179.07C715.298 178.562 715.146 178.562 714.841 179.527C714.638 180.137 713.012 184.15 711.234 188.468ZM669.324 216.662C667.546 219.862 664.6 230.124 665.464 230.124C666.48 230.124 680.856 220.624 680.856 219.913C680.856 218.999 672.83 214.325 671.458 214.478C670.899 214.579 669.985 215.544 669.324 216.662ZM628.176 240.64C628.024 241.148 627.008 243.535 625.941 245.974C623.909 250.546 622.69 254.559 623.046 255.524C623.249 256.184 638.641 246.177 638.692 245.313C638.692 244.754 633.968 241.656 631.631 240.741C628.684 239.573 628.583 239.573 628.176 240.64ZM583.117 273.355C581.491 275.285 579.51 278.079 578.748 279.552C576.868 283.007 574.481 289.001 574.836 289.357C575.446 289.966 592.566 280.873 596.426 277.876L597.544 276.962L594.394 274.422C591.143 271.882 587.587 269.697 586.622 269.799C586.368 269.799 584.793 271.424 583.117 273.355ZM546.744 312.42C545.423 313.741 545.474 314.147 546.947 314.858C548.014 315.316 548.217 315.265 548.471 314.3C549.233 311.404 548.522 310.642 546.744 312.42ZM511.895 323.19C511.438 324.104 510.371 325.882 509.508 327.101C508.085 329.235 504.58 336.804 504.58 337.871C504.58 339.141 515.299 332.537 518.398 329.336L520.328 327.355L516.874 324.46C514.994 322.885 513.318 321.564 513.114 321.564C512.911 321.564 512.352 322.326 511.895 323.19ZM475.522 349.25C472.576 353.466 469.274 360.172 470.138 360.172C470.442 360.172 472.982 359.054 475.827 357.632C481.009 355.092 485.784 351.942 485.784 351.028C485.784 350.317 479.79 345.44 478.926 345.44C478.52 345.44 476.996 347.167 475.522 349.25ZM441.08 368.148C440.724 368.96 439.708 371.907 438.794 374.752L437.168 379.933L440.267 378.358C443.518 376.733 450.224 372.567 450.224 372.161C450.224 371.856 442.604 366.776 442.147 366.776C441.944 366.776 441.436 367.386 441.08 368.148ZM566.048 375.514C558.479 377.85 551.214 382.778 545.576 389.382C539.937 395.986 537.397 402.234 536.787 411.226C536.381 416.662 537.346 421.996 539.581 426.974C543.391 435.407 553.297 438.099 564.676 433.832C571.941 431.089 581.085 423.215 584.488 416.662C586.571 412.699 588.552 405.638 589.111 400.253C589.467 397.002 589.467 396.9 588.146 396.342C586.825 395.732 586.774 395.681 586.978 390.957C587.13 387.452 587.028 385.928 586.52 385.267C586.063 384.607 585.911 383.642 586.165 382.372C586.724 378.816 583.574 375.412 578.596 374.396C575.598 373.786 569.96 374.294 566.048 375.514ZM408.72 389.992C406.993 392.176 405.622 394.665 404.606 397.408C403.234 401.066 403.132 402.59 404.352 402.133C406.18 401.422 412.683 397.561 414.308 396.189L415.934 394.818L413.14 391.973C411.616 390.398 410.194 389.128 409.889 389.128C409.635 389.128 409.127 389.534 408.72 389.992ZM374.786 418.084C374.024 420.37 373.567 422.351 373.719 422.504C373.922 422.707 376.615 421.132 379.764 418.998C382.863 416.865 386.216 414.731 387.181 414.274L388.858 413.41L387.74 412.648C387.13 412.242 385.352 411.226 383.778 410.413L380.882 408.94L378.494 411.48C376.666 413.41 375.853 414.934 374.786 418.084ZM348.319 434.035C346.948 437.947 346.084 441.452 346.389 441.452C346.897 441.452 349.589 439.572 353.602 436.423L357.768 433.121L355.888 431.19C354.872 430.174 353.348 428.955 352.485 428.549C350.961 427.838 350.91 427.838 350.199 429.108C349.843 429.819 348.98 432.054 348.319 434.035ZM321.903 456.082C322.36 456.54 323.783 455.676 323.478 455.168C323.224 454.762 322.919 454.812 322.411 455.219C322.005 455.524 321.802 455.93 321.903 456.082ZM460.79 455.981C453.577 456.895 445.754 458.622 441.08 460.4C432.901 463.448 423.402 469.29 416.086 475.691C409.228 481.686 392.515 501.294 384.286 513.08C374.075 527.609 371.687 531.978 366.252 545.592C355.177 573.583 352.18 581.711 351.164 586.791C349.996 592.43 349.234 607.009 349.132 624.84C349.132 632.714 348.014 647.903 346.592 659.638C345.525 668.68 344.966 681.939 345.22 691.642C345.525 701.904 346.033 706.679 349.691 732.282C352.434 751.789 353.044 757.53 353.755 769.976C354.415 781.456 353.958 797.357 352.434 815.086C350.453 838.708 350.25 862.838 351.926 880.11C352.383 884.834 352.891 894.74 353.094 902.005L353.45 915.264L366.658 911.809C378.748 908.609 391.55 905.561 415.934 900.074C420.963 898.957 432.495 896.264 441.588 894.029C466.328 888.086 483.244 884.885 499.754 883.158C518.804 881.126 538.311 877.824 545.322 875.487C548.827 874.319 549.233 874.065 548.776 873.252C548.471 872.642 548.268 861.72 548.268 843.94C548.268 816.61 547.1 780.186 545.779 764.032C545.474 760.832 545.118 755.447 544.966 752.094C544.356 739.75 543.137 719.836 542.426 710.844C542.02 705.764 541.41 696.062 541.156 689.254C540.851 682.447 540.242 674.065 539.835 670.56C539.429 667.055 538.514 658.724 537.854 652.018C537.143 645.312 536.381 638.2 536.127 636.27C535.873 634.289 534.908 627.126 534.044 620.268C533.18 613.41 531.656 603.758 530.691 598.78C529.726 593.801 528.964 588.823 528.964 587.705C528.964 586.334 528.761 585.724 528.253 585.724C526.983 585.724 525.865 584.2 526.221 582.981C526.627 581.558 529.32 578.764 531.25 577.748C535.365 575.564 540.648 573.024 541.004 573.024C541.258 573.024 541.867 571.856 542.426 570.484C543.086 568.757 543.696 567.944 544.306 567.944C545.017 567.944 545.169 567.639 544.966 566.776C544.864 566.166 544.255 563.067 543.696 559.918C543.086 556.768 542.07 552.196 541.359 549.758C538.464 540.004 536.025 530.606 534.755 524.916C528.812 497.383 522.716 483.26 512.098 472.389C503.412 463.499 494.572 458.47 483.041 455.93C478.774 455.016 468.309 455.016 460.79 455.981ZM294.319 465.938C294.014 467.157 293.506 469.595 293.201 471.424C292.947 473.253 292.541 475.234 292.388 475.894C292.134 476.961 292.338 476.91 294.827 475.031C296.351 473.862 298.891 472.237 300.516 471.373C303.412 469.849 303.463 469.798 302.599 468.782C301.634 467.766 295.792 463.804 295.233 463.804C295.03 463.804 294.674 464.769 294.319 465.938ZM271.002 487.934C270.443 490.423 270.036 492.557 270.087 492.658C270.29 492.811 278.52 486.766 278.52 486.461C278.52 485.953 272.678 482.651 272.373 483.006C272.17 483.21 271.56 485.394 271.002 487.934ZM245.246 503.784C244.586 506.476 244.128 508.813 244.23 508.914C244.484 509.219 251.19 504.698 252.256 503.53C253.12 502.615 253.018 502.463 250.275 499.872C246.872 496.672 247.075 496.57 245.246 503.784ZM222.183 520.446C221.573 522.681 220.913 524.916 220.76 525.424C220.608 526.085 221.37 525.678 223.25 524.154C224.723 522.935 226.552 521.564 227.212 521.056L228.431 520.192L226.196 517.906C224.977 516.636 223.808 515.772 223.656 516.026C223.453 516.23 222.792 518.211 222.183 520.446ZM323.63 526.644C319.566 528.523 316.772 531.012 314.131 534.975C311.337 539.14 310.118 542.696 309 550.113C307.679 558.546 307.679 562.051 308.949 563.321C311.083 565.455 316.976 565.353 321.649 563.016C327.339 560.273 331.708 554.584 334.349 546.456C335.01 544.576 335.924 542.747 336.483 542.341C338.007 541.274 338.769 536.854 338.007 533.298C337.296 529.895 335.822 527.507 333.384 525.882C331.047 524.307 328.101 524.561 323.63 526.644ZM199.577 535.432C198.561 537.769 197.748 539.801 197.748 539.852C197.748 540.156 202.676 536.905 204.25 535.584L205.927 534.162L203.793 532.536C202.625 531.622 201.558 530.911 201.507 531.012C201.406 531.063 200.542 533.044 199.577 535.432ZM176.564 551.332C176.158 552.653 175.904 553.923 176.107 554.076C176.514 554.482 182.864 550.164 184.54 548.335L185.81 547.014L184.54 546.151C183.829 545.694 182.61 544.728 181.746 543.966L180.222 542.646L178.8 545.744C177.987 547.472 177.022 550.012 176.564 551.332ZM158.226 567.69C158.276 569.773 158.734 569.925 159.648 568.198C160.156 567.182 160.207 566.826 159.648 566.166C158.734 565.048 158.124 565.709 158.226 567.69ZM135.264 574.04C134.045 577.139 133.13 581.812 133.537 582.93C133.74 583.438 134.807 582.93 137.55 580.847C139.582 579.323 141.411 577.698 141.563 577.24C141.766 576.783 141.411 575.869 140.75 575.107C139.43 573.532 136.636 570.941 136.483 571.144C136.432 571.195 135.874 572.516 135.264 574.04ZM237.016 585.724C233.257 587.045 223.402 592.582 216.087 597.56C209.584 601.98 199.983 611.124 195.462 617.22C188.756 626.262 183.372 636.473 180.171 646.176C179.155 649.376 176.971 655.422 175.345 659.638C173.77 663.804 171.891 669.188 171.18 671.576C170.468 673.964 168.132 681.584 166.049 688.594C160.816 706.12 159.8 709.828 158.886 714.604C157.921 719.734 157.159 729.945 157.413 735.076C157.514 737.159 157.87 748.386 158.175 759.968C159.038 789.635 158.632 800.506 155.787 831.342C154.67 843.585 154.314 861.873 155.025 875.792C155.381 882.345 155.838 901.548 156.092 918.464C156.346 935.38 156.803 953.211 157.108 958.088C157.667 967.334 158.53 976.427 158.835 976.782C158.937 976.884 162.544 976.02 166.862 974.903C171.129 973.785 181.949 971.347 190.89 969.518C207.044 966.165 210.346 965.302 232.292 958.952C238.591 957.123 249.208 954.227 255.914 952.551C262.62 950.874 272.119 948.131 277.047 946.404L285.937 943.254L285.734 915.213C285.581 898.754 285.734 881.685 286.089 873.76C286.394 866.343 287.004 851.967 287.41 841.756C288.121 823.773 288.68 814.07 289.747 800.354C290.001 796.696 290.458 783.895 290.712 771.906C290.966 759.866 291.322 744.322 291.525 737.362C292.033 719.125 290.306 694.995 288.426 692.912C287.105 691.439 287.512 689.61 289.544 687.832C291.423 686.156 299.958 681.736 301.278 681.736C301.939 681.736 301.99 680.568 301.736 673.71C301.583 669.341 301.075 663.804 300.618 661.416C297.316 644.195 292.084 625.196 288.68 617.83C283.397 606.603 275.218 596.087 267.598 590.804C265.058 589.077 259.47 586.994 252.866 585.419C246.821 583.997 241.893 584.098 237.016 585.724ZM113.42 590.956C112.404 593.242 111.337 597.408 111.744 597.408C112.201 597.408 116.773 593.954 117.484 593.09C118.043 592.43 117.89 592.023 116.468 590.55C115.503 589.585 114.639 588.772 114.538 588.772C114.436 588.772 113.928 589.737 113.42 590.956ZM91.2712 606.146C89.6456 609.346 88.4264 612.699 88.782 613.054C88.8836 613.207 90.7632 611.988 92.846 610.362L96.7068 607.416L94.8272 605.485C93.7604 604.368 92.846 603.504 92.7444 603.504C92.6936 603.504 92.0332 604.672 91.2712 606.146ZM73.5928 618.592C72.018 623.214 72.6276 624.027 75.6756 621.335L77.8092 619.404L76.5392 617.525C75.828 616.509 75.066 615.798 74.812 615.95C74.6088 616.102 74.05 617.271 73.5928 618.592ZM57.5908 628.802C57.032 630.682 56.524 632.562 56.524 632.968C56.524 633.374 57.794 632.46 59.318 630.936L62.112 628.193L60.7404 626.77C59.9784 626.008 59.2164 625.348 59.064 625.348C58.8608 625.348 58.2004 626.923 57.5908 628.802ZM152.13 630.733C148.472 632.562 143.9 637.184 142.071 640.842C139.176 646.836 140.039 654.355 144.103 658.825C145.983 660.806 146.338 661.01 148.066 660.756C149.082 660.603 150.656 659.994 151.469 659.384C154.873 656.996 160.664 647.903 159.546 646.786C159.14 646.379 159.14 645.414 159.597 643.331C160.613 638.251 160.105 632.003 158.53 630.022C157.667 629.006 154.974 629.31 152.13 630.733ZM40.5728 639.521C39.5568 641.452 38.744 643.179 38.744 643.331C38.744 643.941 41.03 642.518 42.9096 640.69C44.7892 638.912 44.7892 638.912 43.9256 637.438C43.4684 636.676 42.9604 636.016 42.7572 636.016C42.554 636.016 41.5888 637.591 40.5728 639.521ZM26.806 648.716C27.1108 649.173 27.2632 649.173 27.6188 648.665C28.1268 647.802 27.6188 646.938 26.9584 647.598C26.6536 647.903 26.6028 648.411 26.806 648.716ZM6.73999 659.333C6.13043 660.959 5.724 662.94 5.82562 663.651L5.97803 665.023L9.28003 662.991C11.1088 661.822 12.8868 660.705 13.2932 660.451C13.9536 660.044 13.9028 659.79 13.1408 658.571C12.6328 657.758 11.6168 656.59 10.9056 655.98C9.6864 654.964 9.48322 654.914 8.72119 655.625C8.26404 656.031 7.34961 657.758 6.73999 659.333ZM-10.4812 671.424C-10.532 672.338 -10.4304 673.1 -10.278 673.1C-10.1256 673.1 -9.05878 672.643 -7.992 672.084L-5.95996 671.068L-6.82361 669.646C-7.28076 668.884 -8.04279 667.868 -8.44922 667.36C-9.21118 666.496 -9.26196 666.496 -9.8208 668.122C-10.1764 669.036 -10.4812 670.56 -10.4812 671.424ZM90.0012 674.065C86.3436 675.437 81.5176 678.586 79.0792 681.076C75.574 684.733 68.1064 695.198 66.176 699.262C63.5852 704.698 61.7564 710.336 57.4892 726.135C55.508 733.45 52.9172 743.052 51.6472 747.522C48.7516 757.987 45.1956 775.716 43.8748 786.384C43.316 791.007 42.046 798.322 41.0808 802.64C38.49 814.172 37.8804 817.778 36.204 832.053C35.2388 840.029 34.3752 845.566 33.8672 846.531C33.2576 847.75 32.9528 850.951 32.5972 860.806C31.7844 882.65 31.1748 892.099 30.108 898.398C28.5332 907.491 28.1268 920.953 28.1268 960.882C28.1776 980.694 28.0252 1000.35 27.822 1004.52C27.4664 1011.68 27.4664 1012.09 28.33 1011.73C28.838 1011.58 33.156 1010.36 37.9312 1009.09C46.5164 1006.81 59.7244 1002.54 67.192 999.642C69.2748 998.83 76.844 996.493 83.956 994.41C91.068 992.327 99.45 989.889 102.549 988.974L108.238 987.349L108.543 985.012C109.356 979.424 109.915 966.775 110.372 944.118C110.829 917.905 111.49 903.884 112.658 891.794C113.064 887.578 113.674 878.434 113.928 871.474C114.233 864.464 114.842 855.574 115.249 851.662C115.655 847.75 116.214 835.762 116.468 824.992C116.722 814.222 117.281 798.932 117.738 790.956C118.144 782.98 118.5 775.97 118.5 775.36C118.5 774.344 121.345 770.636 122.158 770.636C122.31 770.636 124.494 769.417 126.933 767.893L131.403 765.15L131.505 740.816C131.606 710.692 131.505 709.981 124.596 695.706C118.398 682.803 111.388 675.132 104.124 673.303C100.364 672.338 93.5572 672.694 90.0012 674.065ZM-27.4992 678.536C-27.9564 679.856 -28.312 681.685 -28.312 682.65V684.378L-26.5848 683.057C-25.6196 682.346 -24.502 681.888 -24.0956 682.041C-22.9272 682.498 -22.5716 681.38 -23.2828 679.298C-24.8068 674.573 -26.0768 674.319 -27.4992 678.536ZM-45.8888 689.712L-46.4984 692.353L-44.0092 690.728C-41.266 688.899 -40.8596 687.476 -42.3328 684.682L-43.1964 683.057L-44.2124 685.089C-44.7712 686.156 -45.5332 688.238 -45.8888 689.712ZM-60.062 695.604C-60.2652 697.078 -60.316 698.957 -60.2144 699.77L-60.062 701.294L-58.1824 699.364C-57.1156 698.297 -56.252 697.281 -56.252 697.078C-56.252 696.417 -58.792 692.912 -59.3 692.912C-59.554 692.912 -59.9096 694.131 -60.062 695.604ZM28.3808 707.339C26.1456 709.676 22.4372 719.125 22.1324 723.138C21.8784 726.389 22.5388 728.98 23.6564 728.98C24.6724 728.98 27.2124 726.034 29.346 722.376C30.4128 720.547 31.6828 718.464 32.1908 717.702C33.3084 716.077 33.918 712.876 33.4608 710.59C33.1052 708.558 31.378 705.612 30.5652 705.612C30.2604 705.612 29.2444 706.374 28.3808 707.339Z"/>
</mask>
<path d="M944 218.745C944 371.805 943.848 437.337 943.441 437.134C942.578 436.575 940.596 431.648 938.361 424.536C935.974 416.865 935.008 414.426 930.436 404.622C927.134 397.561 922.664 386.74 919.616 378.46C917.99 373.99 912.047 360.324 908.135 352.146C900.515 335.991 889.39 320.802 871.508 302.26C864.955 295.453 855.659 287.274 850.172 283.566C844.33 279.603 832.951 274.523 824.214 272.034C814.206 269.088 802.014 268.63 784.285 270.51C765.844 272.44 754.262 275.387 738.006 282.296C725.001 287.782 705.189 298.907 687.714 310.54C677.198 317.551 661.247 332.435 654.389 341.63C646.363 352.349 635.136 371.805 627.516 388.112C624.671 394.106 619.794 404.063 616.594 410.21C610.803 421.437 606.028 431.902 606.078 433.324C606.231 442.824 607.552 462.331 608.466 469.9C610.295 484.48 610.65 489.966 611.514 512.877C612.936 552.348 613.495 557.581 619.337 587.248C624.417 613.054 624.925 618.134 625.992 652.78C626.398 666.699 626.602 668.63 628.481 679.704C630.92 694.334 632.342 705.358 633.358 718.312C633.764 723.748 634.679 731.977 635.339 736.6C636.508 744.372 637.879 756.768 639.2 771.398C639.505 774.751 640.572 783.438 641.537 790.702C644.432 812.292 644.839 816.966 645.144 831.19C645.296 838.708 645.499 844.804 645.601 844.804C645.702 844.804 648.192 844.144 651.087 843.331C658.656 841.197 671.306 838.606 687.409 835.965C703.818 833.222 709.406 832.002 722.868 828.243C737.244 824.281 749.538 820.369 762.39 815.696C782.862 808.279 801.658 802.183 819.946 797.001C829.903 794.207 842.095 790.651 846.972 789.178C859.012 785.52 862.771 784.454 878.976 780.339C886.647 778.408 897.162 775.513 902.344 773.938C924.594 767.232 930.894 765.353 936.837 763.727C940.342 762.762 943.34 762 943.594 762C943.797 762 944 796.747 944 839.216V916.381L937.498 912.419C927.439 906.272 920.429 902.462 913.774 899.617C902.344 894.74 879.992 887.832 870.492 886.206C864.295 885.19 838.946 882.548 827.77 881.786C812.784 880.821 795.359 882.65 784.488 886.409C768.486 891.896 756.751 899.058 740.546 913.13C728.71 923.442 726.322 926.338 719.921 938.378C715.756 946.15 713.419 949.655 707.526 956.767C700.719 965.098 695.486 973.633 687.714 989.076C685.276 993.953 683.142 999.947 679.738 1011.68L678.519 1015.75L598.357 1015.9L518.144 1016L513.114 1010.67C510.371 1007.77 506.002 1003.66 503.412 1001.62C500.821 999.541 495.995 995.375 492.642 992.429C480.247 981.405 471.357 976.579 457.692 973.582C454.593 972.922 452.002 972.769 445.5 972.922C437.829 973.125 436.965 973.226 432.444 974.801C426.145 976.935 420.455 979.983 409.33 987.298C393.125 997.864 383.27 1005.99 376.462 1014.32L375.091 1016H178.241C21.0656 1016 -18.66 1015.85 -18.66 1015.34C-18.66 1015.03 -18.406 1010.06 -18.152 1004.42C-17.5932 992.734 -16.8312 985.52 -14.342 966.216C-12.8688 954.938 -12.4624 949.554 -11.802 933.196C-10.9384 910.946 -10.6336 907.39 -8.24597 891.54C-7.28076 885.241 -6.26477 877.468 -5.95996 874.268C-5.14722 865.073 -4.58838 841.248 -4.84241 826.465L-5.04559 812.902L-6.26477 812.343C-9.10956 811.073 -6.82361 808.431 -0.422791 805.688C2.21881 804.57 4.65723 803.656 5.01282 803.656C5.41919 803.656 5.57159 803.351 5.47003 802.996C4.91119 801.573 3.18402 788.162 2.67603 781.304C1.66003 768.147 -0.270386 761.136 -5.04559 752.958C-7.38239 749.046 -13.1228 742.899 -15.8152 741.426C-20.438 738.937 -25.7212 743.56 -30.8012 754.431C-34.154 761.594 -37.3544 771.855 -38.5228 779.018C-39.0816 782.676 -40.25 788.924 -41.0628 792.937C-42.6884 800.659 -43.1964 804.418 -45.33 824.23C-46.0412 830.936 -47.3112 841.705 -48.124 848.157C-48.9368 854.608 -49.9528 863.752 -50.41 868.477C-50.8164 873.201 -51.6292 880.11 -52.188 883.869C-54.0168 896.112 -54.2708 899.719 -54.728 918.21C-55.1852 938.276 -56.5568 954.684 -60.062 981.964C-60.7224 987.298 -61.2304 993.648 -62.094 1010.06L-62.4496 1016H-67.2248H-72L-71.8984 846.43L-71.746 676.91L-43.806 662.94C-28.4644 655.269 -13.6308 647.649 -10.8876 646.024C-2.65796 641.147 6.5368 633.832 17.916 623.113C23.0976 618.236 29.5492 613.105 38.8456 606.4C42.6556 603.656 49.3612 598.424 53.7808 594.766C82.5336 571.094 95.8432 561.238 110.88 552.653C120.532 547.167 123.58 545.135 123.275 544.373C123.021 543.662 132.521 538.074 149.742 528.828C169.656 518.109 175.65 514.248 189.061 503.479C204.555 490.982 210.042 486.867 219.592 480.365C225.028 476.656 233.714 470.56 238.896 466.852C244.078 463.144 251.952 457.454 256.422 454.254C265.972 447.345 274.405 441.808 290.458 431.8C306.562 421.792 321.954 411.378 330.793 404.52C334.857 401.371 340.445 397.256 343.239 395.427C347.76 392.379 365.439 382.575 385.149 372.161C389.315 369.976 396.071 366.116 400.135 363.525C404.25 360.985 413.445 355.194 420.658 350.723C427.821 346.202 436.203 341.122 439.302 339.344C448.395 334.162 452.662 331.267 452.967 329.946C453.12 329.286 453.831 328.066 454.542 327.203C456.879 324.46 469.833 316.84 484.26 309.728C495.538 304.19 498.128 302.717 509.66 294.996C521.75 286.918 526.068 283.718 537.854 274.269C559.342 256.946 572.754 247.701 603.792 228.854C614.359 222.402 626.703 214.478 631.224 211.226C635.746 207.924 647.43 199.898 657.234 193.345C666.988 186.792 678.672 178.562 683.142 175.057C695.385 165.405 700.566 161.798 733.79 139.954C747.048 131.267 756.7 123.698 769.908 111.658C777.986 104.242 782.456 100.889 789.822 96.6216C816.746 81.026 830.868 72.7456 833.967 70.612C835.999 69.2912 841.638 64.9732 846.515 61.1124C854.795 54.5592 858.91 51.4604 870.594 43.18C876.639 38.862 885.682 31.6992 891.676 26.416C901.836 17.4752 912.301 9.80438 924.391 2.43842L928.404 0H936.228H944V218.745ZM915.196 46.8376C914.841 47.4472 914.028 71.628 914.333 72.0344C914.384 72.136 917.178 70.5612 920.48 68.5292C923.782 66.4972 929.217 63.3984 932.57 61.5696C935.923 59.7916 938.971 58.0136 939.326 57.658C939.885 57.15 938.971 56.4388 933.992 53.7464C925.306 48.9712 924.798 48.7172 920.886 47.4472C916.771 46.0756 915.755 45.974 915.196 46.8376ZM815.222 114.859C813.342 118.466 811.158 125.984 810.599 131.115L810.244 134.315L812.225 132.74C813.292 131.877 816.492 129.692 819.286 127.864C822.08 126.035 826.093 123.342 828.176 121.92C830.259 120.447 832.646 118.974 833.408 118.669L834.831 118.059L831.834 115.672C830.157 114.402 827.008 111.963 824.823 110.236L820.81 107.188L818.88 109.322C817.864 110.541 816.187 113.03 815.222 114.859ZM765.184 147.32C763.406 149.86 760.307 157.429 758.885 162.865C758.123 165.608 757.412 168.3 757.259 168.808C757.005 169.57 758.326 169.062 763 166.675C769.045 163.576 778.087 158.293 780.424 156.515L781.643 155.55L780.424 154.483C777.122 151.638 767.826 145.796 766.657 145.796C766.454 145.796 765.794 146.507 765.184 147.32ZM711.234 188.468C706.764 199.187 706.967 198.374 708.694 197.206C709.456 196.698 712.098 195.174 714.638 193.802C717.127 192.43 721.801 189.738 724.95 187.808L730.742 184.252L728.506 182.88C726.068 181.356 722.106 179.934 717.94 179.07C715.298 178.562 715.146 178.562 714.841 179.527C714.638 180.137 713.012 184.15 711.234 188.468ZM669.324 216.662C667.546 219.862 664.6 230.124 665.464 230.124C666.48 230.124 680.856 220.624 680.856 219.913C680.856 218.999 672.83 214.325 671.458 214.478C670.899 214.579 669.985 215.544 669.324 216.662ZM628.176 240.64C628.024 241.148 627.008 243.535 625.941 245.974C623.909 250.546 622.69 254.559 623.046 255.524C623.249 256.184 638.641 246.177 638.692 245.313C638.692 244.754 633.968 241.656 631.631 240.741C628.684 239.573 628.583 239.573 628.176 240.64ZM583.117 273.355C581.491 275.285 579.51 278.079 578.748 279.552C576.868 283.007 574.481 289.001 574.836 289.357C575.446 289.966 592.566 280.873 596.426 277.876L597.544 276.962L594.394 274.422C591.143 271.882 587.587 269.697 586.622 269.799C586.368 269.799 584.793 271.424 583.117 273.355ZM546.744 312.42C545.423 313.741 545.474 314.147 546.947 314.858C548.014 315.316 548.217 315.265 548.471 314.3C549.233 311.404 548.522 310.642 546.744 312.42ZM511.895 323.19C511.438 324.104 510.371 325.882 509.508 327.101C508.085 329.235 504.58 336.804 504.58 337.871C504.58 339.141 515.299 332.537 518.398 329.336L520.328 327.355L516.874 324.46C514.994 322.885 513.318 321.564 513.114 321.564C512.911 321.564 512.352 322.326 511.895 323.19ZM475.522 349.25C472.576 353.466 469.274 360.172 470.138 360.172C470.442 360.172 472.982 359.054 475.827 357.632C481.009 355.092 485.784 351.942 485.784 351.028C485.784 350.317 479.79 345.44 478.926 345.44C478.52 345.44 476.996 347.167 475.522 349.25ZM441.08 368.148C440.724 368.96 439.708 371.907 438.794 374.752L437.168 379.933L440.267 378.358C443.518 376.733 450.224 372.567 450.224 372.161C450.224 371.856 442.604 366.776 442.147 366.776C441.944 366.776 441.436 367.386 441.08 368.148ZM566.048 375.514C558.479 377.85 551.214 382.778 545.576 389.382C539.937 395.986 537.397 402.234 536.787 411.226C536.381 416.662 537.346 421.996 539.581 426.974C543.391 435.407 553.297 438.099 564.676 433.832C571.941 431.089 581.085 423.215 584.488 416.662C586.571 412.699 588.552 405.638 589.111 400.253C589.467 397.002 589.467 396.9 588.146 396.342C586.825 395.732 586.774 395.681 586.978 390.957C587.13 387.452 587.028 385.928 586.52 385.267C586.063 384.607 585.911 383.642 586.165 382.372C586.724 378.816 583.574 375.412 578.596 374.396C575.598 373.786 569.96 374.294 566.048 375.514ZM408.72 389.992C406.993 392.176 405.622 394.665 404.606 397.408C403.234 401.066 403.132 402.59 404.352 402.133C406.18 401.422 412.683 397.561 414.308 396.189L415.934 394.818L413.14 391.973C411.616 390.398 410.194 389.128 409.889 389.128C409.635 389.128 409.127 389.534 408.72 389.992ZM374.786 418.084C374.024 420.37 373.567 422.351 373.719 422.504C373.922 422.707 376.615 421.132 379.764 418.998C382.863 416.865 386.216 414.731 387.181 414.274L388.858 413.41L387.74 412.648C387.13 412.242 385.352 411.226 383.778 410.413L380.882 408.94L378.494 411.48C376.666 413.41 375.853 414.934 374.786 418.084ZM348.319 434.035C346.948 437.947 346.084 441.452 346.389 441.452C346.897 441.452 349.589 439.572 353.602 436.423L357.768 433.121L355.888 431.19C354.872 430.174 353.348 428.955 352.485 428.549C350.961 427.838 350.91 427.838 350.199 429.108C349.843 429.819 348.98 432.054 348.319 434.035ZM321.903 456.082C322.36 456.54 323.783 455.676 323.478 455.168C323.224 454.762 322.919 454.812 322.411 455.219C322.005 455.524 321.802 455.93 321.903 456.082ZM460.79 455.981C453.577 456.895 445.754 458.622 441.08 460.4C432.901 463.448 423.402 469.29 416.086 475.691C409.228 481.686 392.515 501.294 384.286 513.08C374.075 527.609 371.687 531.978 366.252 545.592C355.177 573.583 352.18 581.711 351.164 586.791C349.996 592.43 349.234 607.009 349.132 624.84C349.132 632.714 348.014 647.903 346.592 659.638C345.525 668.68 344.966 681.939 345.22 691.642C345.525 701.904 346.033 706.679 349.691 732.282C352.434 751.789 353.044 757.53 353.755 769.976C354.415 781.456 353.958 797.357 352.434 815.086C350.453 838.708 350.25 862.838 351.926 880.11C352.383 884.834 352.891 894.74 353.094 902.005L353.45 915.264L366.658 911.809C378.748 908.609 391.55 905.561 415.934 900.074C420.963 898.957 432.495 896.264 441.588 894.029C466.328 888.086 483.244 884.885 499.754 883.158C518.804 881.126 538.311 877.824 545.322 875.487C548.827 874.319 549.233 874.065 548.776 873.252C548.471 872.642 548.268 861.72 548.268 843.94C548.268 816.61 547.1 780.186 545.779 764.032C545.474 760.832 545.118 755.447 544.966 752.094C544.356 739.75 543.137 719.836 542.426 710.844C542.02 705.764 541.41 696.062 541.156 689.254C540.851 682.447 540.242 674.065 539.835 670.56C539.429 667.055 538.514 658.724 537.854 652.018C537.143 645.312 536.381 638.2 536.127 636.27C535.873 634.289 534.908 627.126 534.044 620.268C533.18 613.41 531.656 603.758 530.691 598.78C529.726 593.801 528.964 588.823 528.964 587.705C528.964 586.334 528.761 585.724 528.253 585.724C526.983 585.724 525.865 584.2 526.221 582.981C526.627 581.558 529.32 578.764 531.25 577.748C535.365 575.564 540.648 573.024 541.004 573.024C541.258 573.024 541.867 571.856 542.426 570.484C543.086 568.757 543.696 567.944 544.306 567.944C545.017 567.944 545.169 567.639 544.966 566.776C544.864 566.166 544.255 563.067 543.696 559.918C543.086 556.768 542.07 552.196 541.359 549.758C538.464 540.004 536.025 530.606 534.755 524.916C528.812 497.383 522.716 483.26 512.098 472.389C503.412 463.499 494.572 458.47 483.041 455.93C478.774 455.016 468.309 455.016 460.79 455.981ZM294.319 465.938C294.014 467.157 293.506 469.595 293.201 471.424C292.947 473.253 292.541 475.234 292.388 475.894C292.134 476.961 292.338 476.91 294.827 475.031C296.351 473.862 298.891 472.237 300.516 471.373C303.412 469.849 303.463 469.798 302.599 468.782C301.634 467.766 295.792 463.804 295.233 463.804C295.03 463.804 294.674 464.769 294.319 465.938ZM271.002 487.934C270.443 490.423 270.036 492.557 270.087 492.658C270.29 492.811 278.52 486.766 278.52 486.461C278.52 485.953 272.678 482.651 272.373 483.006C272.17 483.21 271.56 485.394 271.002 487.934ZM245.246 503.784C244.586 506.476 244.128 508.813 244.23 508.914C244.484 509.219 251.19 504.698 252.256 503.53C253.12 502.615 253.018 502.463 250.275 499.872C246.872 496.672 247.075 496.57 245.246 503.784ZM222.183 520.446C221.573 522.681 220.913 524.916 220.76 525.424C220.608 526.085 221.37 525.678 223.25 524.154C224.723 522.935 226.552 521.564 227.212 521.056L228.431 520.192L226.196 517.906C224.977 516.636 223.808 515.772 223.656 516.026C223.453 516.23 222.792 518.211 222.183 520.446ZM323.63 526.644C319.566 528.523 316.772 531.012 314.131 534.975C311.337 539.14 310.118 542.696 309 550.113C307.679 558.546 307.679 562.051 308.949 563.321C311.083 565.455 316.976 565.353 321.649 563.016C327.339 560.273 331.708 554.584 334.349 546.456C335.01 544.576 335.924 542.747 336.483 542.341C338.007 541.274 338.769 536.854 338.007 533.298C337.296 529.895 335.822 527.507 333.384 525.882C331.047 524.307 328.101 524.561 323.63 526.644ZM199.577 535.432C198.561 537.769 197.748 539.801 197.748 539.852C197.748 540.156 202.676 536.905 204.25 535.584L205.927 534.162L203.793 532.536C202.625 531.622 201.558 530.911 201.507 531.012C201.406 531.063 200.542 533.044 199.577 535.432ZM176.564 551.332C176.158 552.653 175.904 553.923 176.107 554.076C176.514 554.482 182.864 550.164 184.54 548.335L185.81 547.014L184.54 546.151C183.829 545.694 182.61 544.728 181.746 543.966L180.222 542.646L178.8 545.744C177.987 547.472 177.022 550.012 176.564 551.332ZM158.226 567.69C158.276 569.773 158.734 569.925 159.648 568.198C160.156 567.182 160.207 566.826 159.648 566.166C158.734 565.048 158.124 565.709 158.226 567.69ZM135.264 574.04C134.045 577.139 133.13 581.812 133.537 582.93C133.74 583.438 134.807 582.93 137.55 580.847C139.582 579.323 141.411 577.698 141.563 577.24C141.766 576.783 141.411 575.869 140.75 575.107C139.43 573.532 136.636 570.941 136.483 571.144C136.432 571.195 135.874 572.516 135.264 574.04ZM237.016 585.724C233.257 587.045 223.402 592.582 216.087 597.56C209.584 601.98 199.983 611.124 195.462 617.22C188.756 626.262 183.372 636.473 180.171 646.176C179.155 649.376 176.971 655.422 175.345 659.638C173.77 663.804 171.891 669.188 171.18 671.576C170.468 673.964 168.132 681.584 166.049 688.594C160.816 706.12 159.8 709.828 158.886 714.604C157.921 719.734 157.159 729.945 157.413 735.076C157.514 737.159 157.87 748.386 158.175 759.968C159.038 789.635 158.632 800.506 155.787 831.342C154.67 843.585 154.314 861.873 155.025 875.792C155.381 882.345 155.838 901.548 156.092 918.464C156.346 935.38 156.803 953.211 157.108 958.088C157.667 967.334 158.53 976.427 158.835 976.782C158.937 976.884 162.544 976.02 166.862 974.903C171.129 973.785 181.949 971.347 190.89 969.518C207.044 966.165 210.346 965.302 232.292 958.952C238.591 957.123 249.208 954.227 255.914 952.551C262.62 950.874 272.119 948.131 277.047 946.404L285.937 943.254L285.734 915.213C285.581 898.754 285.734 881.685 286.089 873.76C286.394 866.343 287.004 851.967 287.41 841.756C288.121 823.773 288.68 814.07 289.747 800.354C290.001 796.696 290.458 783.895 290.712 771.906C290.966 759.866 291.322 744.322 291.525 737.362C292.033 719.125 290.306 694.995 288.426 692.912C287.105 691.439 287.512 689.61 289.544 687.832C291.423 686.156 299.958 681.736 301.278 681.736C301.939 681.736 301.99 680.568 301.736 673.71C301.583 669.341 301.075 663.804 300.618 661.416C297.316 644.195 292.084 625.196 288.68 617.83C283.397 606.603 275.218 596.087 267.598 590.804C265.058 589.077 259.47 586.994 252.866 585.419C246.821 583.997 241.893 584.098 237.016 585.724ZM113.42 590.956C112.404 593.242 111.337 597.408 111.744 597.408C112.201 597.408 116.773 593.954 117.484 593.09C118.043 592.43 117.89 592.023 116.468 590.55C115.503 589.585 114.639 588.772 114.538 588.772C114.436 588.772 113.928 589.737 113.42 590.956ZM91.2712 606.146C89.6456 609.346 88.4264 612.699 88.782 613.054C88.8836 613.207 90.7632 611.988 92.846 610.362L96.7068 607.416L94.8272 605.485C93.7604 604.368 92.846 603.504 92.7444 603.504C92.6936 603.504 92.0332 604.672 91.2712 606.146ZM73.5928 618.592C72.018 623.214 72.6276 624.027 75.6756 621.335L77.8092 619.404L76.5392 617.525C75.828 616.509 75.066 615.798 74.812 615.95C74.6088 616.102 74.05 617.271 73.5928 618.592ZM57.5908 628.802C57.032 630.682 56.524 632.562 56.524 632.968C56.524 633.374 57.794 632.46 59.318 630.936L62.112 628.193L60.7404 626.77C59.9784 626.008 59.2164 625.348 59.064 625.348C58.8608 625.348 58.2004 626.923 57.5908 628.802ZM152.13 630.733C148.472 632.562 143.9 637.184 142.071 640.842C139.176 646.836 140.039 654.355 144.103 658.825C145.983 660.806 146.338 661.01 148.066 660.756C149.082 660.603 150.656 659.994 151.469 659.384C154.873 656.996 160.664 647.903 159.546 646.786C159.14 646.379 159.14 645.414 159.597 643.331C160.613 638.251 160.105 632.003 158.53 630.022C157.667 629.006 154.974 629.31 152.13 630.733ZM40.5728 639.521C39.5568 641.452 38.744 643.179 38.744 643.331C38.744 643.941 41.03 642.518 42.9096 640.69C44.7892 638.912 44.7892 638.912 43.9256 637.438C43.4684 636.676 42.9604 636.016 42.7572 636.016C42.554 636.016 41.5888 637.591 40.5728 639.521ZM26.806 648.716C27.1108 649.173 27.2632 649.173 27.6188 648.665C28.1268 647.802 27.6188 646.938 26.9584 647.598C26.6536 647.903 26.6028 648.411 26.806 648.716ZM6.73999 659.333C6.13043 660.959 5.724 662.94 5.82562 663.651L5.97803 665.023L9.28003 662.991C11.1088 661.822 12.8868 660.705 13.2932 660.451C13.9536 660.044 13.9028 659.79 13.1408 658.571C12.6328 657.758 11.6168 656.59 10.9056 655.98C9.6864 654.964 9.48322 654.914 8.72119 655.625C8.26404 656.031 7.34961 657.758 6.73999 659.333ZM-10.4812 671.424C-10.532 672.338 -10.4304 673.1 -10.278 673.1C-10.1256 673.1 -9.05878 672.643 -7.992 672.084L-5.95996 671.068L-6.82361 669.646C-7.28076 668.884 -8.04279 667.868 -8.44922 667.36C-9.21118 666.496 -9.26196 666.496 -9.8208 668.122C-10.1764 669.036 -10.4812 670.56 -10.4812 671.424ZM90.0012 674.065C86.3436 675.437 81.5176 678.586 79.0792 681.076C75.574 684.733 68.1064 695.198 66.176 699.262C63.5852 704.698 61.7564 710.336 57.4892 726.135C55.508 733.45 52.9172 743.052 51.6472 747.522C48.7516 757.987 45.1956 775.716 43.8748 786.384C43.316 791.007 42.046 798.322 41.0808 802.64C38.49 814.172 37.8804 817.778 36.204 832.053C35.2388 840.029 34.3752 845.566 33.8672 846.531C33.2576 847.75 32.9528 850.951 32.5972 860.806C31.7844 882.65 31.1748 892.099 30.108 898.398C28.5332 907.491 28.1268 920.953 28.1268 960.882C28.1776 980.694 28.0252 1000.35 27.822 1004.52C27.4664 1011.68 27.4664 1012.09 28.33 1011.73C28.838 1011.58 33.156 1010.36 37.9312 1009.09C46.5164 1006.81 59.7244 1002.54 67.192 999.642C69.2748 998.83 76.844 996.493 83.956 994.41C91.068 992.327 99.45 989.889 102.549 988.974L108.238 987.349L108.543 985.012C109.356 979.424 109.915 966.775 110.372 944.118C110.829 917.905 111.49 903.884 112.658 891.794C113.064 887.578 113.674 878.434 113.928 871.474C114.233 864.464 114.842 855.574 115.249 851.662C115.655 847.75 116.214 835.762 116.468 824.992C116.722 814.222 117.281 798.932 117.738 790.956C118.144 782.98 118.5 775.97 118.5 775.36C118.5 774.344 121.345 770.636 122.158 770.636C122.31 770.636 124.494 769.417 126.933 767.893L131.403 765.15L131.505 740.816C131.606 710.692 131.505 709.981 124.596 695.706C118.398 682.803 111.388 675.132 104.124 673.303C100.364 672.338 93.5572 672.694 90.0012 674.065ZM-27.4992 678.536C-27.9564 679.856 -28.312 681.685 -28.312 682.65V684.378L-26.5848 683.057C-25.6196 682.346 -24.502 681.888 -24.0956 682.041C-22.9272 682.498 -22.5716 681.38 -23.2828 679.298C-24.8068 674.573 -26.0768 674.319 -27.4992 678.536ZM-45.8888 689.712L-46.4984 692.353L-44.0092 690.728C-41.266 688.899 -40.8596 687.476 -42.3328 684.682L-43.1964 683.057L-44.2124 685.089C-44.7712 686.156 -45.5332 688.238 -45.8888 689.712ZM-60.062 695.604C-60.2652 697.078 -60.316 698.957 -60.2144 699.77L-60.062 701.294L-58.1824 699.364C-57.1156 698.297 -56.252 697.281 -56.252 697.078C-56.252 696.417 -58.792 692.912 -59.3 692.912C-59.554 692.912 -59.9096 694.131 -60.062 695.604ZM28.3808 707.339C26.1456 709.676 22.4372 719.125 22.1324 723.138C21.8784 726.389 22.5388 728.98 23.6564 728.98C24.6724 728.98 27.2124 726.034 29.346 722.376C30.4128 720.547 31.6828 718.464 32.1908 717.702C33.3084 716.077 33.918 712.876 33.4608 710.59C33.1052 708.558 31.378 705.612 30.5652 705.612C30.2604 705.612 29.2444 706.374 28.3808 707.339Z" stroke="#FFEDC0" stroke-width="3.19497" mask="url(#path-2-inside-1_351_115)"/>
<g clip-path="url(#clip0_351_115)">
<path d="M4 455.983V556.029L7.51315 562.137C12.3239 570.461 14.0014 572.961 16.5334 575.651C19.2553 578.532 21.1227 579.766 22.7368 579.766C23.7496 579.766 24.0344 579.608 24.3193 578.943C24.6041 578.373 25.522 577.74 27.5476 576.791C29.1301 576.031 32.8331 573.974 35.7766 572.233C44.0689 567.264 46.3477 566.631 55.1147 566.884C60.875 567.043 62.6474 567.391 69.3572 569.701C78.4725 572.835 83.2199 575.177 88.7271 579.386C90.4361 580.684 94.1708 583.311 97.051 585.241C107.78 592.426 109.869 594.262 116.674 602.396C118.858 605.023 122.023 608.757 123.732 610.751C127.72 615.404 129.556 618.189 133.195 625.184C139.082 636.578 139.684 638.287 141.804 649.712C142.595 654.017 144.842 670.57 145.444 676.457C146.742 689.022 147.469 704.214 147.185 712.569L146.963 719.279L144.558 719.786C140.886 720.577 136.835 722.096 136.234 722.919C135.822 723.457 135.727 724.027 135.886 725.514C136.012 726.812 135.822 728.584 135.379 731.053C134.556 735.389 134.145 736.718 132.182 741.497C130.473 745.644 128.416 752.005 127.435 756.215C127.055 757.766 126.264 761.12 125.694 763.652C123.352 773.591 120.44 791.758 119.997 799.259C119.712 804.164 119.016 809.545 117.94 815.242C117.434 817.932 116.864 821.129 116.674 822.363C116.484 823.566 115.63 828.282 114.775 832.808C113.92 837.334 112.718 843.885 112.085 847.335C110.724 854.994 109.078 862.179 108.635 862.464C106.451 863.92 78.8522 865.882 54.007 866.357C40.0177 866.61 30.6176 867.053 22.5152 867.813C16.2485 868.382 7.7347 869.395 5.04445 869.87L4 870.06V929.53V989H320.5H637V889.841V790.713L630.892 787.422C627.568 785.586 622.694 782.991 620.067 781.598C610.192 776.376 603.799 772.388 591.899 764.032C578.954 754.949 570.662 748.429 559.457 738.491C551.229 731.211 543.063 724.375 531.226 714.848C525.37 710.132 508.343 698.074 503.057 694.877C498.816 692.313 493.341 689.591 490.492 688.642C489.194 688.231 486.156 686.49 482.263 683.989C474.794 679.242 472.831 677.849 465.679 672.184C462.64 669.81 458.399 666.519 456.279 664.904C454.126 663.259 448.714 659.018 444.251 655.441C435.738 648.605 430.864 645.187 423.521 640.85C416.463 636.673 408.709 631.988 403.74 628.918C399.119 626.07 397.473 625.12 386.49 619.075C378.673 614.803 370.507 609.897 361.645 604.2C350.029 596.762 345.409 593.375 334.426 584.387C324.836 576.506 315.689 569.923 306.606 564.321C297.649 558.814 278.849 545.869 266.379 536.627C258.244 530.582 250.585 525.486 240.109 519.156C214.283 503.521 202.572 495.355 179.499 476.904C175.67 473.833 170.416 469.719 167.789 467.725C165.193 465.731 161.269 462.724 159.085 461.015C148.356 452.565 145.507 450.571 131.708 441.867C121.896 435.664 117.56 433.163 106.071 426.991C95.5318 421.326 91.5755 418.952 80.9095 411.863C76.1303 408.698 69.2939 404.267 65.7175 402.051C62.141 399.836 57.2669 396.702 54.8932 395.057C49.7659 391.575 36.821 381.795 31.219 377.143C29.0351 375.339 25.427 372.427 23.1482 370.654C20.9011 368.914 17.198 365.875 14.9192 363.913C10.6465 360.242 8.0512 358.279 5.5192 356.792L4 355.937V455.983ZM264.954 676.773C270.145 679.78 272.993 681.995 277.931 686.901C282.995 691.965 284.989 694.624 288.249 700.669C289.515 703.011 291.762 707.157 293.281 709.848C306.194 732.857 307.017 735.041 308.758 750.992C309.707 759.57 310.024 765.9 310.214 778.876C310.277 785.238 310.435 790.682 310.53 790.935C310.657 791.283 310.309 791.473 309.043 791.758C302.808 793.182 301.162 794.226 301.921 796.22C302.27 797.138 302.649 797.36 303.662 797.233C304.137 797.17 304.137 797.265 302.713 806.063C300.529 819.768 299.643 832.016 299.294 854.488C299.136 864.141 298.915 872.402 298.82 872.845C298.377 875.029 296.731 886.17 296.288 889.936C296.035 892.278 295.75 897.848 295.655 902.279C295.496 908.989 295.402 910.382 294.99 910.603C293.059 911.68 278.564 914.243 268.436 915.288C261.03 916.047 253.022 916.174 249.193 915.572C239.223 914.053 234.76 909.179 232.386 897.374C231.152 891.202 230.836 887.499 231.025 882.498C231.31 875.947 232.291 869.3 234.412 860.027C237.704 845.721 238.178 841.638 238.526 825.37C238.906 808.374 238.938 807.709 240.932 795.777C242.641 785.428 243.147 779.541 244.223 758.588C244.413 755.202 244.888 749.505 245.331 745.928C245.743 742.352 246.312 736.433 246.597 732.794C248.844 702.378 250.269 692.788 253.877 683.895C256.029 678.609 258.972 674.684 260.745 674.716C261.156 674.748 263.055 675.665 264.954 676.773ZM409.215 752.986C411.62 754.537 413.329 756.405 415.323 759.633C419.375 766.184 421.337 773.021 422.888 785.966C423.141 788.213 423.647 791.726 423.995 793.752C424.344 795.746 424.977 800.588 425.42 804.513C426.274 812.267 426.401 812.932 427.952 819.673C429.154 824.927 430.167 830.561 430.642 834.707C430.8 836.258 431.022 838.03 431.117 838.568L431.307 839.612H429.249C427.414 839.612 427.097 839.707 426.369 840.467C425.895 841.005 425.641 841.543 425.768 841.828C425.895 842.081 426.116 843.379 426.243 844.676C427.509 857.495 427.509 862.084 426.243 876.01C425.103 888.195 425.008 892.278 425.388 907.343C425.578 914.686 425.546 919.909 425.325 923.327C425.135 926.112 424.787 932.885 424.597 938.36C424.217 948.267 424.28 949.406 425.198 952.983C425.515 954.154 425.515 954.185 424.66 953.996C420.292 953.046 417.412 950.482 414.785 945.292C413.013 941.747 409.247 933.328 407.822 929.657C405.48 923.738 403.993 916.332 403.423 907.818C403.043 902.153 403.423 877.308 404.088 864.932C404.562 856.324 404.309 853.317 401.682 835.688C398.581 814.862 398.327 811.381 398.707 793.72C399.277 765.108 400.891 754.727 405.227 751.91C406.208 751.277 406.746 751.436 409.215 752.986Z" fill="#FA8334"/>
<g clip-path="url(#clip1_351_115)">
<path d="M4 492.285C4 587.646 4.09495 628.475 4.34815 628.348C4.8862 628 6.12055 624.93 7.51315 620.499C9.0007 615.72 9.60205 614.201 12.4506 608.092C14.5078 603.693 17.293 596.951 19.192 591.793C20.2048 589.007 23.9079 580.493 26.3449 575.398C31.0924 565.333 38.0238 555.87 49.1646 544.318C53.2474 540.076 59.0393 534.981 62.4576 532.67C66.0973 530.202 73.1869 527.037 78.6307 525.486C84.8657 523.65 92.4617 523.365 103.508 524.536C114.997 525.739 122.213 527.575 132.341 531.879C140.443 535.297 152.787 542.229 163.674 549.476C170.226 553.844 180.164 563.118 184.437 568.846C189.437 575.524 196.432 587.646 201.179 597.806C202.952 601.541 205.99 607.744 207.984 611.574C211.592 618.568 214.567 625.088 214.536 625.975C214.441 631.893 213.618 644.047 213.048 648.763C211.909 657.846 211.687 661.264 211.149 675.538C210.263 700.13 209.915 703.39 206.275 721.874C203.11 737.952 202.794 741.117 202.129 762.702C201.876 771.375 201.749 772.577 200.578 779.477C199.059 788.592 198.173 795.46 197.54 803.531C197.287 806.918 196.717 812.045 196.305 814.925C195.577 819.767 194.723 827.49 193.9 836.605C193.71 838.694 193.045 844.106 192.444 848.632C190.64 862.084 190.387 864.995 190.197 873.857C190.102 878.542 189.975 882.34 189.912 882.34C189.849 882.34 188.298 881.928 186.494 881.422C181.778 880.092 173.897 878.478 163.864 876.832C153.641 875.123 150.16 874.364 141.772 872.022C132.815 869.553 125.156 867.116 117.149 864.204C104.394 859.583 92.6833 855.785 81.2893 852.557C75.0859 850.816 67.4899 848.601 64.4515 847.683C56.9504 845.404 54.6083 844.739 44.512 842.176C39.7328 840.973 33.1813 839.169 29.953 838.188C16.0903 834.01 12.1657 832.839 8.46265 831.826C6.2788 831.225 4.41145 830.75 4.2532 830.75C4.1266 830.75 4 852.399 4 878.858V926.934L8.0512 924.466C14.3179 920.636 18.6856 918.262 22.8317 916.49C29.953 913.451 43.879 909.147 49.7976 908.134C53.6588 907.501 69.4522 905.855 76.4152 905.381C85.7519 904.779 96.6079 905.919 103.381 908.261C113.351 911.679 120.662 916.142 130.758 924.909C138.133 931.334 139.62 933.138 143.608 940.639C146.203 945.481 147.659 947.665 151.331 952.096C155.572 957.287 158.832 962.604 163.674 972.226C165.193 975.264 166.523 978.999 168.643 986.31L169.403 988.842L219.347 988.937L269.322 989L272.455 985.677C274.164 983.873 276.886 981.309 278.5 980.043C280.115 978.745 283.121 976.15 285.21 974.314C292.933 967.446 298.472 964.44 306.985 962.572C308.916 962.161 310.53 962.066 314.581 962.161C319.361 962.287 319.899 962.351 322.715 963.332C326.64 964.661 330.185 966.56 337.116 971.118C347.213 977.701 353.353 982.765 357.594 987.956L358.448 989H481.092C579.017 989 603.768 988.905 603.768 988.589C603.768 988.399 603.609 985.297 603.451 981.784C603.103 974.504 602.628 970.01 601.077 957.983C600.159 950.957 599.906 947.602 599.495 937.41C598.957 923.548 598.767 921.332 597.279 911.458C596.678 907.533 596.045 902.69 595.855 900.697C595.349 894.968 595 880.124 595.159 870.914L595.285 862.463L596.045 862.115C597.817 861.324 596.393 859.678 592.405 857.969C590.759 857.273 589.24 856.703 589.019 856.703C588.765 856.703 588.67 856.513 588.734 856.292C589.082 855.405 590.158 847.05 590.474 842.777C591.107 834.58 592.31 830.212 595.285 825.116C596.741 822.679 600.318 818.85 601.995 817.932C604.875 816.381 608.167 819.261 611.332 826.034C613.421 830.497 615.415 836.89 616.143 841.353C616.491 843.632 617.219 847.525 617.725 850.025C618.738 854.836 619.054 857.178 620.384 869.521C620.827 873.699 621.618 880.409 622.125 884.428C622.631 888.448 623.264 894.145 623.549 897.088C623.802 900.032 624.308 904.336 624.656 906.678C625.796 914.306 625.954 916.553 626.239 928.074C626.524 940.576 627.378 950.798 629.562 967.795C629.974 971.118 630.29 975.074 630.828 985.297L631.05 989H634.025H637L636.937 883.352L636.842 777.736L619.434 769.033C609.876 764.253 600.634 759.506 598.925 758.493C593.798 755.455 588.069 750.897 580.979 744.219C577.751 741.181 573.732 737.984 567.94 733.806C565.566 732.097 561.388 728.837 558.635 726.558C540.721 711.809 532.428 705.669 523.06 700.32C517.047 696.902 515.147 695.636 515.337 695.161C515.496 694.718 509.577 691.237 498.848 685.477C486.441 678.798 482.706 676.393 474.351 669.683C464.697 661.897 461.279 659.334 455.329 655.282C451.942 652.972 446.53 649.174 443.302 646.863C440.074 644.553 435.168 641.008 432.383 639.014C426.433 634.71 421.179 631.26 411.177 625.025C401.144 618.79 391.554 612.302 386.047 608.029C383.515 606.067 380.034 603.503 378.293 602.364C375.476 600.465 364.462 594.356 352.182 587.868C349.586 586.507 345.377 584.102 342.845 582.487C340.281 580.905 334.553 577.297 330.058 574.512C325.596 571.695 320.373 568.53 318.443 567.422C312.777 564.194 310.119 562.39 309.929 561.567C309.834 561.155 309.391 560.396 308.948 559.858C307.492 558.149 299.421 553.401 290.432 548.97C283.406 545.52 281.792 544.602 274.607 539.792C267.075 534.759 264.385 532.765 257.042 526.878C243.654 516.086 235.298 510.325 215.96 498.583C209.377 494.564 201.686 489.626 198.869 487.601C196.052 485.543 188.773 480.543 182.664 476.46C176.587 472.377 169.308 467.25 166.523 465.066C158.895 459.052 155.667 456.805 134.968 443.196C126.707 437.784 120.694 433.068 112.465 425.567C107.432 420.946 104.647 418.857 100.058 416.198C83.2832 406.482 74.4846 401.323 72.5539 399.994C71.2879 399.171 67.7747 396.48 64.7363 394.075C59.5774 389.992 57.0137 388.061 49.7342 382.903C45.9679 380.212 40.3342 375.75 36.5995 372.458C30.2695 366.888 23.7496 362.108 16.2169 357.519L13.7165 356H8.84245H4V492.285ZM21.9455 385.181C22.1671 385.561 22.6735 400.627 22.4836 400.88C22.452 400.943 20.7112 399.962 18.6539 398.696C16.5967 397.43 13.2101 395.499 11.1212 394.36C9.03235 393.252 7.13335 392.144 6.9118 391.923C6.56365 391.606 7.13335 391.163 10.235 389.486C15.6472 386.511 15.9637 386.352 18.4008 385.561C20.9644 384.707 21.5974 384.643 21.9455 385.181ZM84.2327 427.561C85.4038 429.808 86.7647 434.492 87.1129 437.689L87.3344 439.683L86.1001 438.701C85.4354 438.163 83.4415 436.802 81.7007 435.663C79.96 434.524 77.4596 432.846 76.162 431.96C74.8643 431.042 73.3768 430.124 72.902 429.934L72.0158 429.555L73.8832 428.067C74.9277 427.276 76.8899 425.757 78.2509 424.681L80.7513 422.781L81.9539 424.111C82.5869 424.87 83.6314 426.421 84.2327 427.561ZM115.408 447.785C116.516 449.367 118.446 454.083 119.333 457.47C119.807 459.179 120.25 460.856 120.345 461.173C120.504 461.648 119.681 461.331 116.769 459.844C113.003 457.913 107.369 454.621 105.913 453.514L105.153 452.912L105.913 452.248C107.97 450.475 113.762 446.836 114.49 446.836C114.617 446.836 115.028 447.279 115.408 447.785ZM149.02 473.422C151.805 480.1 151.679 479.593 150.603 478.865C150.128 478.549 148.482 477.599 146.9 476.745C145.349 475.89 142.437 474.213 140.475 473.01L136.867 470.795L138.259 469.94C139.779 468.991 142.247 468.104 144.842 467.566C146.488 467.25 146.583 467.25 146.773 467.851C146.9 468.231 147.913 470.731 149.02 473.422ZM175.132 490.987C176.239 492.981 178.075 499.375 177.537 499.375C176.904 499.375 167.947 493.456 167.947 493.013C167.947 492.443 172.948 489.531 173.802 489.626C174.15 489.69 174.72 490.291 175.132 490.987ZM200.768 505.926C200.863 506.243 201.496 507.73 202.161 509.249C203.427 512.098 204.186 514.598 203.965 515.2C203.838 515.611 194.248 509.376 194.216 508.838C194.216 508.49 197.16 506.559 198.616 505.989C200.452 505.261 200.515 505.261 200.768 505.926ZM228.842 526.309C229.854 527.511 231.089 529.252 231.563 530.17C232.735 532.322 234.222 536.057 234.001 536.278C233.621 536.658 222.955 530.993 220.549 529.126L219.853 528.556L221.815 526.973C223.841 525.391 226.056 524.03 226.658 524.093C226.816 524.093 227.797 525.106 228.842 526.309ZM251.503 550.648C252.326 551.47 252.294 551.724 251.376 552.167C250.712 552.452 250.585 552.42 250.427 551.819C249.952 550.014 250.395 549.54 251.503 550.648ZM273.215 557.357C273.5 557.927 274.164 559.035 274.702 559.794C275.589 561.124 277.772 565.84 277.772 566.504C277.772 567.295 271.094 563.181 269.164 561.187L267.961 559.953L270.113 558.149C271.284 557.167 272.329 556.345 272.455 556.345C272.582 556.345 272.93 556.819 273.215 557.357ZM295.876 573.594C297.712 576.221 299.769 580.398 299.231 580.398C299.041 580.398 297.459 579.702 295.686 578.816C292.458 577.234 289.483 575.271 289.483 574.702C289.483 574.258 293.218 571.22 293.756 571.22C294.009 571.22 294.958 572.296 295.876 573.594ZM317.335 585.368C317.557 585.874 318.19 587.71 318.759 589.482L319.772 592.71L317.841 591.729C315.816 590.716 311.638 588.121 311.638 587.868C311.638 587.678 316.385 584.513 316.67 584.513C316.797 584.513 317.113 584.893 317.335 585.368ZM239.476 589.957C244.192 591.413 248.718 594.483 252.231 598.597C255.744 602.712 257.327 606.605 257.706 612.207C257.96 615.593 257.358 618.917 255.966 622.018C253.592 627.272 247.42 628.95 240.331 626.291C235.805 624.582 230.108 619.676 227.987 615.593C226.689 613.125 225.455 608.725 225.107 605.37C224.885 603.345 224.885 603.281 225.708 602.933C226.531 602.553 226.563 602.522 226.436 599.578C226.341 597.395 226.405 596.445 226.721 596.034C227.006 595.622 227.101 595.021 226.943 594.23C226.594 592.014 228.557 589.893 231.658 589.26C233.526 588.881 237.039 589.197 239.476 589.957ZM337.496 598.977C338.572 600.338 339.427 601.889 340.06 603.598C340.914 605.877 340.978 606.826 340.218 606.541C339.079 606.098 335.027 603.693 334.015 602.838L333.002 601.984L334.742 600.211C335.692 599.23 336.578 598.439 336.768 598.439C336.926 598.439 337.243 598.692 337.496 598.977ZM358.638 616.48C359.113 617.904 359.398 619.138 359.303 619.233C359.176 619.36 357.499 618.379 355.537 617.049C353.606 615.72 351.517 614.391 350.916 614.106L349.871 613.568L350.568 613.093C350.947 612.84 352.055 612.207 353.036 611.7L354.84 610.783L356.328 612.365C357.467 613.568 357.974 614.517 358.638 616.48ZM375.128 626.418C375.982 628.855 376.52 631.039 376.331 631.039C376.014 631.039 374.337 629.867 371.836 627.905L369.241 625.848L370.412 624.645C371.045 624.012 371.995 623.253 372.533 622.999C373.482 622.556 373.514 622.556 373.957 623.348C374.178 623.791 374.716 625.183 375.128 626.418ZM391.586 640.154C391.301 640.439 390.415 639.901 390.605 639.584C390.763 639.331 390.953 639.362 391.269 639.616C391.523 639.806 391.649 640.059 391.586 640.154ZM305.055 640.09C309.549 640.66 314.423 641.736 317.335 642.844C322.431 644.743 328.349 648.383 332.907 652.371C337.18 656.105 347.592 668.322 352.72 675.665C359.081 684.717 360.569 687.439 363.955 695.921C370.855 713.36 372.723 718.424 373.355 721.589C374.083 725.102 374.558 734.186 374.621 745.295C374.621 750.201 375.318 759.664 376.204 766.975C376.869 772.609 377.217 780.87 377.059 786.915C376.869 793.308 376.552 796.283 374.273 812.235C372.564 824.388 372.184 827.965 371.741 835.719C371.33 842.872 371.615 852.778 372.564 863.824C373.799 878.542 373.925 893.575 372.881 904.336C372.596 907.28 372.279 913.451 372.153 917.977L371.931 926.238L363.702 924.086C356.17 922.092 348.194 920.193 333.002 916.775C329.868 916.078 322.684 914.401 317.018 913.008C301.605 909.305 291.065 907.311 280.779 906.235C268.91 904.969 256.757 902.912 252.389 901.456C250.205 900.728 249.952 900.57 250.237 900.063C250.427 899.684 250.553 892.879 250.553 881.801C250.553 864.774 251.281 842.081 252.104 832.016C252.294 830.022 252.516 826.667 252.611 824.578C252.991 816.887 253.75 804.48 254.193 798.878C254.446 795.713 254.826 789.668 254.984 785.427C255.174 781.186 255.554 775.964 255.807 773.78C256.061 771.596 256.63 766.406 257.042 762.228C257.485 758.05 257.96 753.619 258.118 752.416C258.276 751.182 258.877 746.719 259.415 742.447C259.954 738.174 260.903 732.16 261.504 729.059C262.106 725.957 262.581 722.855 262.581 722.159C262.581 721.304 262.707 720.924 263.024 720.924C263.815 720.924 264.511 719.975 264.29 719.215C264.036 718.329 262.359 716.588 261.156 715.955C258.593 714.595 255.301 713.012 255.079 713.012C254.921 713.012 254.541 712.284 254.193 711.43C253.782 710.353 253.402 709.847 253.022 709.847C252.579 709.847 252.484 709.657 252.611 709.119C252.674 708.739 253.054 706.809 253.402 704.846C253.782 702.884 254.415 700.035 254.858 698.516C256.662 692.44 258.181 686.584 258.972 683.039C262.675 665.885 266.473 657.086 273.088 650.313C278.5 644.775 284.008 641.641 291.192 640.059C293.851 639.489 300.371 639.489 305.055 640.09ZM408.772 646.294C408.962 647.053 409.278 648.573 409.468 649.712C409.626 650.851 409.88 652.086 409.975 652.497C410.133 653.162 410.006 653.13 408.455 651.959C407.506 651.231 405.923 650.218 404.911 649.68C403.107 648.731 403.075 648.699 403.613 648.066C404.214 647.433 407.854 644.965 408.202 644.965C408.329 644.965 408.55 645.566 408.772 646.294ZM423.299 659.998C423.647 661.549 423.901 662.878 423.869 662.942C423.742 663.037 418.615 659.27 418.615 659.08C418.615 658.764 422.255 656.707 422.445 656.928C422.571 657.055 422.951 658.416 423.299 659.998ZM439.346 669.873C439.757 671.551 440.042 673.006 439.979 673.07C439.82 673.26 435.643 670.443 434.978 669.715C434.44 669.145 434.503 669.05 436.212 667.436C438.333 665.442 438.206 665.379 439.346 669.873ZM453.715 680.254C454.095 681.647 454.506 683.039 454.601 683.356C454.696 683.767 454.221 683.514 453.05 682.565C452.132 681.805 450.993 680.951 450.581 680.634L449.822 680.096L451.214 678.672C451.974 677.88 452.702 677.342 452.797 677.501C452.924 677.627 453.335 678.862 453.715 680.254ZM390.51 684.116C393.042 685.287 394.783 686.837 396.428 689.306C398.169 691.901 398.929 694.117 399.625 698.738C400.448 703.992 400.448 706.176 399.657 706.967C398.327 708.296 394.656 708.233 391.744 706.777C388.199 705.068 385.477 701.523 383.832 696.459C383.42 695.288 382.85 694.149 382.502 693.895C381.553 693.231 381.078 690.477 381.553 688.262C381.996 686.141 382.914 684.654 384.433 683.641C385.889 682.66 387.725 682.818 390.51 684.116ZM467.799 689.591C468.432 691.047 468.938 692.313 468.938 692.345C468.938 692.534 465.868 690.509 464.887 689.686L463.843 688.8L465.172 687.787C465.9 687.217 466.565 686.774 466.596 686.837C466.66 686.869 467.198 688.103 467.799 689.591ZM482.137 699.497C482.39 700.32 482.548 701.112 482.421 701.207C482.168 701.46 478.212 698.77 477.167 697.63L476.376 696.807L477.167 696.269C477.611 695.984 478.37 695.383 478.908 694.908L479.858 694.085L480.744 696.016C481.25 697.092 481.852 698.675 482.137 699.497ZM493.562 709.689C493.531 710.986 493.246 711.081 492.676 710.005C492.359 709.372 492.328 709.151 492.676 708.739C493.246 708.043 493.625 708.454 493.562 709.689ZM507.868 713.645C508.628 715.576 509.197 718.487 508.944 719.184C508.817 719.5 508.153 719.184 506.444 717.886C505.178 716.937 504.038 715.924 503.943 715.639C503.817 715.354 504.038 714.784 504.45 714.31C505.273 713.328 507.013 711.714 507.108 711.841C507.14 711.873 507.488 712.695 507.868 713.645ZM444.473 720.924C446.815 721.747 452.955 725.197 457.513 728.299C461.564 731.053 467.546 736.75 470.363 740.548C474.541 746.181 477.895 752.543 479.889 758.588C480.522 760.582 481.883 764.348 482.896 766.975C483.877 769.571 485.048 772.925 485.491 774.413C485.935 775.901 487.39 780.648 488.688 785.016C491.948 795.935 492.581 798.245 493.151 801.221C493.752 804.417 494.227 810.779 494.069 813.976C494.005 815.273 493.784 822.268 493.594 829.484C493.056 847.968 493.309 854.741 495.081 873.952C495.778 881.58 495.999 892.974 495.556 901.646C495.335 905.729 495.05 917.693 494.891 928.232C494.733 938.771 494.448 949.881 494.258 952.919C493.91 958.679 493.372 964.345 493.182 964.566C493.119 964.63 490.872 964.091 488.182 963.395C485.523 962.699 478.782 961.18 473.211 960.04C463.147 957.951 461.089 957.413 447.417 953.457C443.492 952.318 436.877 950.514 432.699 949.469C428.521 948.425 422.603 946.716 419.533 945.639L413.994 943.677L414.121 926.206C414.216 915.952 414.121 905.317 413.899 900.38C413.709 895.759 413.329 886.802 413.076 880.441C412.633 869.236 412.285 863.191 411.62 854.646C411.462 852.367 411.177 844.391 411.019 836.922C410.861 829.421 410.639 819.736 410.513 815.4C410.196 804.037 411.272 789.004 412.443 787.706C413.266 786.788 413.013 785.649 411.747 784.541C410.576 783.497 405.259 780.743 404.436 780.743C404.024 780.743 403.993 780.015 404.151 775.742C404.246 773.02 404.562 769.571 404.847 768.083C406.904 757.354 410.164 745.517 412.285 740.927C415.577 733.933 420.672 727.381 425.42 724.09C427.002 723.013 430.484 721.716 434.598 720.735C438.365 719.848 441.435 719.912 444.473 720.924ZM521.477 724.184C522.11 725.609 522.775 728.204 522.522 728.204C522.237 728.204 519.389 726.052 518.945 725.514C518.597 725.102 518.692 724.849 519.578 723.931C520.18 723.33 520.718 722.824 520.781 722.824C520.844 722.824 521.161 723.425 521.477 724.184ZM535.277 733.648C536.29 735.642 537.049 737.731 536.828 737.952C536.764 738.047 535.593 737.288 534.296 736.275L531.89 734.439L533.061 733.236C533.726 732.54 534.296 732.002 534.359 732.002C534.391 732.002 534.802 732.73 535.277 733.648ZM546.291 741.402C547.272 744.282 546.892 744.789 544.993 743.111L543.664 741.908L544.455 740.737C544.898 740.104 545.373 739.661 545.531 739.756C545.658 739.851 546.006 740.579 546.291 741.402ZM556.261 747.764C556.609 748.935 556.925 750.106 556.925 750.359C556.925 750.612 556.134 750.043 555.185 749.093L553.444 747.384L554.299 746.498C554.773 746.023 555.248 745.612 555.343 745.612C555.47 745.612 555.881 746.593 556.261 747.764ZM497.36 748.966C499.639 750.106 502.487 752.986 503.627 755.265C505.431 758.999 504.893 763.684 502.361 766.469C501.19 767.703 500.968 767.83 499.892 767.672C499.259 767.577 498.278 767.197 497.772 766.817C495.651 765.329 492.043 759.664 492.739 758.968C492.992 758.715 492.992 758.113 492.708 756.816C492.075 753.651 492.391 749.758 493.372 748.523C493.91 747.89 495.588 748.08 497.36 748.966ZM566.864 754.442C567.497 755.645 568.003 756.721 568.003 756.816C568.003 757.195 566.579 756.309 565.408 755.17C564.237 754.062 564.237 754.062 564.775 753.144C565.06 752.669 565.376 752.258 565.503 752.258C565.629 752.258 566.231 753.239 566.864 754.442ZM575.441 760.171C575.251 760.455 575.156 760.455 574.934 760.139C574.618 759.601 574.934 759.063 575.346 759.474C575.536 759.664 575.567 759.981 575.441 760.171ZM587.943 766.785C588.322 767.798 588.576 769.033 588.512 769.476L588.417 770.33L586.36 769.064C585.221 768.336 584.113 767.64 583.86 767.482C583.448 767.228 583.48 767.07 583.955 766.311C584.271 765.804 584.904 765.076 585.347 764.696C586.107 764.063 586.233 764.032 586.708 764.475C586.993 764.728 587.563 765.804 587.943 766.785ZM598.672 774.318C598.703 774.888 598.64 775.363 598.545 775.363C598.45 775.363 597.786 775.078 597.121 774.73L595.855 774.097L596.393 773.21C596.678 772.736 597.153 772.103 597.406 771.786C597.881 771.248 597.912 771.248 598.26 772.261C598.482 772.831 598.672 773.78 598.672 774.318ZM536.068 775.964C538.347 776.818 541.354 778.781 542.873 780.332C545.057 782.61 549.709 789.13 550.912 791.662C552.526 795.049 553.666 798.562 556.324 808.405C557.558 812.963 559.173 818.945 559.964 821.73C561.768 828.25 563.983 839.296 564.806 845.942C565.154 848.822 565.946 853.38 566.547 856.07C568.161 863.255 568.541 865.502 569.586 874.395C570.187 879.364 570.725 882.814 571.041 883.416C571.421 884.175 571.611 886.169 571.833 892.309C572.339 905.919 572.719 911.806 573.383 915.73C574.365 921.396 574.618 929.783 574.618 954.66C574.586 967.003 574.681 979.252 574.808 981.847C575.029 986.31 575.029 986.563 574.491 986.341C574.175 986.246 571.484 985.487 568.509 984.696C563.161 983.271 554.932 980.613 550.279 978.809C548.981 978.302 544.266 976.846 539.834 975.549C535.404 974.251 530.181 972.732 528.251 972.162L524.706 971.149L524.516 969.694C524.009 966.212 523.661 958.331 523.376 944.215C523.092 927.884 522.68 919.148 521.952 911.616C521.699 908.989 521.319 903.292 521.161 898.956C520.971 894.588 520.591 889.049 520.338 886.612C520.085 884.175 519.737 876.706 519.578 869.996C519.42 863.286 519.072 853.76 518.787 848.79C518.534 843.821 518.312 839.454 518.312 839.074C518.312 838.441 516.54 836.131 516.034 836.131C515.939 836.131 514.578 835.371 513.059 834.421L510.273 832.712L510.21 817.552C510.147 798.784 510.21 798.34 514.514 789.447C518.376 781.408 522.743 776.629 527.269 775.489C529.612 774.888 533.853 775.109 536.068 775.964ZM609.275 778.749C609.559 779.572 609.781 780.711 609.781 781.313V782.389L608.705 781.566C608.104 781.123 607.407 780.838 607.154 780.933C606.426 781.218 606.205 780.521 606.648 779.224C607.597 776.28 608.388 776.122 609.275 778.749ZM620.732 785.712L621.112 787.358L619.561 786.345C617.852 785.206 617.599 784.319 618.516 782.579L619.054 781.566L619.687 782.832C620.036 783.497 620.51 784.794 620.732 785.712ZM629.562 789.383C629.689 790.301 629.72 791.472 629.657 791.979L629.562 792.928L628.391 791.726C627.727 791.061 627.188 790.428 627.188 790.301C627.188 789.89 628.771 787.706 629.087 787.706C629.246 787.706 629.467 788.466 629.562 789.383ZM574.46 796.695C575.852 798.15 578.163 804.037 578.353 806.538C578.511 808.563 578.099 810.178 577.403 810.178C576.77 810.178 575.188 808.342 573.858 806.063C573.194 804.924 572.402 803.626 572.086 803.151C571.39 802.138 571.01 800.144 571.295 798.72C571.516 797.454 572.592 795.618 573.099 795.618C573.289 795.618 573.922 796.093 574.46 796.695Z" fill="#FFB800"/>
</g>
</g>
</g>
<defs>
<clipPath id="clip0_351_115">
<rect width="633" height="633" fill="white" transform="translate(4 356)"/>
</clipPath>
<clipPath id="clip1_351_115">
<rect width="633" height="633" fill="white" transform="translate(4 356)"/>
</clipPath>
</defs>
</svg>
