<svg width="474" height="531" viewBox="0 0 474 531" fill="none" xmlns="http://www.w3.org/2000/svg">
<mask id="path-1-inside-1_275_284" fill="white">
<path d="M-57 114.253C-57 194.198 -56.9204 228.426 -56.7081 228.32C-56.2571 228.028 -55.2223 225.454 -54.0548 221.739C-52.8077 217.733 -52.3036 216.459 -49.9156 211.338C-48.1909 207.65 -45.856 201.998 -44.264 197.674C-43.4149 195.339 -40.3105 188.201 -38.2674 183.929C-34.2874 175.492 -28.4766 167.558 -19.1369 157.874C-15.7141 154.318 -10.8585 150.046 -7.99288 148.109C-4.94154 146.04 1.00193 143.386 5.56567 142.086C10.7927 140.547 17.1607 140.308 26.4209 141.29C36.0525 142.298 42.1021 143.837 50.5928 147.446C57.3853 150.311 67.7333 156.122 76.8608 162.198C82.3532 165.86 90.6847 173.634 94.2667 178.437C98.459 184.035 104.323 194.198 108.303 202.715C109.789 205.846 112.336 211.046 114.008 214.257C117.032 220.121 119.526 225.587 119.5 226.33C119.42 231.291 118.73 241.48 118.253 245.434C117.298 253.049 117.112 255.914 116.661 267.881C115.918 288.497 115.626 291.23 112.575 306.726C109.921 320.205 109.656 322.858 109.099 340.954C108.887 348.224 108.78 349.232 107.799 355.016C106.525 362.658 105.782 368.416 105.252 375.182C105.039 378.021 104.562 382.319 104.217 384.734C103.606 388.793 102.89 395.267 102.2 402.909C102.041 404.66 101.484 409.198 100.98 412.992C99.4672 424.268 99.255 426.71 99.0958 434.139C99.0162 438.066 98.91 441.25 98.857 441.25C98.8039 441.25 97.5038 440.905 95.9914 440.48C92.0379 439.366 85.4311 438.013 77.02 436.633C68.4497 435.2 65.5311 434.563 58.4997 432.6C50.9908 430.53 44.5697 428.487 37.8568 426.046C27.1638 422.172 17.3465 418.988 7.79447 416.282C2.59393 414.823 -3.77408 412.965 -6.32128 412.196C-12.6097 410.285 -14.5732 409.728 -23.0373 407.579C-27.0438 406.571 -32.5362 405.058 -35.2426 404.236C-46.8643 400.733 -50.1544 399.752 -53.2588 398.903C-55.0896 398.398 -56.6551 398 -56.7877 398C-56.8939 398 -57 416.149 -57 438.331V478.635L-53.6037 476.566C-48.3501 473.355 -44.6885 471.365 -41.2127 469.879C-35.2426 467.332 -23.568 463.724 -18.6062 462.874C-15.3692 462.344 -2.12901 460.964 3.70833 460.566C11.5357 460.062 20.6366 461.017 26.3148 462.981C34.6728 465.846 40.802 469.587 49.2661 476.937C55.4484 482.323 56.6955 483.836 60.0387 490.124C62.2144 494.184 63.4349 496.015 66.5128 499.729C70.0683 504.081 72.8012 508.538 76.8608 516.605C78.1344 519.152 79.2488 522.283 81.0266 528.412L81.6633 530.535L123.533 530.614L165.429 530.667L168.056 527.881C169.489 526.369 171.771 524.22 173.124 523.158C174.477 522.07 176.998 519.895 178.749 518.356C185.223 512.598 189.866 510.077 197.004 508.512C198.622 508.167 199.976 508.087 203.372 508.167C207.378 508.273 207.829 508.326 210.191 509.149C213.481 510.263 216.453 511.855 222.264 515.676C230.728 521.195 235.875 525.44 239.431 529.792L240.147 530.667H342.964C425.058 530.667 445.807 530.588 445.807 530.322C445.807 530.163 445.675 527.563 445.542 524.618C445.25 518.515 444.852 514.747 443.552 504.665C442.782 498.774 442.57 495.962 442.225 487.418C441.774 475.796 441.615 473.939 440.368 465.66C439.864 462.37 439.333 458.311 439.174 456.639C438.749 451.837 438.457 439.392 438.59 431.671L438.696 424.587L439.333 424.295C440.819 423.632 439.625 422.252 436.282 420.819C434.902 420.235 433.628 419.758 433.443 419.758C433.23 419.758 433.151 419.599 433.204 419.413C433.496 418.67 434.398 411.665 434.663 408.083C435.194 401.211 436.202 397.549 438.696 393.277C439.917 391.234 442.915 388.024 444.321 387.254C446.736 385.954 449.495 388.369 452.149 394.047C453.9 397.788 455.571 403.148 456.182 406.889C456.474 408.8 457.084 412.063 457.508 414.159C458.357 418.192 458.623 420.156 459.737 430.504C460.109 434.006 460.772 439.631 461.197 443.001C461.621 446.371 462.152 451.147 462.391 453.614C462.603 456.082 463.027 459.69 463.319 461.654C464.274 468.049 464.407 469.932 464.646 479.591C464.885 490.071 465.601 498.641 467.432 512.89C467.777 515.676 468.042 518.993 468.493 527.563L468.679 530.667H471.173H473.667L473.614 442.099L473.535 353.557L458.941 346.26C450.928 342.254 443.18 338.274 441.748 337.425C437.449 334.878 432.647 331.057 426.703 325.458C423.997 322.911 420.627 320.231 415.771 316.729C413.781 315.296 410.279 312.563 407.971 310.653C392.953 298.288 386.001 293.141 378.147 288.656C373.106 285.791 371.514 284.73 371.673 284.332C371.806 283.96 366.844 281.041 357.849 276.212C347.448 270.614 344.317 268.597 337.312 262.972C329.22 256.445 326.354 254.296 321.366 250.899C318.527 248.963 313.989 245.779 311.283 243.842C308.577 241.905 304.464 238.933 302.129 237.261C297.141 233.653 292.736 230.761 284.352 225.534C275.941 220.307 267.901 214.867 263.284 211.285C261.162 209.64 258.243 207.491 256.784 206.536C254.422 204.944 245.188 199.823 234.894 194.383C232.718 193.242 229.189 191.226 227.066 189.873C224.917 188.546 220.114 185.521 216.347 183.186C212.605 180.825 208.227 178.172 206.609 177.243C201.859 174.536 199.631 173.024 199.471 172.334C199.392 171.989 199.02 171.352 198.649 170.901C197.428 169.469 190.662 165.489 183.127 161.774C177.237 158.882 175.883 158.112 169.86 154.079C163.545 149.86 161.29 148.189 155.134 143.254C143.911 134.206 136.906 129.377 120.694 119.533C115.175 116.163 108.727 112.024 106.366 110.326C104.004 108.601 97.9018 104.409 92.7808 100.986C87.6864 97.5632 81.5837 93.2648 79.2488 91.434C72.8543 86.3926 70.1479 84.5088 52.7951 73.0994C45.8698 68.5622 40.8285 64.6087 33.9298 58.3203C29.711 54.4465 27.3761 52.6953 23.5288 50.4665C9.46607 42.3207 2.0898 37.9958 0.47126 36.8814C-0.590073 36.1915 -3.53528 33.9362 -6.08248 31.9196C-10.4074 28.4968 -12.5566 26.8783 -18.6593 22.5534C-21.8168 20.298 -26.5397 16.5568 -29.6706 13.7974C-34.9773 9.1275 -40.4432 5.12097 -46.7581 1.27362L-48.8543 0H-52.9404H-57V114.253ZM-41.9556 24.4638C-41.7699 24.7822 -41.3453 37.412 -41.5045 37.6243C-41.5311 37.6774 -42.9904 36.8549 -44.7151 35.7935C-46.4397 34.7322 -49.2788 33.1136 -51.03 32.1584C-52.7812 31.2298 -54.3732 30.3011 -54.5589 30.1154C-54.8508 29.85 -54.3732 29.4786 -51.7729 28.0723C-47.2357 25.5782 -46.9704 25.4455 -44.9273 24.7822C-42.7781 24.0658 -42.2475 24.0127 -41.9556 24.4638ZM10.2621 59.9919C11.2438 61.8758 12.3847 65.8027 12.6766 68.4826L12.8623 70.1542L11.8275 69.3317C11.2703 68.8806 9.59874 67.7397 8.1394 66.7845C6.68007 65.8293 4.58393 64.423 3.49606 63.6801C2.4082 62.9106 1.16113 62.1411 0.763126 61.9819L0.020195 61.6635L1.58566 60.4165C2.46126 59.7531 4.10633 58.4795 5.24726 57.5774L7.3434 55.9854L8.35167 57.0998C8.88234 57.7366 9.75793 59.0367 10.2621 59.9919ZM36.3974 76.9467C37.3261 78.2734 38.9446 82.2269 39.6876 85.0659C40.0856 86.4988 40.457 87.905 40.5366 88.1704C40.6693 88.5684 39.9794 88.303 37.5384 87.056C34.3809 85.4374 29.658 82.6779 28.4374 81.7493L27.8006 81.2451L28.4374 80.688C30.1621 79.2021 35.0177 76.1508 35.628 76.1508C35.7341 76.1508 36.079 76.5222 36.3974 76.9467ZM64.5759 98.4388C66.9108 104.037 66.8047 103.613 65.9025 103.003C65.5045 102.737 64.1248 101.941 62.7981 101.225C61.498 100.508 59.0569 99.1021 57.4119 98.0938L54.3871 96.2365L55.5545 95.5201C56.8281 94.7241 58.8977 93.9812 61.0735 93.5301C62.4532 93.2648 62.5328 93.2648 62.692 93.7689C62.7981 94.0873 63.6472 96.1834 64.5759 98.4388ZM86.4659 113.165C87.3945 114.836 88.9335 120.196 88.4824 120.196C87.9518 120.196 80.4428 115.234 80.4428 114.863C80.4428 114.385 84.6351 111.944 85.3515 112.024C85.6434 112.077 86.121 112.581 86.4659 113.165ZM107.958 125.689C108.038 125.954 108.568 127.201 109.125 128.475C110.187 130.863 110.824 132.959 110.638 133.463C110.532 133.808 102.492 128.581 102.465 128.13C102.465 127.838 104.933 126.219 106.154 125.742C107.693 125.131 107.746 125.131 107.958 125.689ZM131.493 142.776C132.342 143.784 133.377 145.244 133.775 146.013C134.757 147.817 136.004 150.948 135.818 151.134C135.5 151.452 126.558 146.703 124.541 145.137L123.958 144.66L125.603 143.333C127.301 142.007 129.158 140.866 129.662 140.919C129.795 140.919 130.617 141.768 131.493 142.776ZM150.491 163.18C151.181 163.87 151.154 164.082 150.385 164.454C149.828 164.693 149.721 164.666 149.589 164.162C149.191 162.65 149.562 162.252 150.491 163.18ZM168.693 168.805C168.932 169.283 169.489 170.212 169.94 170.848C170.683 171.963 172.514 175.916 172.514 176.473C172.514 177.137 166.915 173.687 165.297 172.016L164.288 170.981L166.092 169.469C167.074 168.646 167.95 167.956 168.056 167.956C168.162 167.956 168.454 168.354 168.693 168.805ZM187.691 182.417C189.23 184.619 190.954 188.122 190.503 188.122C190.344 188.122 189.017 187.538 187.531 186.795C184.825 185.468 182.331 183.823 182.331 183.346C182.331 182.974 185.462 180.427 185.913 180.427C186.125 180.427 186.921 181.329 187.691 182.417ZM205.68 192.287C205.866 192.712 206.397 194.251 206.874 195.737L207.723 198.443L206.105 197.62C204.407 196.771 200.904 194.596 200.904 194.383C200.904 194.224 204.884 191.571 205.123 191.571C205.229 191.571 205.495 191.889 205.68 192.287ZM140.408 196.135C144.362 197.355 148.156 199.929 151.101 203.378C154.046 206.828 155.373 210.091 155.691 214.788C155.904 217.627 155.4 220.413 154.232 223.013C152.242 227.417 147.068 228.824 141.125 226.595C137.33 225.162 132.554 221.049 130.777 217.627C129.689 215.557 128.654 211.869 128.362 209.056C128.176 207.358 128.176 207.305 128.866 207.013C129.556 206.695 129.583 206.668 129.476 204.201C129.397 202.37 129.45 201.574 129.715 201.229C129.954 200.884 130.034 200.38 129.901 199.717C129.609 197.859 131.254 196.082 133.854 195.551C135.42 195.232 138.365 195.498 140.408 196.135ZM222.582 203.697C223.484 204.838 224.201 206.138 224.731 207.57C225.448 209.481 225.501 210.277 224.864 210.038C223.909 209.667 220.512 207.65 219.663 206.934L218.814 206.217L220.274 204.731C221.07 203.909 221.813 203.246 221.972 203.246C222.104 203.246 222.37 203.458 222.582 203.697ZM240.306 218.37C240.704 219.564 240.943 220.598 240.864 220.678C240.757 220.784 239.351 219.962 237.706 218.847C236.088 217.733 234.336 216.618 233.832 216.38L232.957 215.928L233.54 215.53C233.859 215.318 234.787 214.788 235.61 214.363L237.122 213.594L238.369 214.92C239.325 215.928 239.749 216.725 240.306 218.37ZM254.13 226.701C254.847 228.744 255.298 230.575 255.138 230.575C254.873 230.575 253.467 229.593 251.371 227.948L249.195 226.223L250.177 225.215C250.707 224.685 251.503 224.048 251.954 223.835C252.75 223.464 252.777 223.464 253.148 224.127C253.334 224.499 253.785 225.666 254.13 226.701ZM267.928 238.217C267.689 238.455 266.946 238.004 267.105 237.739C267.238 237.527 267.397 237.553 267.662 237.765C267.874 237.925 267.981 238.137 267.928 238.217ZM195.385 238.163C199.153 238.641 203.239 239.543 205.68 240.472C209.952 242.064 214.914 245.115 218.735 248.458C222.317 251.589 231.046 261.831 235.345 267.987C240.678 275.576 241.925 277.857 244.764 284.968C250.548 299.588 252.114 303.834 252.644 306.487C253.255 309.432 253.653 317.047 253.706 326.36C253.706 330.473 254.289 338.406 255.032 344.536C255.59 349.259 255.881 356.184 255.749 361.252C255.59 366.611 255.324 369.106 253.414 382.478C251.981 392.667 251.663 395.665 251.291 402.166C250.946 408.163 251.185 416.468 251.981 425.728C253.016 438.066 253.122 450.669 252.246 459.69C252.008 462.158 251.742 467.332 251.636 471.126L251.45 478.052L244.552 476.247C238.237 474.576 231.55 472.984 218.814 470.118C216.188 469.534 210.164 468.128 205.415 466.961C192.493 463.856 183.658 462.185 175.034 461.282C165.084 460.221 154.895 458.496 151.234 457.276C149.403 456.666 149.191 456.533 149.43 456.108C149.589 455.79 149.695 450.085 149.695 440.799C149.695 426.524 150.305 407.499 150.995 399.062C151.154 397.39 151.34 394.578 151.42 392.826C151.738 386.379 152.375 375.978 152.746 371.281C152.958 368.628 153.277 363.56 153.41 360.005C153.569 356.449 153.887 352.071 154.099 350.24C154.312 348.41 154.789 344.058 155.134 340.556C155.506 337.053 155.904 333.339 156.036 332.33C156.169 331.296 156.673 327.554 157.124 323.972C157.575 320.39 158.371 315.349 158.875 312.749C159.38 310.148 159.778 307.548 159.778 306.964C159.778 306.248 159.884 305.93 160.149 305.93C160.812 305.93 161.396 305.134 161.21 304.497C160.998 303.754 159.592 302.295 158.584 301.764C156.434 300.623 153.675 299.296 153.489 299.296C153.356 299.296 153.038 298.686 152.746 297.97C152.401 297.068 152.083 296.643 151.764 296.643C151.393 296.643 151.313 296.484 151.42 296.033C151.473 295.714 151.791 294.096 152.083 292.451C152.401 290.806 152.932 288.418 153.303 287.144C154.816 282.05 156.089 277.141 156.753 274.169C159.857 259.788 163.041 252.412 168.587 246.734C173.124 242.09 177.741 239.464 183.764 238.137C185.993 237.659 191.458 237.659 195.385 238.163ZM282.335 243.364C282.494 244.001 282.76 245.274 282.919 246.23C283.052 247.185 283.264 248.22 283.343 248.565C283.476 249.122 283.37 249.095 282.07 248.113C281.274 247.503 279.947 246.654 279.098 246.203C277.586 245.407 277.559 245.381 278.01 244.85C278.514 244.319 281.566 242.25 281.858 242.25C281.964 242.25 282.149 242.754 282.335 243.364ZM294.514 254.853C294.806 256.153 295.018 257.267 294.992 257.321C294.885 257.4 290.587 254.243 290.587 254.083C290.587 253.818 293.638 252.093 293.798 252.279C293.904 252.385 294.222 253.526 294.514 254.853ZM307.966 263.131C308.311 264.538 308.55 265.758 308.497 265.811C308.364 265.97 304.862 263.609 304.305 262.999C303.854 262.521 303.907 262.441 305.34 261.088C307.117 259.417 307.011 259.364 307.966 263.131ZM320.013 271.834C320.331 273.002 320.676 274.169 320.755 274.435C320.835 274.779 320.437 274.567 319.455 273.771C318.686 273.134 317.731 272.418 317.386 272.153L316.749 271.702L317.916 270.508C318.553 269.844 319.163 269.393 319.243 269.526C319.349 269.632 319.694 270.667 320.013 271.834ZM267.025 275.071C269.148 276.053 270.607 277.353 271.987 279.423C273.446 281.599 274.083 283.456 274.667 287.33C275.357 291.734 275.357 293.565 274.694 294.228C273.579 295.343 270.501 295.29 268.06 294.069C265.088 292.636 262.807 289.665 261.427 285.419C261.082 284.438 260.604 283.482 260.312 283.27C259.516 282.713 259.118 280.405 259.516 278.547C259.888 276.77 260.657 275.522 261.931 274.673C263.152 273.851 264.69 273.983 267.025 275.071ZM331.82 279.662C332.351 280.882 332.775 281.944 332.775 281.97C332.775 282.129 330.201 280.431 329.379 279.741L328.503 278.998L329.618 278.149C330.228 277.672 330.785 277.3 330.812 277.353C330.865 277.38 331.316 278.415 331.82 279.662ZM343.839 287.967C344.052 288.656 344.184 289.32 344.078 289.399C343.866 289.612 340.549 287.356 339.674 286.401L339.01 285.711L339.674 285.26C340.045 285.021 340.682 284.517 341.133 284.119L341.929 283.429L342.672 285.048C343.097 285.95 343.601 287.277 343.839 287.967ZM353.418 296.51C353.392 297.598 353.153 297.678 352.675 296.776C352.41 296.245 352.383 296.059 352.675 295.714C353.153 295.131 353.471 295.476 353.418 296.51ZM365.411 299.827C366.048 301.446 366.526 303.887 366.313 304.47C366.207 304.736 365.65 304.47 364.217 303.382C363.156 302.586 362.201 301.737 362.121 301.499C362.015 301.26 362.201 300.782 362.546 300.384C363.235 299.562 364.695 298.208 364.774 298.315C364.801 298.341 365.093 299.031 365.411 299.827ZM312.265 305.93C314.228 306.62 319.376 309.512 323.197 312.112C326.593 314.42 331.608 319.196 333.969 322.38C337.471 327.103 340.284 332.436 341.956 337.504C342.486 339.176 343.627 342.333 344.476 344.536C345.299 346.711 346.281 349.524 346.652 350.771C347.023 352.018 348.244 355.998 349.332 359.66C352.065 368.814 352.595 370.751 353.073 373.245C353.577 375.925 353.975 381.258 353.843 383.938C353.789 385.026 353.604 390.889 353.445 396.939C352.993 412.435 353.206 418.113 354.692 434.218C355.275 440.613 355.461 450.165 355.09 457.435C354.904 460.858 354.665 470.888 354.532 479.723C354.4 488.559 354.161 497.872 354.002 500.419C353.71 505.248 353.259 509.998 353.1 510.183C353.047 510.237 351.163 509.785 348.907 509.202C346.679 508.618 341.027 507.344 336.357 506.389C327.919 504.638 326.195 504.187 314.732 500.87C311.442 499.915 305.897 498.403 302.394 497.527C298.892 496.651 293.93 495.219 291.357 494.317L286.713 492.671L286.819 478.025C286.899 469.428 286.819 460.513 286.634 456.374C286.474 452.5 286.156 444.991 285.944 439.658C285.572 430.265 285.28 425.197 284.723 418.033C284.59 416.123 284.352 409.436 284.219 403.174C284.086 396.886 283.901 388.767 283.794 385.132C283.529 375.606 284.431 363.003 285.413 361.915C286.103 361.146 285.891 360.19 284.829 359.262C283.848 358.386 279.39 356.078 278.7 356.078C278.355 356.078 278.329 355.467 278.461 351.885C278.541 349.604 278.806 346.711 279.045 345.464C280.77 336.47 283.503 326.546 285.28 322.699C288.04 316.835 292.312 311.342 296.292 308.583C297.618 307.681 300.537 306.593 303.986 305.77C307.144 305.028 309.718 305.081 312.265 305.93ZM376.82 308.663C377.351 309.857 377.908 312.032 377.696 312.032C377.457 312.032 375.069 310.228 374.698 309.777C374.406 309.432 374.486 309.22 375.228 308.45C375.733 307.946 376.184 307.522 376.237 307.522C376.29 307.522 376.555 308.026 376.82 308.663ZM388.389 316.596C389.238 318.268 389.875 320.019 389.689 320.205C389.636 320.284 388.654 319.647 387.566 318.798L385.55 317.259L386.532 316.251C387.089 315.667 387.566 315.216 387.62 315.216C387.646 315.216 387.991 315.827 388.389 316.596ZM397.623 323.097C398.445 325.511 398.127 325.936 396.535 324.53L395.42 323.521L396.084 322.54C396.455 322.009 396.853 321.637 396.986 321.717C397.092 321.797 397.384 322.407 397.623 323.097ZM405.981 328.43C406.272 329.412 406.538 330.393 406.538 330.606C406.538 330.818 405.874 330.34 405.078 329.544L403.619 328.112L404.336 327.369C404.734 326.971 405.132 326.626 405.211 326.626C405.317 326.626 405.662 327.448 405.981 328.43ZM356.602 329.438C358.512 330.393 360.9 332.808 361.856 334.718C363.368 337.849 362.917 341.776 360.794 344.111C359.813 345.146 359.627 345.252 358.725 345.119C358.194 345.04 357.372 344.721 356.947 344.403C355.169 343.156 352.144 338.406 352.728 337.823C352.94 337.611 352.94 337.106 352.702 336.018C352.171 333.365 352.436 330.102 353.259 329.067C353.71 328.536 355.116 328.695 356.602 329.438ZM414.869 334.028C415.4 335.037 415.824 335.939 415.824 336.018C415.824 336.337 414.63 335.594 413.649 334.639C412.667 333.71 412.667 333.71 413.118 332.941C413.357 332.543 413.622 332.198 413.728 332.198C413.835 332.198 414.339 333.02 414.869 334.028ZM422.06 338.831C421.901 339.07 421.821 339.07 421.635 338.805C421.37 338.353 421.635 337.902 421.98 338.247C422.139 338.406 422.166 338.672 422.06 338.831ZM432.541 344.377C432.859 345.226 433.071 346.26 433.018 346.632L432.939 347.348L431.214 346.287C430.259 345.677 429.33 345.093 429.118 344.96C428.773 344.748 428.799 344.615 429.197 343.979C429.463 343.554 429.993 342.944 430.365 342.625C431.002 342.095 431.108 342.068 431.506 342.44C431.745 342.652 432.222 343.554 432.541 344.377ZM441.535 350.691C441.562 351.169 441.509 351.567 441.429 351.567C441.35 351.567 440.792 351.328 440.235 351.036L439.174 350.506L439.625 349.763C439.864 349.365 440.262 348.834 440.474 348.569C440.872 348.118 440.899 348.118 441.19 348.967C441.376 349.444 441.535 350.24 441.535 350.691ZM389.052 352.071C390.963 352.788 393.483 354.433 394.757 355.733C396.588 357.643 400.488 363.109 401.496 365.232C402.85 368.071 403.805 371.016 406.034 379.268C407.068 383.089 408.422 388.103 409.085 390.438C410.597 395.904 412.455 405.164 413.145 410.736C413.436 413.151 414.1 416.972 414.604 419.227C415.957 425.25 416.276 427.134 417.151 434.59C417.655 438.756 418.106 441.648 418.372 442.152C418.69 442.789 418.849 444.46 419.035 449.608C419.46 461.017 419.778 465.952 420.335 469.243C421.158 473.992 421.37 481.023 421.37 501.879C421.343 512.227 421.423 522.495 421.529 524.671C421.715 528.412 421.715 528.624 421.264 528.438C420.999 528.359 418.743 527.722 416.249 527.059C411.765 525.865 404.866 523.636 400.966 522.123C399.878 521.699 395.924 520.478 392.21 519.391C388.495 518.303 384.117 517.029 382.499 516.551L379.527 515.702L379.368 514.482C378.943 511.563 378.651 504.956 378.412 493.123C378.174 479.431 377.829 472.108 377.218 465.793C377.006 463.591 376.688 458.815 376.555 455.18C376.396 451.518 376.078 446.875 375.865 444.832C375.653 442.789 375.361 436.527 375.228 430.902C375.096 425.277 374.804 417.29 374.565 413.124C374.353 408.959 374.167 405.297 374.167 404.979C374.167 404.448 372.681 402.511 372.257 402.511C372.177 402.511 371.036 401.874 369.763 401.078L367.428 399.645L367.375 386.936C367.322 371.202 367.375 370.83 370.983 363.374C374.22 356.635 377.882 352.628 381.676 351.673C383.64 351.169 387.195 351.355 389.052 352.071ZM450.424 354.406C450.663 355.096 450.849 356.051 450.849 356.555V357.457L449.946 356.768C449.442 356.396 448.859 356.157 448.646 356.237C448.036 356.476 447.85 355.892 448.222 354.804C449.018 352.337 449.681 352.204 450.424 354.406ZM460.029 360.243L460.347 361.623L459.047 360.774C457.615 359.819 457.402 359.076 458.172 357.617L458.623 356.768L459.154 357.829C459.445 358.386 459.843 359.474 460.029 360.243ZM467.432 363.321C467.538 364.091 467.565 365.073 467.511 365.497L467.432 366.293L466.45 365.285C465.893 364.728 465.442 364.197 465.442 364.091C465.442 363.746 466.769 361.915 467.034 361.915C467.167 361.915 467.352 362.552 467.432 363.321ZM421.237 369.451C422.405 370.671 424.342 375.606 424.501 377.702C424.634 379.401 424.289 380.754 423.705 380.754C423.174 380.754 421.848 379.215 420.733 377.304C420.176 376.349 419.513 375.261 419.247 374.863C418.664 374.014 418.345 372.343 418.584 371.149C418.77 370.087 419.672 368.548 420.096 368.548C420.256 368.548 420.786 368.946 421.237 369.451Z"/>
</mask>
<path d="M-57 114.253C-57 194.198 -56.9204 228.426 -56.7081 228.32C-56.2571 228.028 -55.2223 225.454 -54.0548 221.739C-52.8077 217.733 -52.3036 216.459 -49.9156 211.338C-48.1909 207.65 -45.856 201.998 -44.264 197.674C-43.4149 195.339 -40.3105 188.201 -38.2674 183.929C-34.2874 175.492 -28.4766 167.558 -19.1369 157.874C-15.7141 154.318 -10.8585 150.046 -7.99288 148.109C-4.94154 146.04 1.00193 143.386 5.56567 142.086C10.7927 140.547 17.1607 140.308 26.4209 141.29C36.0525 142.298 42.1021 143.837 50.5928 147.446C57.3853 150.311 67.7333 156.122 76.8608 162.198C82.3532 165.86 90.6847 173.634 94.2667 178.437C98.459 184.035 104.323 194.198 108.303 202.715C109.789 205.846 112.336 211.046 114.008 214.257C117.032 220.121 119.526 225.587 119.5 226.33C119.42 231.291 118.73 241.48 118.253 245.434C117.298 253.049 117.112 255.914 116.661 267.881C115.918 288.497 115.626 291.23 112.575 306.726C109.921 320.205 109.656 322.858 109.099 340.954C108.887 348.224 108.78 349.232 107.799 355.016C106.525 362.658 105.782 368.416 105.252 375.182C105.039 378.021 104.562 382.319 104.217 384.734C103.606 388.793 102.89 395.267 102.2 402.909C102.041 404.66 101.484 409.198 100.98 412.992C99.4672 424.268 99.255 426.71 99.0958 434.139C99.0162 438.066 98.91 441.25 98.857 441.25C98.8039 441.25 97.5038 440.905 95.9914 440.48C92.0379 439.366 85.4311 438.013 77.02 436.633C68.4497 435.2 65.5311 434.563 58.4997 432.6C50.9908 430.53 44.5697 428.487 37.8568 426.046C27.1638 422.172 17.3465 418.988 7.79447 416.282C2.59393 414.823 -3.77408 412.965 -6.32128 412.196C-12.6097 410.285 -14.5732 409.728 -23.0373 407.579C-27.0438 406.571 -32.5362 405.058 -35.2426 404.236C-46.8643 400.733 -50.1544 399.752 -53.2588 398.903C-55.0896 398.398 -56.6551 398 -56.7877 398C-56.8939 398 -57 416.149 -57 438.331V478.635L-53.6037 476.566C-48.3501 473.355 -44.6885 471.365 -41.2127 469.879C-35.2426 467.332 -23.568 463.724 -18.6062 462.874C-15.3692 462.344 -2.12901 460.964 3.70833 460.566C11.5357 460.062 20.6366 461.017 26.3148 462.981C34.6728 465.846 40.802 469.587 49.2661 476.937C55.4484 482.323 56.6955 483.836 60.0387 490.124C62.2144 494.184 63.4349 496.015 66.5128 499.729C70.0683 504.081 72.8012 508.538 76.8608 516.605C78.1344 519.152 79.2488 522.283 81.0266 528.412L81.6633 530.535L123.533 530.614L165.429 530.667L168.056 527.881C169.489 526.369 171.771 524.22 173.124 523.158C174.477 522.07 176.998 519.895 178.749 518.356C185.223 512.598 189.866 510.077 197.004 508.512C198.622 508.167 199.976 508.087 203.372 508.167C207.378 508.273 207.829 508.326 210.191 509.149C213.481 510.263 216.453 511.855 222.264 515.676C230.728 521.195 235.875 525.44 239.431 529.792L240.147 530.667H342.964C425.058 530.667 445.807 530.588 445.807 530.322C445.807 530.163 445.675 527.563 445.542 524.618C445.25 518.515 444.852 514.747 443.552 504.665C442.782 498.774 442.57 495.962 442.225 487.418C441.774 475.796 441.615 473.939 440.368 465.66C439.864 462.37 439.333 458.311 439.174 456.639C438.749 451.837 438.457 439.392 438.59 431.671L438.696 424.587L439.333 424.295C440.819 423.632 439.625 422.252 436.282 420.819C434.902 420.235 433.628 419.758 433.443 419.758C433.23 419.758 433.151 419.599 433.204 419.413C433.496 418.67 434.398 411.665 434.663 408.083C435.194 401.211 436.202 397.549 438.696 393.277C439.917 391.234 442.915 388.024 444.321 387.254C446.736 385.954 449.495 388.369 452.149 394.047C453.9 397.788 455.571 403.148 456.182 406.889C456.474 408.8 457.084 412.063 457.508 414.159C458.357 418.192 458.623 420.156 459.737 430.504C460.109 434.006 460.772 439.631 461.197 443.001C461.621 446.371 462.152 451.147 462.391 453.614C462.603 456.082 463.027 459.69 463.319 461.654C464.274 468.049 464.407 469.932 464.646 479.591C464.885 490.071 465.601 498.641 467.432 512.89C467.777 515.676 468.042 518.993 468.493 527.563L468.679 530.667H471.173H473.667L473.614 442.099L473.535 353.557L458.941 346.26C450.928 342.254 443.18 338.274 441.748 337.425C437.449 334.878 432.647 331.057 426.703 325.458C423.997 322.911 420.627 320.231 415.771 316.729C413.781 315.296 410.279 312.563 407.971 310.653C392.953 298.288 386.001 293.141 378.147 288.656C373.106 285.791 371.514 284.73 371.673 284.332C371.806 283.96 366.844 281.041 357.849 276.212C347.448 270.614 344.317 268.597 337.312 262.972C329.22 256.445 326.354 254.296 321.366 250.899C318.527 248.963 313.989 245.779 311.283 243.842C308.577 241.905 304.464 238.933 302.129 237.261C297.141 233.653 292.736 230.761 284.352 225.534C275.941 220.307 267.901 214.867 263.284 211.285C261.162 209.64 258.243 207.491 256.784 206.536C254.422 204.944 245.188 199.823 234.894 194.383C232.718 193.242 229.189 191.226 227.066 189.873C224.917 188.546 220.114 185.521 216.347 183.186C212.605 180.825 208.227 178.172 206.609 177.243C201.859 174.536 199.631 173.024 199.471 172.334C199.392 171.989 199.02 171.352 198.649 170.901C197.428 169.469 190.662 165.489 183.127 161.774C177.237 158.882 175.883 158.112 169.86 154.079C163.545 149.86 161.29 148.189 155.134 143.254C143.911 134.206 136.906 129.377 120.694 119.533C115.175 116.163 108.727 112.024 106.366 110.326C104.004 108.601 97.9018 104.409 92.7808 100.986C87.6864 97.5632 81.5837 93.2648 79.2488 91.434C72.8543 86.3926 70.1479 84.5088 52.7951 73.0994C45.8698 68.5622 40.8285 64.6087 33.9298 58.3203C29.711 54.4465 27.3761 52.6953 23.5288 50.4665C9.46607 42.3207 2.0898 37.9958 0.47126 36.8814C-0.590073 36.1915 -3.53528 33.9362 -6.08248 31.9196C-10.4074 28.4968 -12.5566 26.8783 -18.6593 22.5534C-21.8168 20.298 -26.5397 16.5568 -29.6706 13.7974C-34.9773 9.1275 -40.4432 5.12097 -46.7581 1.27362L-48.8543 0H-52.9404H-57V114.253ZM-41.9556 24.4638C-41.7699 24.7822 -41.3453 37.412 -41.5045 37.6243C-41.5311 37.6774 -42.9904 36.8549 -44.7151 35.7935C-46.4397 34.7322 -49.2788 33.1136 -51.03 32.1584C-52.7812 31.2298 -54.3732 30.3011 -54.5589 30.1154C-54.8508 29.85 -54.3732 29.4786 -51.7729 28.0723C-47.2357 25.5782 -46.9704 25.4455 -44.9273 24.7822C-42.7781 24.0658 -42.2475 24.0127 -41.9556 24.4638ZM10.2621 59.9919C11.2438 61.8758 12.3847 65.8027 12.6766 68.4826L12.8623 70.1542L11.8275 69.3317C11.2703 68.8806 9.59874 67.7397 8.1394 66.7845C6.68007 65.8293 4.58393 64.423 3.49606 63.6801C2.4082 62.9106 1.16113 62.1411 0.763126 61.9819L0.020195 61.6635L1.58566 60.4165C2.46126 59.7531 4.10633 58.4795 5.24726 57.5774L7.3434 55.9854L8.35167 57.0998C8.88234 57.7366 9.75793 59.0367 10.2621 59.9919ZM36.3974 76.9467C37.3261 78.2734 38.9446 82.2269 39.6876 85.0659C40.0856 86.4988 40.457 87.905 40.5366 88.1704C40.6693 88.5684 39.9794 88.303 37.5384 87.056C34.3809 85.4374 29.658 82.6779 28.4374 81.7493L27.8006 81.2451L28.4374 80.688C30.1621 79.2021 35.0177 76.1508 35.628 76.1508C35.7341 76.1508 36.079 76.5222 36.3974 76.9467ZM64.5759 98.4388C66.9108 104.037 66.8047 103.613 65.9025 103.003C65.5045 102.737 64.1248 101.941 62.7981 101.225C61.498 100.508 59.0569 99.1021 57.4119 98.0938L54.3871 96.2365L55.5545 95.5201C56.8281 94.7241 58.8977 93.9812 61.0735 93.5301C62.4532 93.2648 62.5328 93.2648 62.692 93.7689C62.7981 94.0873 63.6472 96.1834 64.5759 98.4388ZM86.4659 113.165C87.3945 114.836 88.9335 120.196 88.4824 120.196C87.9518 120.196 80.4428 115.234 80.4428 114.863C80.4428 114.385 84.6351 111.944 85.3515 112.024C85.6434 112.077 86.121 112.581 86.4659 113.165ZM107.958 125.689C108.038 125.954 108.568 127.201 109.125 128.475C110.187 130.863 110.824 132.959 110.638 133.463C110.532 133.808 102.492 128.581 102.465 128.13C102.465 127.838 104.933 126.219 106.154 125.742C107.693 125.131 107.746 125.131 107.958 125.689ZM131.493 142.776C132.342 143.784 133.377 145.244 133.775 146.013C134.757 147.817 136.004 150.948 135.818 151.134C135.5 151.452 126.558 146.703 124.541 145.137L123.958 144.66L125.603 143.333C127.301 142.007 129.158 140.866 129.662 140.919C129.795 140.919 130.617 141.768 131.493 142.776ZM150.491 163.18C151.181 163.87 151.154 164.082 150.385 164.454C149.828 164.693 149.721 164.666 149.589 164.162C149.191 162.65 149.562 162.252 150.491 163.18ZM168.693 168.805C168.932 169.283 169.489 170.212 169.94 170.848C170.683 171.963 172.514 175.916 172.514 176.473C172.514 177.137 166.915 173.687 165.297 172.016L164.288 170.981L166.092 169.469C167.074 168.646 167.95 167.956 168.056 167.956C168.162 167.956 168.454 168.354 168.693 168.805ZM187.691 182.417C189.23 184.619 190.954 188.122 190.503 188.122C190.344 188.122 189.017 187.538 187.531 186.795C184.825 185.468 182.331 183.823 182.331 183.346C182.331 182.974 185.462 180.427 185.913 180.427C186.125 180.427 186.921 181.329 187.691 182.417ZM205.68 192.287C205.866 192.712 206.397 194.251 206.874 195.737L207.723 198.443L206.105 197.62C204.407 196.771 200.904 194.596 200.904 194.383C200.904 194.224 204.884 191.571 205.123 191.571C205.229 191.571 205.495 191.889 205.68 192.287ZM140.408 196.135C144.362 197.355 148.156 199.929 151.101 203.378C154.046 206.828 155.373 210.091 155.691 214.788C155.904 217.627 155.4 220.413 154.232 223.013C152.242 227.417 147.068 228.824 141.125 226.595C137.33 225.162 132.554 221.049 130.777 217.627C129.689 215.557 128.654 211.869 128.362 209.056C128.176 207.358 128.176 207.305 128.866 207.013C129.556 206.695 129.583 206.668 129.476 204.201C129.397 202.37 129.45 201.574 129.715 201.229C129.954 200.884 130.034 200.38 129.901 199.717C129.609 197.859 131.254 196.082 133.854 195.551C135.42 195.232 138.365 195.498 140.408 196.135ZM222.582 203.697C223.484 204.838 224.201 206.138 224.731 207.57C225.448 209.481 225.501 210.277 224.864 210.038C223.909 209.667 220.512 207.65 219.663 206.934L218.814 206.217L220.274 204.731C221.07 203.909 221.813 203.246 221.972 203.246C222.104 203.246 222.37 203.458 222.582 203.697ZM240.306 218.37C240.704 219.564 240.943 220.598 240.864 220.678C240.757 220.784 239.351 219.962 237.706 218.847C236.088 217.733 234.336 216.618 233.832 216.38L232.957 215.928L233.54 215.53C233.859 215.318 234.787 214.788 235.61 214.363L237.122 213.594L238.369 214.92C239.325 215.928 239.749 216.725 240.306 218.37ZM254.13 226.701C254.847 228.744 255.298 230.575 255.138 230.575C254.873 230.575 253.467 229.593 251.371 227.948L249.195 226.223L250.177 225.215C250.707 224.685 251.503 224.048 251.954 223.835C252.75 223.464 252.777 223.464 253.148 224.127C253.334 224.499 253.785 225.666 254.13 226.701ZM267.928 238.217C267.689 238.455 266.946 238.004 267.105 237.739C267.238 237.527 267.397 237.553 267.662 237.765C267.874 237.925 267.981 238.137 267.928 238.217ZM195.385 238.163C199.153 238.641 203.239 239.543 205.68 240.472C209.952 242.064 214.914 245.115 218.735 248.458C222.317 251.589 231.046 261.831 235.345 267.987C240.678 275.576 241.925 277.857 244.764 284.968C250.548 299.588 252.114 303.834 252.644 306.487C253.255 309.432 253.653 317.047 253.706 326.36C253.706 330.473 254.289 338.406 255.032 344.536C255.59 349.259 255.881 356.184 255.749 361.252C255.59 366.611 255.324 369.106 253.414 382.478C251.981 392.667 251.663 395.665 251.291 402.166C250.946 408.163 251.185 416.468 251.981 425.728C253.016 438.066 253.122 450.669 252.246 459.69C252.008 462.158 251.742 467.332 251.636 471.126L251.45 478.052L244.552 476.247C238.237 474.576 231.55 472.984 218.814 470.118C216.188 469.534 210.164 468.128 205.415 466.961C192.493 463.856 183.658 462.185 175.034 461.282C165.084 460.221 154.895 458.496 151.234 457.276C149.403 456.666 149.191 456.533 149.43 456.108C149.589 455.79 149.695 450.085 149.695 440.799C149.695 426.524 150.305 407.499 150.995 399.062C151.154 397.39 151.34 394.578 151.42 392.826C151.738 386.379 152.375 375.978 152.746 371.281C152.958 368.628 153.277 363.56 153.41 360.005C153.569 356.449 153.887 352.071 154.099 350.24C154.312 348.41 154.789 344.058 155.134 340.556C155.506 337.053 155.904 333.339 156.036 332.33C156.169 331.296 156.673 327.554 157.124 323.972C157.575 320.39 158.371 315.349 158.875 312.749C159.38 310.148 159.778 307.548 159.778 306.964C159.778 306.248 159.884 305.93 160.149 305.93C160.812 305.93 161.396 305.134 161.21 304.497C160.998 303.754 159.592 302.295 158.584 301.764C156.434 300.623 153.675 299.296 153.489 299.296C153.356 299.296 153.038 298.686 152.746 297.97C152.401 297.068 152.083 296.643 151.764 296.643C151.393 296.643 151.313 296.484 151.42 296.033C151.473 295.714 151.791 294.096 152.083 292.451C152.401 290.806 152.932 288.418 153.303 287.144C154.816 282.05 156.089 277.141 156.753 274.169C159.857 259.788 163.041 252.412 168.587 246.734C173.124 242.09 177.741 239.464 183.764 238.137C185.993 237.659 191.458 237.659 195.385 238.163ZM282.335 243.364C282.494 244.001 282.76 245.274 282.919 246.23C283.052 247.185 283.264 248.22 283.343 248.565C283.476 249.122 283.37 249.095 282.07 248.113C281.274 247.503 279.947 246.654 279.098 246.203C277.586 245.407 277.559 245.381 278.01 244.85C278.514 244.319 281.566 242.25 281.858 242.25C281.964 242.25 282.149 242.754 282.335 243.364ZM294.514 254.853C294.806 256.153 295.018 257.267 294.992 257.321C294.885 257.4 290.587 254.243 290.587 254.083C290.587 253.818 293.638 252.093 293.798 252.279C293.904 252.385 294.222 253.526 294.514 254.853ZM307.966 263.131C308.311 264.538 308.55 265.758 308.497 265.811C308.364 265.97 304.862 263.609 304.305 262.999C303.854 262.521 303.907 262.441 305.34 261.088C307.117 259.417 307.011 259.364 307.966 263.131ZM320.013 271.834C320.331 273.002 320.676 274.169 320.755 274.435C320.835 274.779 320.437 274.567 319.455 273.771C318.686 273.134 317.731 272.418 317.386 272.153L316.749 271.702L317.916 270.508C318.553 269.844 319.163 269.393 319.243 269.526C319.349 269.632 319.694 270.667 320.013 271.834ZM267.025 275.071C269.148 276.053 270.607 277.353 271.987 279.423C273.446 281.599 274.083 283.456 274.667 287.33C275.357 291.734 275.357 293.565 274.694 294.228C273.579 295.343 270.501 295.29 268.06 294.069C265.088 292.636 262.807 289.665 261.427 285.419C261.082 284.438 260.604 283.482 260.312 283.27C259.516 282.713 259.118 280.405 259.516 278.547C259.888 276.77 260.657 275.522 261.931 274.673C263.152 273.851 264.69 273.983 267.025 275.071ZM331.82 279.662C332.351 280.882 332.775 281.944 332.775 281.97C332.775 282.129 330.201 280.431 329.379 279.741L328.503 278.998L329.618 278.149C330.228 277.672 330.785 277.3 330.812 277.353C330.865 277.38 331.316 278.415 331.82 279.662ZM343.839 287.967C344.052 288.656 344.184 289.32 344.078 289.399C343.866 289.612 340.549 287.356 339.674 286.401L339.01 285.711L339.674 285.26C340.045 285.021 340.682 284.517 341.133 284.119L341.929 283.429L342.672 285.048C343.097 285.95 343.601 287.277 343.839 287.967ZM353.418 296.51C353.392 297.598 353.153 297.678 352.675 296.776C352.41 296.245 352.383 296.059 352.675 295.714C353.153 295.131 353.471 295.476 353.418 296.51ZM365.411 299.827C366.048 301.446 366.526 303.887 366.313 304.47C366.207 304.736 365.65 304.47 364.217 303.382C363.156 302.586 362.201 301.737 362.121 301.499C362.015 301.26 362.201 300.782 362.546 300.384C363.235 299.562 364.695 298.208 364.774 298.315C364.801 298.341 365.093 299.031 365.411 299.827ZM312.265 305.93C314.228 306.62 319.376 309.512 323.197 312.112C326.593 314.42 331.608 319.196 333.969 322.38C337.471 327.103 340.284 332.436 341.956 337.504C342.486 339.176 343.627 342.333 344.476 344.536C345.299 346.711 346.281 349.524 346.652 350.771C347.023 352.018 348.244 355.998 349.332 359.66C352.065 368.814 352.595 370.751 353.073 373.245C353.577 375.925 353.975 381.258 353.843 383.938C353.789 385.026 353.604 390.889 353.445 396.939C352.993 412.435 353.206 418.113 354.692 434.218C355.275 440.613 355.461 450.165 355.09 457.435C354.904 460.858 354.665 470.888 354.532 479.723C354.4 488.559 354.161 497.872 354.002 500.419C353.71 505.248 353.259 509.998 353.1 510.183C353.047 510.237 351.163 509.785 348.907 509.202C346.679 508.618 341.027 507.344 336.357 506.389C327.919 504.638 326.195 504.187 314.732 500.87C311.442 499.915 305.897 498.403 302.394 497.527C298.892 496.651 293.93 495.219 291.357 494.317L286.713 492.671L286.819 478.025C286.899 469.428 286.819 460.513 286.634 456.374C286.474 452.5 286.156 444.991 285.944 439.658C285.572 430.265 285.28 425.197 284.723 418.033C284.59 416.123 284.352 409.436 284.219 403.174C284.086 396.886 283.901 388.767 283.794 385.132C283.529 375.606 284.431 363.003 285.413 361.915C286.103 361.146 285.891 360.19 284.829 359.262C283.848 358.386 279.39 356.078 278.7 356.078C278.355 356.078 278.329 355.467 278.461 351.885C278.541 349.604 278.806 346.711 279.045 345.464C280.77 336.47 283.503 326.546 285.28 322.699C288.04 316.835 292.312 311.342 296.292 308.583C297.618 307.681 300.537 306.593 303.986 305.77C307.144 305.028 309.718 305.081 312.265 305.93ZM376.82 308.663C377.351 309.857 377.908 312.032 377.696 312.032C377.457 312.032 375.069 310.228 374.698 309.777C374.406 309.432 374.486 309.22 375.228 308.45C375.733 307.946 376.184 307.522 376.237 307.522C376.29 307.522 376.555 308.026 376.82 308.663ZM388.389 316.596C389.238 318.268 389.875 320.019 389.689 320.205C389.636 320.284 388.654 319.647 387.566 318.798L385.55 317.259L386.532 316.251C387.089 315.667 387.566 315.216 387.62 315.216C387.646 315.216 387.991 315.827 388.389 316.596ZM397.623 323.097C398.445 325.511 398.127 325.936 396.535 324.53L395.42 323.521L396.084 322.54C396.455 322.009 396.853 321.637 396.986 321.717C397.092 321.797 397.384 322.407 397.623 323.097ZM405.981 328.43C406.272 329.412 406.538 330.393 406.538 330.606C406.538 330.818 405.874 330.34 405.078 329.544L403.619 328.112L404.336 327.369C404.734 326.971 405.132 326.626 405.211 326.626C405.317 326.626 405.662 327.448 405.981 328.43ZM356.602 329.438C358.512 330.393 360.9 332.808 361.856 334.718C363.368 337.849 362.917 341.776 360.794 344.111C359.813 345.146 359.627 345.252 358.725 345.119C358.194 345.04 357.372 344.721 356.947 344.403C355.169 343.156 352.144 338.406 352.728 337.823C352.94 337.611 352.94 337.106 352.702 336.018C352.171 333.365 352.436 330.102 353.259 329.067C353.71 328.536 355.116 328.695 356.602 329.438ZM414.869 334.028C415.4 335.037 415.824 335.939 415.824 336.018C415.824 336.337 414.63 335.594 413.649 334.639C412.667 333.71 412.667 333.71 413.118 332.941C413.357 332.543 413.622 332.198 413.728 332.198C413.835 332.198 414.339 333.02 414.869 334.028ZM422.06 338.831C421.901 339.07 421.821 339.07 421.635 338.805C421.37 338.353 421.635 337.902 421.98 338.247C422.139 338.406 422.166 338.672 422.06 338.831ZM432.541 344.377C432.859 345.226 433.071 346.26 433.018 346.632L432.939 347.348L431.214 346.287C430.259 345.677 429.33 345.093 429.118 344.96C428.773 344.748 428.799 344.615 429.197 343.979C429.463 343.554 429.993 342.944 430.365 342.625C431.002 342.095 431.108 342.068 431.506 342.44C431.745 342.652 432.222 343.554 432.541 344.377ZM441.535 350.691C441.562 351.169 441.509 351.567 441.429 351.567C441.35 351.567 440.792 351.328 440.235 351.036L439.174 350.506L439.625 349.763C439.864 349.365 440.262 348.834 440.474 348.569C440.872 348.118 440.899 348.118 441.19 348.967C441.376 349.444 441.535 350.24 441.535 350.691ZM389.052 352.071C390.963 352.788 393.483 354.433 394.757 355.733C396.588 357.643 400.488 363.109 401.496 365.232C402.85 368.071 403.805 371.016 406.034 379.268C407.068 383.089 408.422 388.103 409.085 390.438C410.597 395.904 412.455 405.164 413.145 410.736C413.436 413.151 414.1 416.972 414.604 419.227C415.957 425.25 416.276 427.134 417.151 434.59C417.655 438.756 418.106 441.648 418.372 442.152C418.69 442.789 418.849 444.46 419.035 449.608C419.46 461.017 419.778 465.952 420.335 469.243C421.158 473.992 421.37 481.023 421.37 501.879C421.343 512.227 421.423 522.495 421.529 524.671C421.715 528.412 421.715 528.624 421.264 528.438C420.999 528.359 418.743 527.722 416.249 527.059C411.765 525.865 404.866 523.636 400.966 522.123C399.878 521.699 395.924 520.478 392.21 519.391C388.495 518.303 384.117 517.029 382.499 516.551L379.527 515.702L379.368 514.482C378.943 511.563 378.651 504.956 378.412 493.123C378.174 479.431 377.829 472.108 377.218 465.793C377.006 463.591 376.688 458.815 376.555 455.18C376.396 451.518 376.078 446.875 375.865 444.832C375.653 442.789 375.361 436.527 375.228 430.902C375.096 425.277 374.804 417.29 374.565 413.124C374.353 408.959 374.167 405.297 374.167 404.979C374.167 404.448 372.681 402.511 372.257 402.511C372.177 402.511 371.036 401.874 369.763 401.078L367.428 399.645L367.375 386.936C367.322 371.202 367.375 370.83 370.983 363.374C374.22 356.635 377.882 352.628 381.676 351.673C383.64 351.169 387.195 351.355 389.052 352.071ZM450.424 354.406C450.663 355.096 450.849 356.051 450.849 356.555V357.457L449.946 356.768C449.442 356.396 448.859 356.157 448.646 356.237C448.036 356.476 447.85 355.892 448.222 354.804C449.018 352.337 449.681 352.204 450.424 354.406ZM460.029 360.243L460.347 361.623L459.047 360.774C457.615 359.819 457.402 359.076 458.172 357.617L458.623 356.768L459.154 357.829C459.445 358.386 459.843 359.474 460.029 360.243ZM467.432 363.321C467.538 364.091 467.565 365.073 467.511 365.497L467.432 366.293L466.45 365.285C465.893 364.728 465.442 364.197 465.442 364.091C465.442 363.746 466.769 361.915 467.034 361.915C467.167 361.915 467.352 362.552 467.432 363.321ZM421.237 369.451C422.405 370.671 424.342 375.606 424.501 377.702C424.634 379.401 424.289 380.754 423.705 380.754C423.174 380.754 421.848 379.215 420.733 377.304C420.176 376.349 419.513 375.261 419.247 374.863C418.664 374.014 418.345 372.343 418.584 371.149C418.77 370.087 419.672 368.548 420.096 368.548C420.256 368.548 420.786 368.946 421.237 369.451Z" stroke="#234334" stroke-width="2.388" mask="url(#path-1-inside-1_275_284)"/>
</svg>
