<svg width="42" height="45" viewBox="0 0 42 45" fill="none" xmlns="http://www.w3.org/2000/svg">
<g clip-path="url(#clip0_275_101)">
<path d="M8.90735 2.1766C8.90735 4.16963 9.32693 5.24481 10.1399 5.24481C10.5332 5.24481 10.507 5.19236 10.1399 4.77278C9.56295 4.1434 9.53673 2.09793 10.0874 2.09793C10.2972 2.09793 10.4808 1.96681 10.4808 1.83569C10.4808 1.67834 10.2972 1.57345 10.0874 1.57345C9.85141 1.57345 9.69407 1.33743 9.69407 0.917848C9.69407 0.498263 9.53673 0.262247 9.30071 0.262247C8.98602 0.262247 8.90735 0.655607 8.90735 2.1766Z" fill="#FFEDC0"/>
<path d="M1.09265 1.83569C0.384599 2.49129 0.253479 4.72034 0.90908 4.72034C1.19754 4.72034 1.30244 4.43187 1.30244 3.64515C1.30244 2.33395 1.6958 1.57345 2.3514 1.57345C3.007 1.57345 3.40036 2.33395 3.40036 3.64515C3.40036 4.43187 3.50526 4.72034 3.79372 4.72034C4.08219 4.72034 4.18708 4.40565 4.18708 3.54026C4.18708 2.20283 3.45281 1.31121 2.3514 1.31121C1.98426 1.31121 1.40734 1.54723 1.09265 1.83569Z" fill="#FFEDC0"/>
<path d="M5.39337 1.86192C5.00001 2.17661 4.71155 2.64864 4.71155 3.01578C4.71155 3.8025 5.65561 4.72034 6.44233 4.72034C7.30773 4.72034 7.46507 4.2483 6.65213 4.14341C6.25877 4.09096 5.81296 3.85494 5.65561 3.61893C5.28848 3.01578 5.76051 1.7308 6.41611 1.6259C7.12416 1.46856 7.59619 2.2815 7.59619 3.5927C7.59619 4.43187 7.70109 4.72034 7.98955 4.72034C8.27802 4.72034 8.38291 4.43187 8.38291 3.5927C8.38291 1.6259 6.83569 0.734285 5.39337 1.86192Z" fill="#FFEDC0"/>
<path d="M11.2676 2.49129C11.2676 3.82872 12.0019 4.72034 13.1033 4.72034C14.2047 4.72034 14.9389 3.82872 14.9389 2.49129C14.9389 1.6259 14.834 1.31121 14.5456 1.31121C14.2571 1.31121 14.1522 1.59968 14.1522 2.3864C14.1522 3.6976 13.7589 4.4581 13.1033 4.4581C12.4477 4.4581 12.0543 3.6976 12.0543 2.3864C12.0543 1.59968 11.9494 1.31121 11.6609 1.31121C11.3725 1.31121 11.2676 1.6259 11.2676 2.49129Z" fill="#FFEDC0"/>
<path d="M15.9092 1.78325C15.3323 2.43885 15.2798 4.72034 15.8568 4.72034C16.1452 4.72034 16.2501 4.40565 16.2501 3.43536C16.2501 2.3864 16.355 2.04549 16.8271 1.7308C17.404 1.31121 17.404 1.31121 16.8795 1.31121C16.5648 1.31121 16.1452 1.52101 15.9092 1.78325Z" fill="#FFEDC0"/>
<path d="M17.9809 1.86192C17.5875 2.17661 17.2991 2.64864 17.2991 3.01578C17.2991 3.8025 18.2431 4.72034 19.0299 4.72034C19.8953 4.72034 20.0526 4.2483 19.2397 4.14341C18.8463 4.09096 18.4005 3.85494 18.2431 3.61893C17.876 3.01578 18.348 1.7308 19.0036 1.6259C19.7117 1.46856 20.1837 2.2815 20.1837 3.5927C20.1837 4.43187 20.2886 4.72034 20.5771 4.72034C20.8655 4.72034 20.9704 4.43187 20.9704 3.5927C20.9704 1.6259 19.4232 0.734285 17.9809 1.86192Z" fill="#FFEDC0"/>
<path d="M4.05593 8.41791C1.0664 9.54555 -0.40215 12.8498 0.620587 16.3113C1.35486 18.8289 3.76747 20.4285 6.44232 20.1138C8.69759 19.8778 10.9791 18.0946 10.2186 17.1767C9.72032 16.5736 9.1434 16.7047 8.19933 17.6225C7.43883 18.3568 7.15037 18.4617 5.91784 18.4617C4.31818 18.4879 3.34789 17.8586 2.71851 16.3376C2.24648 15.2362 2.24648 13.0858 2.71851 11.9582C3.6888 9.62422 6.44232 9.02107 8.40912 10.7519C9.35319 11.6172 9.87767 11.6697 10.2973 10.9879C10.6906 10.3585 9.98256 9.3882 8.77626 8.78505C7.56995 8.23435 5.1049 8.05078 4.05593 8.41791Z" fill="#FFEDC0"/>
<path d="M12.6574 8.52278C12.0543 8.94236 12.0543 9.04726 12.0543 14.2658C12.0543 19.9827 12.1592 20.4547 13.3655 20.0613C13.8375 19.904 13.8899 19.6942 13.8899 17.675V15.4721H15.0176C16.119 15.4721 16.119 15.4721 17.5089 17.675C18.925 19.9302 19.633 20.5072 20.3148 19.9302C20.918 19.432 20.8131 19.1173 19.3708 17.0718C18.6365 16.0228 18.0596 15.1575 18.112 15.1312C18.1645 15.0788 18.5578 14.8952 18.9774 14.6854C19.9739 14.1872 20.8131 12.3253 20.6033 11.1714C20.2099 9.12593 18.925 8.36543 15.5945 8.20809C13.7064 8.10319 13.1294 8.18187 12.6574 8.52278ZM17.9547 10.3322C18.7938 10.8829 18.8463 12.3515 18.0858 13.112C17.6662 13.5316 17.2204 13.6365 15.7256 13.6365H13.8899V11.8532C13.8899 10.8567 13.9686 9.9651 14.0997 9.8602C14.4144 9.51929 17.2728 9.88643 17.9547 10.3322Z" fill="#FFEDC0"/>
<path d="M22.9635 8.78505C22.5963 9.15218 22.5439 9.99135 22.5439 14.397C22.5439 18.0684 22.6226 19.6418 22.8586 19.8778C23.3568 20.3761 30.2537 20.3236 30.6733 19.7991C30.8569 19.5893 30.9356 19.2222 30.8307 19.0124C30.7258 18.6977 30.1226 18.6191 27.6576 18.6191H24.6418V16.7834V14.9739L27.0282 14.8952C28.9425 14.8428 29.4933 14.7379 29.703 14.3708C29.9128 14.0561 29.8866 13.8201 29.6506 13.5316C29.3884 13.2169 28.7852 13.112 26.9757 13.112H24.6418V11.5386V9.99135L27.6051 9.91268L30.5422 9.83401V9.17841V8.52281L26.9495 8.44413C23.96 8.39169 23.3044 8.44413 22.9635 8.78505Z" fill="#FFEDC0"/>
<path d="M33.0597 8.75879C32.8499 8.99481 32.7713 10.7256 32.8237 14.4494C32.9024 19.4844 32.9286 19.7991 33.4006 19.8778C34.2136 20.0351 34.607 19.196 34.607 17.2554V15.4721H35.6035C36.5475 15.4721 36.6262 15.5508 37.9899 17.7274C39.2224 19.6942 39.4584 19.9565 40.0878 19.8778C41.163 19.7467 41.0581 18.9337 39.7206 17.0718C38.4619 15.2361 38.3308 14.9477 38.9077 14.9477C39.1175 14.9477 39.642 14.5281 40.0878 14.0298C40.7171 13.2955 40.9007 12.8497 40.9007 11.9843C40.9007 9.46684 39.3011 8.39166 35.6297 8.39166C34.03 8.39166 33.2695 8.49655 33.0597 8.75879ZM38.5143 10.5945C39.1437 11.1452 39.2224 12.2728 38.7241 12.9546C38.357 13.4267 36.836 13.8725 35.4723 13.8987H34.607V11.9057V9.91265L36.2853 10.0175C37.4654 10.0962 38.1472 10.2798 38.5143 10.5945Z" fill="#FFEDC0"/>
<path d="M21.2852 23.4181C21.0491 23.6803 20.9705 24.6506 21.0229 26.5125C21.0754 28.7416 21.1803 29.2398 21.4949 29.2398C21.7572 29.2398 21.9145 28.8989 21.967 28.1122C22.0457 27.0108 22.0457 27.0108 23.0946 27.0108C25.009 27.0108 26.0579 25.2275 24.9565 23.8639C24.3271 23.0772 21.8096 22.7887 21.2852 23.4181ZM24.1436 24.5457C24.6681 25.1751 24.1174 25.8045 22.9635 25.9094C22.0457 25.988 22.0194 25.9618 22.0194 25.0702C22.0194 24.1786 22.0719 24.1261 22.911 24.1261C23.3831 24.1261 23.9338 24.3097 24.1436 24.5457Z" fill="#FFEDC0"/>
<path d="M27.3953 23.3394C26.8708 24.1786 25.4547 28.9776 25.6645 29.1874C26.0317 29.5545 26.425 29.1874 26.6086 28.322C26.7659 27.6139 26.8708 27.5353 27.7887 27.5353C28.7065 27.5353 28.8114 27.6139 28.9688 28.322C29.1523 29.2136 29.5457 29.5545 29.939 29.1611C30.0964 29.0038 29.8341 27.9286 29.1785 26.0929C28.2345 23.3919 27.7887 22.71 27.3953 23.3394ZM28.0509 25.4111C28.0509 25.5422 28.1296 25.8307 28.2083 26.0667C28.3132 26.3814 28.2083 26.4863 27.7887 26.4863C27.3691 26.4863 27.2642 26.3814 27.3691 26.0667C27.4478 25.8307 27.5264 25.5422 27.5264 25.4111C27.5264 25.28 27.6576 25.1751 27.7887 25.1751C27.946 25.1751 28.0509 25.28 28.0509 25.4111Z" fill="#FFEDC0"/>
<path d="M31.2503 23.2869C30.7258 23.6278 30.9093 29.2398 31.4601 29.2398C31.7223 29.2398 31.8796 28.8989 31.9321 28.1122C32.037 26.6436 32.7713 26.5912 33.6629 28.0335C34.4496 29.266 34.8167 29.5283 35.1839 29.1611C35.3937 28.9513 35.2625 28.558 34.7643 27.7975C34.2136 26.9583 34.1349 26.6961 34.4496 26.5912C34.6594 26.5125 34.9741 26.0929 35.1314 25.6733C35.551 24.6768 35.1576 23.7065 34.1874 23.3394C33.3744 23.0247 31.7223 22.9985 31.2503 23.2869ZM34.1087 24.5457C34.6332 25.1751 34.0825 25.8044 32.9286 25.9093C32.0108 25.988 31.9845 25.9618 31.9845 25.0702C31.9845 24.1786 32.037 24.1261 32.8762 24.1261C33.3482 24.1261 33.8989 24.3097 34.1087 24.5457Z" fill="#FFEDC0"/>
<path d="M38.1472 23.3394C37.6227 24.1786 36.2066 28.9776 36.4164 29.1874C36.7836 29.5545 37.1769 29.1874 37.3605 28.322C37.5178 27.6139 37.6227 27.5353 38.5406 27.5353C39.4584 27.5353 39.5633 27.6139 39.7206 28.322C39.9042 29.2136 40.2976 29.5545 40.6909 29.1611C40.8483 29.0038 40.586 27.9286 39.9304 26.0929C38.9864 23.3919 38.5406 22.71 38.1472 23.3394ZM38.8028 25.4111C38.8028 25.5422 38.8815 25.8307 38.9602 26.0667C39.065 26.3814 38.9602 26.4863 38.5406 26.4863C38.121 26.4863 38.0161 26.3814 38.121 26.0667C38.1997 25.8307 38.2783 25.5422 38.2783 25.4111C38.2783 25.28 38.4094 25.1751 38.5406 25.1751C38.6979 25.1751 38.8028 25.28 38.8028 25.4111Z" fill="#FFEDC0"/>
<path d="M22.9635 32.6489C22.5963 33.016 22.5439 33.8552 22.5439 38.2608C22.5439 41.9322 22.6226 43.5056 22.8586 43.7416C23.3568 44.2399 30.2537 44.1874 30.6733 43.663C30.8569 43.4532 30.9356 43.086 30.8307 42.8762C30.7258 42.5616 30.1226 42.4829 27.6576 42.4829H24.6418V40.6472V38.8377L27.0282 38.7591C28.9425 38.7066 29.4933 38.6017 29.703 38.2346C29.9128 37.9199 29.8866 37.6839 29.6506 37.3954C29.3884 37.0807 28.7852 36.9758 26.9757 36.9758H24.6418V35.4024V33.8552L27.6051 33.7765L30.5422 33.6978V33.0422V32.3866L26.9495 32.308C23.96 32.2555 23.3044 32.308 22.9635 32.6489Z" fill="#FFEDC0"/>
<path d="M33.2433 32.5178C32.8237 32.78 32.7712 33.3569 32.7712 38.4182V44.0563H33.5317C34.4496 44.0563 34.6069 43.6368 34.6069 41.093V39.3098L35.5772 39.3885C36.4688 39.4671 36.6262 39.6245 37.9636 41.7748C39.2224 43.8203 39.4584 44.0826 40.0615 44.0039C41.1629 43.8728 41.058 43.1385 39.6944 41.093C38.8814 39.8605 38.5668 39.2049 38.8028 39.1262C38.9863 39.0475 39.4846 38.6804 39.9304 38.3133C40.5336 37.7363 40.7433 37.3168 40.822 36.294C41.0843 33.5929 39.6944 32.4915 35.9181 32.3342C34.6069 32.2817 33.5055 32.3604 33.2433 32.5178ZM37.544 34.0912C39.1699 34.5632 39.6157 36.2416 38.3832 37.2119C37.8587 37.6314 37.308 37.7626 36.1541 37.7626H34.6069V35.7958V33.829H35.6034C36.1279 33.829 37.0195 33.9601 37.544 34.0912Z" fill="#FFEDC0"/>
<path d="M11.1889 32.6751C11.084 32.78 11.0053 33.0685 11.0053 33.3045C11.0053 33.8552 14.6242 43.5319 14.9914 43.9777C15.3061 44.3711 15.9617 44.4235 16.4599 44.0826C16.9582 43.7679 20.7344 33.5668 20.5509 32.9898C20.3935 32.4391 19.3446 32.3342 18.925 32.8325C18.7938 33.0161 18.0333 34.9304 17.2729 37.0808C15.6732 41.5913 16.0141 41.6962 13.9686 36.058C12.841 32.9898 12.6312 32.6489 12.0543 32.5702C11.6871 32.5178 11.2938 32.5702 11.1889 32.6751Z" fill="#FFEDC0"/>
</g>
<defs>
<clipPath id="clip0_275_101">
<rect width="40.9095" height="44.3186" fill="white" transform="translate(0.253418)"/>
</clipPath>
</defs>
</svg>
