<svg width="95" height="38" viewBox="0 0 95 38" fill="none" xmlns="http://www.w3.org/2000/svg">
<path d="M4.64909 1.04606C1.24247 2.54165 -0.668566 7.48541 0.743935 11.1413C1.32555 12.72 3.11195 14.5895 4.73218 15.2542C6.68475 16.0851 9.80056 16.002 11.3792 15.0049C12.7917 14.1325 14.2458 11.8891 13.6226 11.4736C13.4149 11.349 13.1241 11.6398 12.9579 12.0553C12.5009 13.5924 10.3406 15.0049 8.51269 15.0049C4.85681 15.0049 2.7796 10.435 4.06747 5.20048C5.02298 1.54459 8.76196 0.0905476 11.4623 2.33393C12.127 2.91555 12.8333 3.78798 12.9579 4.24496C13.1241 4.66041 13.4149 4.95121 13.6226 4.82658C14.2458 4.41114 12.7917 2.16776 11.3792 1.29533C9.80056 0.339812 6.51857 0.21518 4.64909 1.04606ZM3.8182 3.37254C2.73806 5.49129 2.57188 9.06409 3.52739 11.806L4.31673 14.2156L3.31967 13.26C1.82408 11.8891 1.11783 10.3104 1.11783 8.35784C1.11783 6.32217 1.94872 4.20342 3.23659 2.99864C4.48291 1.8354 4.566 1.87695 3.8182 3.37254Z" fill="#FFEDC0"/>
<path d="M15.2428 5.86523C15.2428 11.723 15.4921 12.72 17.5277 14.5895C18.4832 15.5035 19.0233 15.6281 21.6821 15.6281C24.5071 15.6281 24.8395 15.545 26.0027 14.4233C26.709 13.7171 27.4983 12.5123 27.706 11.723C28.2461 9.72884 28.2461 0.464494 27.706 0.464494C27.4568 0.464494 27.2906 2.41707 27.2906 5.44979C27.2906 12.5954 26.2105 14.5895 22.4715 14.5895C21.0174 14.5895 20.5189 14.3818 19.6465 13.3016C18.6079 12.0553 18.5663 11.8476 18.5663 6.23913V0.464494H16.9046H15.2428V5.86523ZM17.8185 7.07002C17.9432 12.0553 18.0678 12.9693 18.7325 13.7171C19.6049 14.6726 19.3557 14.8388 18.0678 14.1325C16.6138 13.3432 16.0737 11.2244 16.0737 6.07296C16.0737 1.62773 16.1152 1.29538 16.863 1.29538C17.6108 1.29538 17.6939 1.71082 17.8185 7.07002Z" fill="#FFEDC0"/>
<path d="M30.6141 8.15015V15.8358H32.0682H33.5222V8.15015V0.464475H32.0682H30.6141V8.15015ZM32.6913 8.15015C32.6913 13.9663 32.6083 15.0049 32.0682 15.0049C31.5281 15.0049 31.445 13.9663 31.445 8.15015C31.445 2.33396 31.5281 1.29536 32.0682 1.29536C32.6083 1.29536 32.6913 2.33396 32.6913 8.15015Z" fill="#FFEDC0"/>
<path d="M36.4303 8.15013V15.9189L40.0862 15.7527C46.484 15.4619 49.1428 12.9692 48.8105 7.56851C48.5612 2.62475 46.2763 0.796808 40.0862 0.547544L36.4303 0.381367V8.15013ZM38.5075 8.15013C38.5075 13.9663 38.4244 15.0049 37.8843 15.0049C37.3443 15.0049 37.2612 13.9663 37.2612 8.15013C37.2612 2.33394 37.3443 1.29534 37.8843 1.29534C38.4244 1.29534 38.5075 2.33394 38.5075 8.15013ZM44.6145 2.12622C47.0241 3.20637 48.0627 4.99277 48.0627 8.10858C48.0627 12.263 45.9855 14.4233 41.6233 14.8803L39.3384 15.1295V8.19167V1.29534H41.1248C42.0803 1.29534 43.659 1.66924 44.6145 2.12622Z" fill="#FFEDC0"/>
<path d="M50.6385 8.02553L50.7631 15.6281L56.2885 15.7527C59.8198 15.8358 61.7723 15.7112 61.7723 15.4204C61.7723 15.1711 60.2352 15.005 57.8256 15.005H53.879V11.6814V8.39943L56.704 8.23325L59.4874 8.10862L56.704 8.02553L53.879 7.94244V4.61891V1.29538H57.6179C59.8198 1.29538 61.3569 1.1292 61.3569 0.879936C61.3569 0.630672 59.2797 0.464495 55.9562 0.464495H50.5554L50.6385 8.02553ZM53.0481 8.15016C53.0481 14.7141 53.0065 15.005 52.2172 15.005C51.4278 15.005 51.3863 14.7141 51.3863 8.15016C51.3863 1.58619 51.4278 1.29538 52.2172 1.29538C53.0065 1.29538 53.0481 1.58619 53.0481 8.15016Z" fill="#FFEDC0"/>
<path d="M72.3245 0.879941C70.9535 1.42002 69.6656 3.33105 69.6656 4.82664C69.6656 6.8623 71.0366 8.23326 73.737 9.0226C77.3098 9.97811 78.3899 10.4766 78.8054 11.3075C79.4285 12.4292 79.3039 12.8862 78.1822 13.9664C77.3929 14.7557 76.7281 15.005 75.2741 15.005C73.0307 15.005 71.8675 14.5064 70.6212 13.0108C69.4995 11.6814 68.9178 12.0553 69.8734 13.4678C71.8675 16.5421 78.5976 16.6252 80.5918 13.634C81.5473 12.1384 81.5057 9.93657 80.4256 8.60716C79.844 7.85936 78.5561 7.2362 76.0634 6.4884C72.1998 5.28362 71.3274 4.45274 72.1167 2.70788C73.0723 0.630676 77.3513 0.713765 79.3039 2.91561C80.4671 4.20347 81.1318 4.20347 80.4256 2.87406C79.3454 0.879941 74.9833 -0.200207 72.3245 0.879941ZM73.4877 6.40532C74.4432 6.77921 76.0219 7.27774 76.9359 7.56855C79.3454 8.2748 80.4671 9.43804 80.4671 11.2244L80.4256 12.72L79.7609 11.4737C78.8469 9.77039 78.1406 9.31341 75.5234 8.73179C72.1583 7.94245 70.7458 6.82076 70.5796 4.82664L70.4965 3.16487L71.0781 4.45274C71.4936 5.40826 72.1583 5.94833 73.4877 6.40532Z" fill="#FFEDC0"/>
<path d="M83.0429 8.02553L83.1676 15.6281L88.6929 15.7527C92.2242 15.8358 94.1768 15.7112 94.1768 15.4204C94.1768 15.1711 92.6396 15.005 90.2301 15.005H86.2834V11.6814V8.39943L89.1084 8.23325L91.8918 8.10862L89.1084 8.02553L86.2834 7.94244V4.61891V1.29538H90.0223C92.2242 1.29538 93.7613 1.1292 93.7613 0.879936C93.7613 0.630672 91.6841 0.464495 88.3606 0.464495H82.9598L83.0429 8.02553ZM85.4525 8.15016C85.4525 14.7141 85.4109 15.005 84.6216 15.005C83.8323 15.005 83.7907 14.7141 83.7907 8.15016C83.7907 1.58619 83.8323 1.29538 84.6216 1.29538C85.4109 1.29538 85.4525 1.58619 85.4525 8.15016Z" fill="#FFEDC0"/>
<path d="M62.6031 7.94241C62.6031 8.19167 63.8495 8.35785 65.5528 8.35785C67.3807 8.35785 68.3778 8.19167 68.2116 7.94241C68.087 7.69314 66.7576 7.52697 65.262 7.52697C63.7664 7.52697 62.6031 7.69314 62.6031 7.94241Z" fill="#FFEDC0"/>
<path d="M25.629 30.21V37.9373L30.6559 37.8126L35.6827 37.6464L36.8875 36.2755C38.5077 34.4891 38.5077 32.7858 36.846 31.124L35.5996 29.8777L36.4305 28.8391C37.4276 27.5512 37.5107 25.5156 36.6382 24.2692C35.7658 23.0229 33.564 22.4828 29.2849 22.4828H25.629V30.21ZM27.914 23.7292C27.7893 23.9369 27.3739 24.1446 27.0415 24.1446C26.7092 24.1446 26.4599 23.9369 26.4599 23.7292C26.4599 23.4799 26.8338 23.3137 27.3323 23.3137C27.7893 23.3137 28.0386 23.4799 27.914 23.7292ZM35.5581 24.3108C36.4721 25.1417 36.7213 27.0111 36.0151 28.299C35.475 29.2961 33.4393 29.9608 30.9882 29.9608H28.9526V26.5957V23.2306L31.8191 23.3968C33.8963 23.4799 34.9349 23.7707 35.5581 24.3108ZM27.8309 25.2663C27.5401 25.3494 27.0415 25.3494 26.7923 25.2663C26.5015 25.1417 26.7092 25.0586 27.2908 25.0586C27.8724 25.0586 28.0801 25.1417 27.8309 25.2663ZM27.914 26.6372C27.7893 26.845 27.3739 27.0527 27.0415 27.0527C26.7092 27.0527 26.4599 26.845 26.4599 26.6372C26.4599 26.388 26.8338 26.2218 27.3323 26.2218C27.7893 26.2218 28.0386 26.388 27.914 26.6372ZM27.8309 28.1744C27.5401 28.2575 27.0415 28.2575 26.7923 28.1744C26.5015 28.0497 26.7092 27.9667 27.2908 27.9667C27.8724 27.9667 28.0801 28.0497 27.8309 28.1744ZM27.914 29.5453C27.7893 29.7531 27.3739 29.9608 27.0415 29.9608C26.7092 29.9608 26.4599 29.7531 26.4599 29.5453C26.4599 29.2961 26.8338 29.1299 27.3323 29.1299C27.7893 29.1299 28.0386 29.2961 27.914 29.5453ZM27.914 30.7917C28.0386 30.9994 27.7893 31.2071 27.3323 31.2071C26.8338 31.2071 26.4599 30.9994 26.4599 30.7917C26.4599 30.5424 26.7092 30.3762 27.0415 30.3762C27.3739 30.3762 27.7893 30.5424 27.914 30.7917ZM35.932 31.4979C37.1783 32.4119 37.4691 33.2428 37.0952 34.7799C36.7213 36.1924 34.6026 37.0233 31.4452 37.0233H28.9526V33.6582V30.2516L31.9022 30.4593C33.9379 30.6255 35.1842 30.9578 35.932 31.4979ZM27.914 32.4534C27.7893 32.6611 27.3739 32.8689 27.0415 32.8689C26.7092 32.8689 26.4599 32.6611 26.4599 32.4534C26.4599 32.2042 26.8338 32.038 27.3323 32.038C27.7893 32.038 28.0386 32.2042 27.914 32.4534ZM27.914 33.6998C28.0386 33.9075 27.7893 34.1152 27.3323 34.1152C26.8338 34.1152 26.4599 33.9075 26.4599 33.6998C26.4599 33.4505 26.7092 33.2843 27.0415 33.2843C27.3739 33.2843 27.7893 33.4505 27.914 33.6998ZM27.914 35.3615C27.7893 35.5692 27.3739 35.777 27.0415 35.777C26.7092 35.777 26.4599 35.5692 26.4599 35.3615C26.4599 35.1123 26.8338 34.9461 27.3323 34.9461C27.7893 34.9461 28.0386 35.1123 27.914 35.3615ZM27.914 36.6078C28.0386 36.8156 27.7893 37.0233 27.3323 37.0233C26.8338 37.0233 26.4599 36.8156 26.4599 36.6078C26.4599 36.3586 26.7092 36.1924 27.0415 36.1924C27.3739 36.1924 27.7893 36.3586 27.914 36.6078Z" fill="#FFEDC0"/>
<path d="M40.1694 30.1685V37.8542H45.7779C49.2261 37.8542 51.3864 37.688 51.3864 37.4387C51.3864 37.1895 49.7246 37.0233 47.2319 37.0233H43.036L43.1606 33.7829L43.2852 30.584L46.1933 30.3762L49.1014 30.127L46.1933 29.9608L43.2852 29.7531L43.1606 26.5126L43.036 23.3137H47.0242C49.3922 23.3137 50.9709 23.1476 50.9709 22.8983C50.9709 22.649 48.8937 22.4828 45.5702 22.4828H40.1694V30.1685ZM42.2466 23.7292C42.2466 23.9369 41.9558 24.1446 41.6235 24.1446C41.2911 24.1446 41.0003 23.9369 41.0003 23.7292C41.0003 23.4799 41.2911 23.3137 41.6235 23.3137C41.9558 23.3137 42.2466 23.4799 42.2466 23.7292ZM42.122 25.2248C41.9974 25.3494 41.6235 25.3909 41.3327 25.2663C41.0003 25.1417 41.1249 25.017 41.5819 25.017C42.0389 24.9755 42.2882 25.1001 42.122 25.2248ZM42.2466 26.6373C42.2466 26.845 41.9558 27.0527 41.6235 27.0527C41.2911 27.0527 41.0003 26.845 41.0003 26.6373C41.0003 26.388 41.2911 26.2218 41.6235 26.2218C41.9558 26.2218 42.2466 26.388 42.2466 26.6373ZM42.122 28.1329C41.9974 28.2575 41.6235 28.299 41.3327 28.1744C41.0003 28.0498 41.1249 27.9251 41.5819 27.9251C42.0389 27.8836 42.2882 28.0082 42.122 28.1329ZM42.2466 29.5454C42.2466 29.7531 41.9558 29.9608 41.6235 29.9608C41.2911 29.9608 41.0003 29.7531 41.0003 29.5454C41.0003 29.2961 41.2911 29.1299 41.6235 29.1299C41.9558 29.1299 42.2466 29.2961 42.2466 29.5454ZM42.2466 30.7917C42.2466 30.9994 41.9558 31.2071 41.6235 31.2071C41.2911 31.2071 41.0003 30.9994 41.0003 30.7917C41.0003 30.5424 41.2911 30.3762 41.6235 30.3762C41.9558 30.3762 42.2466 30.5424 42.2466 30.7917ZM42.2466 32.4534C42.2466 32.6612 41.9558 32.8689 41.6235 32.8689C41.2911 32.8689 41.0003 32.6612 41.0003 32.4534C41.0003 32.2042 41.2911 32.038 41.6235 32.038C41.9558 32.038 42.2466 32.2042 42.2466 32.4534ZM42.2466 33.6998C42.2466 33.9075 41.9558 34.1152 41.6235 34.1152C41.2911 34.1152 41.0003 33.9075 41.0003 33.6998C41.0003 33.4505 41.2911 33.2843 41.6235 33.2843C41.9558 33.2843 42.2466 33.4505 42.2466 33.6998ZM42.2466 35.3615C42.2466 35.5693 41.9558 35.777 41.6235 35.777C41.2911 35.777 41.0003 35.5693 41.0003 35.3615C41.0003 35.1123 41.2911 34.9461 41.6235 34.9461C41.9558 34.9461 42.2466 35.1123 42.2466 35.3615ZM42.2466 36.6079C42.2466 36.8156 41.9558 37.0233 41.6235 37.0233C41.2911 37.0233 41.0003 36.8156 41.0003 36.6079C41.0003 36.3586 41.2911 36.1924 41.6235 36.1924C41.9558 36.1924 42.2466 36.3586 42.2466 36.6079Z" fill="#FFEDC0"/>
<path d="M53.048 30.127C53.048 39.7653 53.7958 40.7623 53.9619 31.3318L54.0866 24.8509L56.9947 31.3318C58.5733 34.9461 59.9858 37.8542 60.152 37.8542C60.3182 37.8542 61.523 35.1954 62.8109 31.9134C64.0987 28.673 65.345 25.848 65.5528 25.6403C65.7605 25.391 65.9267 27.6759 65.9267 31.5395V37.8542H67.3807H68.8348V30.1686V22.4829H67.2976H65.7189L64.3064 26.1388C63.5171 28.1329 62.52 30.584 62.1046 31.6226L61.3153 33.4921L58.8642 28.0914L56.4546 22.6906L54.7513 22.566L53.048 22.4414V30.127ZM55.9561 23.7292C55.9561 23.9369 55.7068 24.1447 55.3744 24.1447C55.0421 24.1447 54.6267 23.9369 54.502 23.7292C54.3774 23.48 54.6267 23.3138 55.0836 23.3138C55.5822 23.3138 55.9561 23.48 55.9561 23.7292ZM68.0039 23.7292C68.0039 23.9369 67.7131 24.1447 67.3807 24.1447C67.0484 24.1447 66.7575 23.9369 66.7575 23.7292C66.7575 23.48 67.0484 23.3138 67.3807 23.3138C67.7131 23.3138 68.0039 23.48 68.0039 23.7292ZM56.4961 25.2664C56.2053 25.3494 55.7068 25.3494 55.4575 25.2664C55.1667 25.1417 55.3744 25.0586 55.9561 25.0586C56.5377 25.0586 56.7454 25.1417 56.4961 25.2664ZM67.7131 25.2664C67.4223 25.3494 66.9237 25.3494 66.6745 25.2664C66.3836 25.1417 66.5914 25.0586 67.173 25.0586C67.7546 25.0586 67.9623 25.1417 67.7131 25.2664ZM57.2024 26.6373C57.2024 26.845 56.9531 27.0528 56.6208 27.0528C56.2884 27.0528 55.873 26.845 55.7483 26.6373C55.6237 26.388 55.873 26.2219 56.33 26.2219C56.8285 26.2219 57.2024 26.388 57.2024 26.6373ZM68.0039 26.6373C68.0039 26.845 67.7131 27.0528 67.3807 27.0528C67.0484 27.0528 66.7575 26.845 66.7575 26.6373C66.7575 26.388 67.0484 26.2219 67.3807 26.2219C67.7131 26.2219 68.0039 26.388 68.0039 26.6373ZM57.7425 28.1744C57.4517 28.2575 56.9531 28.2575 56.7039 28.1744C56.4131 28.0498 56.6208 27.9667 57.2024 27.9667C57.784 27.9667 57.9917 28.0498 57.7425 28.1744ZM67.7131 28.1744C67.4223 28.2575 66.9237 28.2575 66.6745 28.1744C66.3836 28.0498 66.5914 27.9667 67.173 27.9667C67.7546 27.9667 67.9623 28.0498 67.7131 28.1744ZM58.4487 29.5454C58.4487 29.7531 58.1579 29.9608 57.8256 29.9608C57.4932 29.9608 57.2024 29.7531 57.2024 29.5454C57.2024 29.2961 57.4932 29.13 57.8256 29.13C58.1579 29.13 58.4487 29.2961 58.4487 29.5454ZM68.0039 29.5454C68.0039 29.7531 67.7131 29.9608 67.3807 29.9608C67.0484 29.9608 66.7575 29.7531 66.7575 29.5454C66.7575 29.2961 67.0484 29.13 67.3807 29.13C67.7131 29.13 68.0039 29.2961 68.0039 29.5454ZM59.0719 30.7917C59.1965 30.9994 58.9472 31.2072 58.4903 31.2072C57.9917 31.2072 57.6178 30.9994 57.6178 30.7917C57.6178 30.5425 57.8671 30.3763 58.1994 30.3763C58.5318 30.3763 58.9472 30.5425 59.0719 30.7917ZM68.0039 30.7917C68.0039 30.9994 67.63 31.2072 67.1314 31.2072C66.6745 31.2072 66.4252 30.9994 66.5498 30.7917C66.6745 30.5425 67.0899 30.3763 67.4223 30.3763C67.7546 30.3763 68.0039 30.5425 68.0039 30.7917ZM59.695 32.4535C59.695 32.6612 59.4042 32.8689 59.0719 32.8689C58.7395 32.8689 58.4487 32.6612 58.4487 32.4535C58.4487 32.2042 58.7395 32.0381 59.0719 32.0381C59.4042 32.0381 59.695 32.2042 59.695 32.4535ZM68.0039 32.4535C68.0039 32.6612 67.7546 32.8689 67.4223 32.8689C67.0899 32.8689 66.6745 32.6612 66.5498 32.4535C66.4252 32.2042 66.6745 32.0381 67.1314 32.0381C67.63 32.0381 68.0039 32.2042 68.0039 32.4535ZM60.3182 33.6998C60.4428 33.9075 60.1936 34.1153 59.7366 34.1153C59.2381 34.1153 58.8642 33.9075 58.8642 33.6998C58.8642 33.4506 59.1134 33.2844 59.4458 33.2844C59.7781 33.2844 60.1936 33.4506 60.3182 33.6998ZM68.0039 33.6998C68.0039 33.9075 67.63 34.1153 67.1314 34.1153C66.6745 34.1153 66.4252 33.9075 66.5498 33.6998C66.6745 33.4506 67.0899 33.2844 67.4223 33.2844C67.7546 33.2844 68.0039 33.4506 68.0039 33.6998ZM60.5259 35.3616C60.5259 35.5693 60.3597 35.777 60.1105 35.777C59.9028 35.777 59.695 35.5693 59.695 35.3616C59.695 35.1123 59.9028 34.9461 60.1105 34.9461C60.3597 34.9461 60.5259 35.1123 60.5259 35.3616ZM68.0039 35.3616C68.0039 35.5693 67.7546 35.777 67.4223 35.777C67.0899 35.777 66.6745 35.5693 66.5498 35.3616C66.4252 35.1123 66.6745 34.9461 67.1314 34.9461C67.63 34.9461 68.0039 35.1123 68.0039 35.3616ZM68.0039 36.6079C68.0039 36.8156 67.7131 37.0234 67.3807 37.0234C67.0484 37.0234 66.7575 36.8156 66.7575 36.6079C66.7575 36.3586 67.0484 36.1925 67.3807 36.1925C67.7131 36.1925 68.0039 36.3586 68.0039 36.6079Z" fill="#FFEDC0"/>
</svg>
