<svg width="81" height="45" viewBox="0 0 81 45" fill="none" xmlns="http://www.w3.org/2000/svg">
<path d="M18.5197 9.40129C18.5197 11.7352 18.5459 12.0368 18.7688 12.4039C19.031 12.8497 19.726 13.1644 20.2504 13.0858C20.6176 13.0333 20.7225 12.7186 20.3816 12.7186C20.2373 12.7186 19.9882 12.6006 19.8177 12.4695C19.5293 12.2335 19.5031 12.1024 19.4637 10.6994L19.4113 9.17839H19.8833C20.3029 9.17839 20.3553 9.13905 20.3553 8.85059C20.3553 8.56212 20.3029 8.52279 19.8964 8.52279H19.4375V7.67051V6.81823H18.9786H18.5197V9.40129Z" fill="#FFEDC0"/>
<path d="M8.86921 8.77189C8.03005 9.28326 7.89893 9.59794 7.89893 11.0927V12.4564H8.35785H8.81677V11.355C8.81677 9.6635 9.22324 8.91612 10.128 8.91612C11.0327 8.91612 11.4392 9.68973 11.4392 11.4336V12.4564H11.8981H12.357V11.1714C12.357 9.72906 12.1603 9.24392 11.4129 8.785C10.8229 8.43098 9.44614 8.41786 8.86921 8.77189Z" fill="#FFEDC0"/>
<path d="M14.5729 8.65388C13.6288 8.94234 13.1437 9.58483 13.1437 10.5682C13.1437 11.7221 13.9304 12.4564 15.176 12.4564C15.8447 12.4564 16.2906 12.2728 16.2906 12.0106C16.2906 11.8663 16.1857 11.8532 15.8316 11.9319C14.9925 12.1286 14.4418 11.827 14.1926 11.0665C13.8648 10.0831 14.4549 8.91612 15.2678 8.91612C16.225 8.91612 16.5528 9.53238 16.5528 11.2763V12.4564H17.0904H17.628L17.5755 11.2369C17.51 9.75529 17.274 9.24392 16.4217 8.81122C15.8316 8.52276 15.1891 8.4572 14.5729 8.65388Z" fill="#FFEDC0"/>
<path d="M21.1421 9.72913C21.1421 11.1452 21.3519 11.6959 22.0468 12.1549C22.6106 12.5351 23.9349 12.5744 24.643 12.2335C25.4166 11.8664 25.6002 11.4206 25.6002 9.86025V8.52283H25.1412H24.6823V9.70291C24.6823 11.1321 24.4725 11.7353 23.8956 11.9844C23.358 12.2073 22.9384 12.1155 22.5582 11.709C22.2828 11.4206 22.2566 11.237 22.2173 9.95204L22.1648 8.52283H21.6535H21.1421V9.72913Z" fill="#FFEDC0"/>
<path d="M27.2784 8.74566C26.7408 9.07346 26.6097 9.50616 26.5441 11.0403L26.4917 12.4564H27.0293H27.5669V11.014C27.5669 9.65039 27.58 9.5455 27.8947 9.24392C28.0651 9.06035 28.3274 8.91612 28.4847 8.91612C28.629 8.91612 28.747 8.82434 28.747 8.71944C28.747 8.44409 27.7373 8.4572 27.2784 8.74566Z" fill="#FFEDC0"/>
<path d="M30.1238 8.75878C29.2978 9.13902 28.8782 9.72906 28.8782 10.4633C28.8782 11.6303 29.7173 12.4564 30.8843 12.4564C31.5792 12.4564 32.0251 12.2859 32.0251 11.9974C32.0251 11.8532 31.9333 11.8532 31.5661 11.945C30.845 12.1417 30.1763 11.7745 29.9796 11.0534C29.5469 9.5455 30.8056 8.32608 31.8546 9.23081C32.2086 9.53238 32.2217 9.59794 32.2611 11.0009L32.3135 12.4564H32.838H33.3625L33.31 11.1583C33.2707 9.75529 33.1396 9.42749 32.3791 8.86367C31.8808 8.49654 30.7925 8.44409 30.1238 8.75878Z" fill="#FFEDC0"/>
<path d="M45.5172 15.7999C43.039 16.272 40.9673 17.3078 39.2497 18.9337C36.719 21.3463 35.5914 24.467 35.9585 28.0465C36.2077 30.3805 37.0206 32.3735 38.4367 34.0518C39.6824 35.5466 41.9901 36.9102 44.0355 37.3823C45.8974 37.8019 48.7427 37.7625 50.5784 37.2905C52.4666 36.8053 54.7349 35.363 56.0068 33.8551C57.2655 32.3342 58.2883 30.1313 58.7734 27.7974C59.0488 26.5387 59.0619 26.3158 58.9308 25.0701C58.4194 20.3891 55.6921 17.1242 51.3651 15.9835C49.9753 15.6295 46.9464 15.5246 45.5172 15.7999ZM50.2506 17.0587C53.2664 17.8978 55.1938 20.0482 56.0986 23.6016C56.4264 24.939 56.4395 27.7712 56.1117 28.9644C55.5216 31.1279 54.7612 32.4522 53.2664 33.9732C52.3617 34.8779 51.9421 35.2057 51.0373 35.6515C49.9359 36.1891 48.5198 36.5693 47.6151 36.5824C46.8808 36.5824 45.2287 36.1104 44.2322 35.6253C39.3152 33.1995 37.2697 26.7222 39.7741 21.5299C40.4166 20.1924 41.8196 18.6583 43.0653 17.9241C45.0845 16.7178 47.8511 16.39 50.2506 17.0587Z" fill="#FFEDC0"/>
<path d="M8.10872 16.5867C7.92515 16.7834 7.89893 17.7668 7.89893 26.8796C7.89893 35.94 7.92515 36.9496 8.10872 37.0283C8.69876 37.2512 15.0712 37.0152 16.802 36.7136C17.8772 36.5169 18.4541 35.8351 17.9165 35.3893C17.746 35.2451 17.4445 35.2582 16.107 35.4549C13.8255 35.8089 11.7407 35.9269 11.1769 35.7433C10.4033 35.4942 10.364 35.1926 10.4164 30.1314C10.4558 26.801 10.5082 25.6602 10.6262 25.5422C10.8098 25.3586 13.5764 25.3062 15.7661 25.4373L16.8806 25.5029L16.92 24.9391C16.9593 24.4408 16.9331 24.3883 16.6577 24.3883C12.0948 24.3097 10.9802 24.2441 10.7442 24.0212C10.5082 23.8114 10.4951 23.6279 10.5475 20.8481C10.5869 19.2222 10.6656 17.793 10.718 17.675C10.9671 17.0719 13.2355 17.0194 16.92 17.5177C17.5756 17.6094 17.6018 17.5963 17.6018 17.2816C17.6018 17.1112 17.5231 16.849 17.4182 16.7047C17.2347 16.4687 17.0118 16.4556 12.7766 16.4163C8.81677 16.3769 8.3054 16.4031 8.10872 16.5867Z" fill="#FFEDC0"/>
<path d="M22.8335 16.4818C22.6368 16.5342 22.6105 17.3341 22.5188 25.0833C22.4794 29.7905 22.4532 34.4321 22.4794 35.4024L22.5188 37.1725L23.5808 37.2119C24.1578 37.225 24.8003 37.1856 25.01 37.107L25.3772 36.9627L25.2985 32.6095C25.2198 27.7712 25.2592 27.4041 25.9279 27.4041C26.1246 27.4041 26.3868 27.4696 26.531 27.5352C26.6622 27.6139 27.9471 29.4233 29.3632 31.5606C32.6937 36.5825 33.4279 37.3299 35.1456 37.4741C36.247 37.5659 36.1159 37.2643 34.1753 35.009C32.6543 33.2389 30.0582 29.7118 28.8519 27.7974C28.288 26.8927 27.5275 25.7913 27.1735 25.3324C26.6359 24.6637 26.531 24.4408 26.5966 24.1523C26.6884 23.759 30.0057 20.4154 32.1561 18.5535C32.8772 17.9241 33.4673 17.3341 33.4673 17.2423C33.4673 16.9538 32.3921 16.8489 31.9463 17.0849C31.3825 17.3734 29.8484 18.7239 27.5931 20.9136C26.0328 22.4215 25.5476 22.8149 25.4559 22.6707C25.3903 22.5658 25.3378 21.1497 25.3378 19.5238C25.3378 16.5474 25.3378 16.5474 25.0494 16.4687C24.7216 16.39 23.1613 16.39 22.8335 16.4818Z" fill="#FFEDC0"/>
<path d="M68.5813 16.5342C67.3356 16.7178 65.7491 17.3996 65.041 18.0683C63.7429 19.2746 63.2185 21.1365 63.6774 22.9066C63.9527 24.008 64.8837 25.8437 66.0769 27.6663C67.2832 29.502 67.8863 30.6689 68.083 31.5343C68.5157 33.4356 67.3619 35.6122 65.5786 36.2678C64.687 36.5956 63.0087 36.5693 61.4877 36.2022C60.7796 36.0317 60.1634 35.9268 60.124 35.9793C59.9667 36.1366 60.3338 36.7005 60.7403 36.9102C61.7368 37.4216 65.159 37.4085 66.6669 36.8709C68.1617 36.3464 69.2631 35.2975 70.0498 33.6322C71.2037 31.2196 70.8234 29.5675 68.2141 25.6339C66.7194 23.3787 66.1818 22.2904 65.9851 21.0841C65.6704 19.2484 66.1162 18.1076 67.3881 17.4783C68.1223 17.1242 68.2141 17.1111 70.2727 17.1111C72.1871 17.1111 72.3706 17.0849 72.2657 16.9013C72.0428 16.4818 70.1809 16.2982 68.5813 16.5342Z" fill="#FFEDC0"/>
</svg>
