<svg width="149" height="28" viewBox="0 0 149 28" fill="none" xmlns="http://www.w3.org/2000/svg">
<path d="M22.1841 0.996784C22.1841 1.2038 22.3566 1.65232 22.5291 2.03184C22.8741 2.61838 23.2881 2.68738 27.2904 2.68738C34.0873 2.68738 35.9504 3.51543 36.2264 6.68961C36.5024 10.0708 34.5013 12.0029 30.7406 12.0029H28.7395V13.176V14.349L31.6376 14.4525C33.9147 14.5561 34.7773 14.7631 35.5018 15.3151C37.2959 16.6607 37.8825 17.7302 37.848 19.8694C37.848 23.5611 36.0194 25.4587 32.5347 25.4587C30.1195 25.4587 28.6014 24.5616 27.3594 22.3535C26.5313 20.8699 26.4968 20.4904 26.3243 13.452C26.1518 6.20658 26.1518 6.06857 25.3238 5.41303C24.8752 5.06801 24.0817 4.7575 23.5297 4.7575H22.5291V12.1754C22.5291 16.2121 22.7016 20.3524 22.9086 21.2839C23.4262 23.7681 24.8407 25.5277 27.2559 26.7007C28.981 27.5633 29.671 27.7013 32.1896 27.7013C34.8463 27.7013 35.3638 27.5978 37.4684 26.5627C40.3666 25.1136 41.5397 23.5266 41.7812 20.7664C42.0572 17.4542 40.1596 14.3145 37.2959 13.314L36.3299 12.969L37.7445 11.9339C40.6426 9.82928 40.9876 5.58554 38.5035 2.96339C36.7094 1.10029 34.5703 0.617262 28.0494 0.617262C24.1162 0.617262 22.1841 0.75527 22.1841 0.996784Z" fill="#FFEDC0"/>
<path d="M64.3454 13.452C64.449 22.6295 64.4835 22.9055 65.2425 24.1821C66.3811 26.0107 67.7611 26.6317 70.5903 26.5972C73.1434 26.5972 73.661 26.3557 73.385 25.2516C73.2125 24.6651 72.9364 24.5616 71.2803 24.5616C69.6933 24.5961 69.2792 24.4581 68.7272 23.7681C68.1407 23.0435 68.0717 22.3535 68.0717 17.3162V11.6579H70.6593H73.247V10.6228V9.58776H70.6593H68.0717V7.51764C68.0717 4.999 67.3471 4.06745 65.4495 4.06745H64.2419L64.3454 13.452Z" fill="#FFEDC0"/>
<path d="M105.989 5.30951C104.437 6.8966 102.194 8.31118 99.7446 9.27723C97.916 9.96727 97.7435 10.1398 97.7435 11.0713C97.7435 11.9684 97.847 12.0719 98.537 11.8649C98.951 11.7269 100.124 11.4854 101.09 11.2783C104.506 10.6228 107.094 12.0719 107.197 14.6595L107.232 15.9706L103.954 16.1431C98.744 16.4536 96.3634 18.1787 96.3634 21.6634C96.3634 24.8376 98.468 26.6317 102.091 26.6317C103.712 26.6317 104.54 26.4247 105.713 25.7347L107.232 24.8376L108.198 25.6657C108.75 26.1142 109.543 26.4937 110.026 26.4937H110.889L110.785 19.6278C110.682 13.245 110.613 12.6584 109.957 11.7614C108.991 10.4848 107.473 9.62225 105.61 9.31174L104.126 9.03572L105.299 8.41468C106.576 7.72464 109.819 4.82648 109.819 4.37795C109.819 4.20545 109.233 4.06744 108.508 4.06744C107.473 4.06744 106.956 4.30895 105.989 5.30951ZM107.335 19.4898C107.404 20.3179 107.197 21.4564 106.886 22.112C106.265 23.423 104.161 24.7686 102.746 24.7686C101.539 24.7686 99.8136 23.0435 99.8136 21.8359C99.8136 19.2483 101.953 17.8682 105.679 17.9717L107.232 18.0407L107.335 19.4898Z" fill="#FFEDC0"/>
<path d="M7.8658 9.20824C1.62095 10.2778 -1.41522 17.1782 1.93147 22.6985C3.55306 25.3551 5.9337 26.6662 9.24588 26.6317C12.006 26.5972 13.5241 26.0452 15.4562 24.3891C17.3538 22.733 18.0439 20.9734 18.0439 17.8682C18.0439 15.0046 17.3883 13.2105 15.8358 11.5544C14.1452 9.76027 10.7295 8.75971 7.8658 9.20824ZM10.695 11.3129C11.4195 11.3129 13.2481 13.107 13.7311 14.3145C14.4902 16.1086 14.4212 20.4904 13.5931 22.0085C12.3166 24.3891 9.83242 25.3206 7.55529 24.2511C4.13959 22.6295 3.13904 15.9361 5.83019 12.7274C6.76174 11.6234 8.41784 10.9333 9.5909 11.1748C9.97042 11.2439 10.4535 11.3129 10.695 11.3129Z" fill="#FFEDC0"/>
<path d="M50.9243 9.24278C48.2676 9.79481 46.1285 11.4509 44.7484 14.0731C43.7133 16.0052 43.8514 19.9729 44.9899 22.181C48.2331 28.4259 57.7211 28.2189 60.6883 21.836C62.7929 17.3507 60.8263 11.5199 56.6861 9.82931C55.03 9.13927 52.6493 8.89776 50.9243 9.24278ZM55.306 11.9684C56.8241 13.0035 57.7211 15.2806 57.7211 18.0408C57.6866 22.112 56.2721 24.2856 53.3394 24.6306C51.3728 24.9067 49.8202 23.9061 48.6816 21.6635C47.06 18.5583 47.5431 14.1421 49.7167 12.2444C51.2003 10.8989 53.6154 10.7954 55.306 11.9684Z" fill="#FFEDC0"/>
<path d="M88.8764 9.24276C83.8736 10.2433 80.9409 15.2461 82.2175 20.5939C83.287 25.0792 87.3238 27.3563 92.6716 26.4937C95.0867 26.1142 95.3972 25.9072 95.0867 24.8376C94.9142 24.1131 94.7762 24.0441 93.4651 24.3201C90.0839 24.9756 88.0138 24.2511 86.7372 21.974C85.3227 19.4898 85.4607 15.0046 87.0133 13.176C88.3588 11.5199 90.9465 10.8644 93.7066 11.4164C94.9487 11.6924 94.9832 11.6579 94.9832 10.6573C94.9832 9.72579 94.8452 9.62228 93.2581 9.27726C91.2915 8.86324 90.9465 8.86324 88.8764 9.24276Z" fill="#FFEDC0"/>
<path d="M138.456 9.13922C134.35 9.79476 131.624 12.2444 130.865 16.0051C129.692 21.6289 133.591 26.6317 139.146 26.6317C141.975 26.6317 143.7 26.0452 145.46 24.4581C148.841 21.4219 149.22 15.9706 146.357 11.9339C145.115 10.1743 141.009 8.7252 138.456 9.13922ZM142.009 11.9339C145.218 13.8315 145.356 21.5254 142.216 23.8371C138.87 26.2522 134.798 23.4575 134.384 18.3857C133.936 12.8999 137.869 9.55325 142.009 11.9339Z" fill="#FFEDC0"/>
<path d="M116.754 10.0018C114.132 11.3473 113.821 12.4169 113.683 19.8348L113.545 26.1487H115.477H117.375L117.479 19.3863C117.582 12.6584 117.582 12.6239 118.445 11.9339C119.135 11.3818 119.652 11.2783 120.963 11.4163L122.619 11.5544L122.516 10.4848C122.412 9.41523 122.378 9.41523 120.342 9.31173C118.721 9.24272 117.927 9.38073 116.754 10.0018Z" fill="#FFEDC0"/>
<path d="M75.6621 17.8682V26.1487H77.5597H79.4573V17.8682V9.58775H77.5597H75.6621V17.8682Z" fill="#FFEDC0"/>
<path d="M124.31 17.8682V26.1487H126.208H128.105V17.8682V9.58775H126.208H124.31V17.8682Z" fill="#FFEDC0"/>
</svg>
