<svg width="65" height="49" viewBox="0 0 65 49" fill="none" xmlns="http://www.w3.org/2000/svg">
<path d="M36.406 0.107119C35.0395 0.329864 33.733 0.899579 32.705 1.72631C32.2295 2.10754 31.5613 2.81433 31.2186 3.29837C30.4904 4.32214 29.6851 6.33113 28.807 9.29535C28.6999 9.65945 28.5971 9.97216 28.5756 9.99357C28.5114 10.0578 28.4214 9.97644 28.2287 9.68944C27.916 9.22682 26.1726 6.90941 25.8213 6.48962C25.4315 6.027 24.7033 5.31593 24.2021 4.91327C22.9984 3.9409 21.6277 3.2641 20.3641 3.01566C19.8243 2.90428 18.6592 2.90428 18.1623 3.01137C15.0053 3.69246 13.3861 5.95846 13.7674 9.16685C13.943 10.6361 14.4956 12.1653 15.2581 13.3005C15.6993 13.9644 16.3118 14.7912 17.0657 15.755C17.8068 16.7016 17.8368 16.7445 17.8153 16.7659C17.8068 16.7744 17.1128 16.5988 16.2775 16.3804C14.1915 15.8321 14.0287 15.8021 13.2148 15.7764C12.6794 15.7592 12.4652 15.7678 12.2381 15.8235C11.6556 15.9606 11.3472 16.2004 11.1801 16.6545C10.8674 17.4898 11.1715 18.4065 12.221 19.8029C12.6494 20.3726 13.6346 21.4093 14.2429 21.9319C16.1105 23.5339 18.3679 24.6819 20.8781 25.3159C21.255 25.4101 21.5677 25.4958 21.5806 25.5086C21.5934 25.5172 21.5506 25.6457 21.4864 25.7871C21.2422 26.3268 21.3022 26.7723 21.6705 27.2263C22.3473 28.0573 23.4097 28.4728 26.1726 28.9783C27.3762 29.201 28.0616 29.291 28.9226 29.3467C30.9744 29.4709 32.8292 29.0554 33.8316 28.2372L34.0629 28.0488L34.4955 28.1387C36.2389 28.4857 37.9438 28.4686 39.7 28.0745C41.3621 27.7061 43.8808 26.5709 45.3415 25.5386C45.8641 25.1659 46.5623 24.4549 46.7251 24.1207C46.9607 23.6453 46.8964 23.3197 46.528 23.1355C46.2796 23.0113 46.0097 22.9642 45.2215 22.8914C44.8189 22.8571 44.4676 22.81 44.4505 22.7928C44.4291 22.7714 44.4248 22.7329 44.4419 22.7029C44.4591 22.6772 44.8275 22.4844 45.2601 22.2745C46.271 21.7905 46.6694 21.5592 47.5689 20.9638C50.3533 19.1176 52.0581 16.9629 52.5807 14.6284C53.0476 12.5466 52.3794 11.193 50.6959 10.8074C50.2761 10.7132 49.3123 10.7046 48.8326 10.7903C47.9587 10.9488 46.785 11.4328 43.7866 12.8721C43.2597 13.1206 42.8185 13.3176 42.8056 13.3048C42.7928 13.2962 42.887 13.0263 43.007 12.7136C43.4353 11.6385 44.005 9.80081 44.1806 8.93553C44.5447 7.18784 44.1978 4.8533 43.3454 3.3155C42.4501 1.69632 40.9894 0.651132 38.9975 0.188507C38.5478 0.085702 38.385 0.0685669 37.6311 0.0599998C37.0442 0.0514327 36.6587 0.0642833 36.406 0.107119ZM38.038 4.36498C39.4002 4.72908 40.2698 5.37161 40.7409 6.36112C40.9851 6.87086 41.0836 7.29065 41.1093 7.97173C41.1522 8.96124 40.9808 9.87792 40.5482 11.0173C40.424 11.3557 40.1412 12.1311 39.9228 12.7436C39.7043 13.3562 39.3659 14.29 39.1646 14.8211C38.839 15.6736 38.7962 15.8235 38.7748 16.1362C38.7577 16.4575 38.7662 16.5046 38.869 16.6802C39.0489 16.9886 39.2674 17.07 39.9014 17.0657C40.3811 17.0657 40.4411 17.0529 40.8223 16.9115C41.3792 16.7016 42.2359 16.3161 43.7566 15.5836C46.6266 14.2 46.8964 14.0758 47.4876 13.9216C48.6527 13.6175 49.5437 13.9259 49.9377 14.7697C50.1005 15.1124 50.1219 15.6607 49.9892 16.1319C49.8692 16.5774 49.5822 17.1471 49.2267 17.6483C48.8369 18.1966 47.9759 19.0619 47.4619 19.4131C46.3396 20.1842 44.2877 21.2122 41.9189 22.1889C40.8309 22.6344 40.3854 22.9942 40.3854 23.4182C40.3854 23.5982 40.5096 23.7438 40.7795 23.8809C41.1993 24.0908 42.0303 24.3049 43.1183 24.4849C43.8551 24.6048 43.9665 24.6348 44.1121 24.7676C44.3991 25.0417 43.9879 25.4744 42.9213 26.0184C41.0879 26.9565 39.3231 27.3848 37.2884 27.3848C36.2432 27.3848 36.0547 27.3634 34.8168 27.0678C33.3818 26.7294 32.8892 26.8023 32.1952 27.4534C31.4842 28.1216 31.0687 28.3272 30.1563 28.4643C29.3338 28.5928 28.4257 28.5414 26.8579 28.2887C24.669 27.9374 23.9751 27.5861 24.0222 26.8708C24.0265 26.8194 24.1936 26.6052 24.3992 26.3825C24.9175 25.8299 25.0417 25.5043 24.8489 25.2173C24.6476 24.9132 24.3692 24.8104 23.0113 24.5405C19.3874 23.8252 17.1514 23.0413 15.7378 21.9833C14.5813 21.118 13.7117 19.8586 13.7074 19.049C13.7074 18.6763 13.9773 18.3722 14.3799 18.2908C14.7269 18.218 15.1852 18.2823 16.3846 18.5693C19.2718 19.2675 20.3469 19.4902 21.0194 19.5202C21.7734 19.5588 22.1075 19.4303 22.2531 19.0447C22.4116 18.6335 22.206 18.2566 21.315 17.3056C19.9957 15.9006 18.6763 14.3157 18.0724 13.4119C17.3142 12.281 16.9329 11.3686 16.8344 10.4391C16.6716 8.88413 17.6054 7.30778 18.9334 6.89228C19.9528 6.57529 21.3878 6.89228 22.6044 7.70615C23.354 8.20733 23.4996 8.37439 25.6371 11.1159C27.826 13.9302 28.0316 14.1615 28.5114 14.3928C29.2182 14.7355 29.8136 14.6584 30.3062 14.1615C30.756 13.7074 30.8502 13.4547 31.8054 10.2592C32.3666 8.38724 32.5079 7.9803 32.8378 7.3035C33.5831 5.75713 34.7011 4.69481 35.9048 4.37354C36.3717 4.24504 36.3846 4.24504 37.0742 4.26217C37.5411 4.27502 37.8024 4.30072 38.038 4.36498Z" fill="#FFEDC0"/>
<path d="M26.8022 32.4993C26.7508 32.5464 26.768 43.7479 26.8151 44.2705C26.905 45.2086 27.1364 46.0354 27.4619 46.5922C27.6804 46.9649 28.2758 47.5389 28.6399 47.7317C29.004 47.9201 29.5651 48.1086 30.0706 48.2114C30.5246 48.3057 31.5056 48.2842 31.8611 48.1729L32.0839 48.1V47.6546V47.2091L31.9468 47.239C31.6555 47.3033 30.8759 47.2733 30.5889 47.1834C30.122 47.042 29.7279 46.6008 29.5137 45.984C29.291 45.3371 29.2867 45.2815 29.2824 41.7133L29.2781 38.3806H30.4047H31.527V37.5882V36.7957H30.3919H29.2567V34.6325V32.4693H28.0445C27.3762 32.4693 26.8151 32.4822 26.8022 32.4993Z" fill="#FFEDC0"/>
<path d="M4.86184 36.6673C2.54872 36.9029 0.869563 38.1065 0.231312 39.9827C0.00856712 40.6295 0 40.788 0 43.8251V46.6479H1.22081H2.44163V43.915C2.44163 40.8823 2.45448 40.6681 2.71149 39.9185C2.92995 39.2888 3.17412 38.8947 3.61961 38.4449C4.22787 37.8324 4.77188 37.6096 5.6543 37.6096C6.52386 37.6096 7.08072 37.8367 7.67185 38.4235C8.21158 38.9547 8.53713 39.5715 8.74703 40.4282C8.83698 40.7838 8.84127 40.9251 8.85412 43.7223L8.87125 46.6479H10.0921H11.3129L11.3 43.6837L11.2829 40.7152L11.1715 40.2997C10.9402 39.4516 10.529 38.7619 9.89502 38.1494C9.1197 37.404 8.19873 36.9585 7.00362 36.7529C6.41249 36.6501 5.41442 36.6116 4.86184 36.6673Z" fill="#FFEDC0"/>
<path d="M50.6231 36.7529C49.6336 36.8686 48.7598 37.3141 48.1943 37.9952C47.7917 38.4749 47.5432 38.989 47.3462 39.7471C47.2391 40.1498 47.2348 40.2141 47.2005 42.2787C47.1791 43.4439 47.1663 44.9088 47.1706 45.5342L47.1834 46.6694L48.4128 46.6822L49.6422 46.6908L49.655 43.2982L49.6679 39.9014L49.7664 39.5801C49.972 38.9119 50.3875 38.2907 50.7773 38.0594C51.1329 37.8538 51.8996 37.7553 52.5293 37.841L52.7735 37.8709V37.3783V36.89L52.6364 36.8429C52.238 36.7144 51.3042 36.6758 50.6231 36.7529Z" fill="#FFEDC0"/>
<path d="M18.2351 36.8001C17.4298 36.89 16.6031 37.1428 15.8791 37.5112C14.3627 38.2865 13.4032 39.5373 13.1891 41.0322C13.112 41.5763 13.1591 42.5015 13.2919 43.007C13.793 44.9131 15.2966 46.2753 17.3912 46.7208C17.9053 46.8279 18.9933 46.8279 19.4688 46.7165C19.9485 46.6052 20.3983 46.421 20.8009 46.1682L21.1479 45.9498L21.1736 45.5385C21.1865 45.3115 21.1907 45.123 21.1822 45.1145C21.1736 45.1059 21.0622 45.1445 20.938 45.2044C20.2398 45.53 18.8691 45.6499 18.0595 45.4529C16.723 45.1316 15.9305 44.1078 15.7249 42.4287C15.5236 40.7966 15.9434 39.2888 16.8301 38.4535C17.327 37.9823 17.8881 37.7553 18.6549 37.7082C20.2227 37.614 21.3107 38.5392 21.7947 40.3726L21.9061 40.8009L21.9318 43.7138L21.9532 46.6266L23.1869 46.6394L24.4163 46.648V43.9194C24.4163 41.6705 24.4034 41.135 24.352 40.8866C24.0265 39.3574 23.0455 38.0852 21.6534 37.3869C20.6938 36.9029 19.3402 36.6716 18.2351 36.8001Z" fill="#FFEDC0"/>
<path d="M58.1065 36.7957C57.2926 36.8814 56.4359 37.1427 55.6863 37.5282C53.8572 38.4706 52.9148 40.0255 53.0048 41.9574C53.0519 42.9555 53.3089 43.7779 53.8058 44.5104C54.5597 45.6241 55.7463 46.3909 57.207 46.7164C57.6867 46.8192 58.5906 46.8407 59.0703 46.7593C59.5929 46.665 60.1026 46.4894 60.4925 46.2667C61.0022 45.9711 60.9893 45.9882 61.0236 45.517C61.0536 45.0758 61.0407 45.0501 60.8566 45.1658C60.5396 45.3714 59.61 45.547 58.8347 45.547C56.77 45.547 55.6306 44.2962 55.5278 41.9146C55.4636 40.441 55.8705 39.2074 56.6587 38.462C57.1684 37.9823 57.7124 37.7595 58.492 37.7081C59.9356 37.6224 61.0108 38.4278 61.5119 39.9741C61.7433 40.698 61.739 40.6424 61.7647 43.7351L61.7904 46.6265L63.024 46.6393L64.2534 46.6479V43.9535C64.2534 41.0579 64.2449 40.9336 64.0221 40.2825C63.6066 39.0617 62.6471 37.9609 61.4862 37.3826C60.561 36.9199 59.1945 36.6801 58.1065 36.7957Z" fill="#FFEDC0"/>
<path d="M33.5831 39.5972C33.5831 42.63 33.5917 42.7671 33.823 43.4567C34.0458 44.1207 34.3542 44.6347 34.8425 45.1444C35.2109 45.5257 35.5064 45.757 35.9605 46.0183C37.4469 46.875 39.7686 47.0463 41.5934 46.4381C43.174 45.9069 44.3263 44.7118 44.7504 43.1569L44.8703 42.7285L44.8832 39.76L44.896 36.7958H43.6752H42.4544L42.4372 39.7172C42.4244 42.5229 42.4201 42.66 42.3302 43.0155C42.1245 43.8594 41.7904 44.489 41.2764 44.9988C40.6981 45.5728 40.0642 45.8341 39.2374 45.8341C38.4878 45.8341 37.8324 45.5899 37.3141 45.1187C36.6716 44.5362 36.2004 43.5681 36.0676 42.5357C36.0462 42.3601 36.0248 40.9979 36.0248 39.503V36.7958H34.8039H33.5831V39.5972Z" fill="#FFEDC0"/>
</svg>
