<svg width="135" height="23" viewBox="0 0 135 23" fill="none" xmlns="http://www.w3.org/2000/svg">
<path d="M43.9211 2.14107V3.9978H45.4502H46.9793V2.14107V0.284332H45.4502H43.9211V2.14107Z" fill="#FFEDC0"/>
<path d="M86.5168 0.808483C84.4853 1.39827 82.8907 2.57784 82.0825 4.08508C81.733 4.76224 81.6019 5.37387 81.6019 6.61897C81.6019 9.83003 82.9344 11.0315 88.2643 12.6261C90.1211 13.194 91.9559 13.8275 92.3273 14.0678C93.2011 14.592 93.5724 15.3566 93.5724 16.558C93.5724 17.8031 93.0481 18.5676 91.7375 19.2448C90.8856 19.7035 90.5361 19.7472 88.8104 19.6817C86.2984 19.5724 84.7911 18.9171 83.1528 17.2351L81.9733 16.0556L81.165 16.8856L80.3568 17.7157L81.6456 19.0045C83.7645 21.167 86.2547 22.0408 89.8152 21.866C91.4317 21.8005 92.1307 21.6695 93.1137 21.2107C95.9534 19.9001 97.3514 17.6939 97.1548 14.876C96.9801 12.1673 95.5602 10.8349 91.6501 9.65528C90.4487 9.28393 88.8104 8.78152 87.9804 8.54124C86.1236 7.9733 85.2062 7.05585 85.2062 5.72337C85.2062 3.67004 86.5168 2.68706 89.291 2.68706C91.4535 2.68706 93.2011 3.42976 94.5117 4.93699L95.4073 5.94181L96.1281 5.06805L96.8271 4.17245L96.4121 3.60451C95.735 2.68706 94.2933 1.68224 92.9171 1.15799C91.3443 0.546354 88.0022 0.371603 86.5168 0.808483Z" fill="#FFEDC0"/>
<path d="M123.499 1.09245C123.411 1.31089 121.358 6.02918 118.933 11.5775L114.521 21.6913H115.788H117.055L118.213 18.8516L119.392 16.0119H123.673H127.955L129.156 18.786L130.358 21.5821L132.455 21.6476L134.552 21.7131L133.045 18.2618C132.214 16.3614 130.161 11.6649 128.479 7.82038L125.421 0.830318L124.525 0.764788C123.848 0.7211 123.608 0.786631 123.499 1.09245ZM125.355 10.0703C126.229 12.08 126.928 13.7838 126.928 13.8712C126.928 13.9804 125.443 14.0459 123.63 14.0459C120.572 14.0459 120.331 14.0241 120.462 13.6527C120.965 12.3421 123.542 6.40053 123.652 6.40053C123.717 6.40053 124.482 8.06067 125.355 10.0703Z" fill="#FFEDC0"/>
<path d="M100.497 11.2936V21.6913H102.463H104.429V17.6721V13.6528L108.099 13.5654C112.053 13.4562 112.773 13.3033 114.63 12.0363C116.05 11.0752 116.727 9.76455 116.836 7.68937C117.011 4.74044 115.919 2.88371 113.341 1.68229L111.965 1.04881L106.242 0.983282L100.497 0.917751V11.2936ZM110.349 3.23321C112.162 3.88853 112.795 4.89335 112.817 7.16512C112.817 8.80342 112.511 9.63349 111.594 10.4854C110.764 11.2718 109.912 11.4684 107.116 11.5994L104.429 11.7087V7.29618V2.90555H106.919C108.579 2.90555 109.715 3.01477 110.349 3.23321Z" fill="#FFEDC0"/>
<path d="M34.2006 2.79634L32.89 3.27691L32.8245 5.26471L32.7589 7.27435H31.5793H30.3779V8.03889V8.80343H31.5793H32.7808V13.9368C32.7808 17.7813 32.8463 19.2667 33.0866 19.7909C34.3098 22.7617 39.3339 22.718 40.863 19.7254C41.4528 18.5895 41.6713 17.1041 41.2781 17.1041C41.1033 17.1041 40.7538 17.0386 40.5135 16.9731C40.0985 16.8638 40.033 16.9731 39.88 17.8905C39.6835 19.2448 38.8097 20.1623 37.7393 20.1623C35.7297 20.1623 35.6205 19.8128 35.6205 13.7183V8.80343H38.1325H40.6446V8.03889V7.27435H38.1325H35.6423L35.5768 4.78414L35.5113 2.29393L34.2006 2.79634Z" fill="#FFEDC0"/>
<path d="M6.54623 7.14328C5.21375 7.49278 4.25262 8.21363 3.48808 9.41505L2.85461 10.4199V8.8471V7.27434H1.43475H0.0148926V14.4828V21.6913H1.43475H2.85461V17.4755C2.85461 12.8445 3.0512 11.7523 4.05602 10.4417C4.79872 9.43689 5.65063 9.02185 6.89574 9.02185C8.29375 9.02185 9.14566 9.52427 9.64807 10.6165C9.99758 11.4247 10.0631 12.1019 10.0631 16.6017V21.6913H11.483H12.9028V16.427C12.9028 13.3251 12.7936 10.7912 12.6625 10.2233C12.313 8.80342 11.1553 7.58015 9.80098 7.16512C8.4685 6.77193 7.90056 6.77193 6.54623 7.14328Z" fill="#FFEDC0"/>
<path d="M20.5919 7.05591C19.3904 7.31804 17.9706 8.10442 17.4463 8.80343C16.7036 9.8301 16.6599 11.4684 17.359 12.3858C17.6648 12.779 17.7085 12.779 18.3201 12.3203C18.888 11.9271 18.9536 11.7524 18.8662 11.0315C18.7133 9.87378 19.3467 9.15293 20.7885 8.80343C22.7762 8.32286 24.7204 8.93449 25.2665 10.2233C25.4412 10.6383 25.5723 11.4465 25.5723 12.0363V13.0848L22.951 13.5654C17.6211 14.5484 15.9609 15.6406 15.9609 18.1745C15.9609 20.0749 17.075 21.4511 18.9972 21.9098C21.0724 22.4122 23.8466 21.3419 24.9606 19.638C25.2446 19.2012 25.5286 18.8516 25.616 18.8516C25.7033 18.8516 25.7907 19.4633 25.8344 20.206L25.8999 21.5821L27.1669 21.6477L28.412 21.7132V16.1867C28.412 11.3155 28.3465 10.5509 27.997 9.78641C27.4945 8.69421 26.2713 7.58017 25.2009 7.2962C23.9777 6.9467 21.6622 6.83748 20.5919 7.05591ZM25.5723 15.2911C25.5286 17.9124 23.4753 20.1623 21.1161 20.1623C19.6744 20.1623 18.8007 19.3759 18.8007 18.0434C18.8007 16.0993 20.4389 15.2256 25.4194 14.5047C25.5067 14.4829 25.5723 14.8542 25.5723 15.2911Z" fill="#FFEDC0"/>
<path d="M69.2601 6.9685C65.918 7.62382 64.2797 9.83006 65.4593 12.1018L65.7869 12.7571L66.4859 12.3203C67.1194 11.9271 67.1849 11.7742 67.1194 10.9878C67.0539 10.2669 67.1413 10.0048 67.6655 9.48056C68.8014 8.34467 71.7285 8.34467 72.9517 9.48056C73.6071 10.0922 73.8474 10.7912 73.8474 12.0363V13.063L70.7674 13.6528C67.3379 14.3081 65.6122 15.0071 64.8476 16.0556C64.2797 16.8857 64.0613 18.7861 64.4545 19.7254C64.8695 20.7083 66.0054 21.6039 67.2505 21.9098C69.3475 22.3903 72.0125 21.3855 73.2139 19.638C73.4978 19.223 73.8037 18.939 73.891 18.9827C73.9784 19.0482 74.0658 19.6817 74.0658 20.4025V21.6913H75.3764H76.6871V16.3832C76.6871 13.2159 76.5778 10.7475 76.4468 10.2233C76.141 9.10921 74.6774 7.68935 73.4542 7.31801C72.4275 7.01219 70.0902 6.81559 69.2601 6.9685ZM73.7818 15.575C73.3886 18.8516 70.3523 21.0797 67.9713 19.8346C67.2505 19.4632 67.0757 19.1137 67.0757 17.9997C67.0757 17.0386 67.6655 16.1648 68.6703 15.6624C69.1946 15.3784 72.4712 14.6357 73.7163 14.5047C73.8255 14.4828 73.8474 14.9852 73.7818 15.575Z" fill="#FFEDC0"/>
<path d="M43.9211 14.4828V21.6913H45.341H46.7609V14.4828V7.27434H45.341H43.9211V14.4828Z" fill="#FFEDC0"/>
<path d="M49.2292 7.42725C49.2729 7.51463 50.7365 10.8131 52.4403 14.745L55.5858 21.9098H56.2848H56.962L60.1075 14.7668C61.8332 10.8568 63.2967 7.55832 63.3186 7.4491C63.3623 7.36172 62.9254 7.27434 62.3356 7.27434H61.2653L59.1027 12.5169C57.9013 15.4003 56.8746 17.7594 56.8091 17.7594C56.7436 17.7594 55.7169 15.4221 54.4936 12.5606L52.3092 7.38356L50.7146 7.31803C49.8409 7.27434 49.1637 7.33988 49.2292 7.42725Z" fill="#FFEDC0"/>
</svg>
