<svg width="172" height="40" viewBox="0 0 172 40" fill="none" xmlns="http://www.w3.org/2000/svg">
<path d="M62.7259 16.0855C61.5515 16.0855 60.4911 15.8233 59.5447 15.2988C58.6097 14.7743 57.8686 14.0502 57.3213 13.1266C56.7854 12.2031 56.5174 11.1655 56.5174 10.0138C56.5174 8.86221 56.7854 7.82461 57.3213 6.90103C57.8686 5.97745 58.6097 5.25341 59.5447 4.7289C60.4911 4.2044 61.5515 3.94215 62.7259 3.94215C63.5925 3.94215 64.3906 4.08468 65.1204 4.36973C65.8501 4.64339 66.4715 5.05387 66.9846 5.60117L66.4373 6.16558C65.4796 5.2192 64.2538 4.74601 62.7601 4.74601C61.7567 4.74601 60.8445 4.97405 60.0236 5.43014C59.2026 5.88623 58.5584 6.51905 58.0909 7.32861C57.6234 8.12677 57.3897 9.02184 57.3897 10.0138C57.3897 11.0058 57.6234 11.9066 58.0909 12.7162C58.5584 13.5143 59.2026 14.1414 60.0236 14.5975C60.8445 15.0536 61.7567 15.2817 62.7601 15.2817C64.2424 15.2817 65.4681 14.8028 66.4373 13.845L66.9846 14.4094C66.4715 14.9567 65.8444 15.3729 65.1033 15.6579C64.3735 15.943 63.5811 16.0855 62.7259 16.0855ZM77.7567 3.94215C79.2732 3.94215 80.4647 4.38684 81.3313 5.27621C82.1978 6.16558 82.6311 7.45403 82.6311 9.14156V16H81.7589V12.3057H73.7545V16H72.8822V9.14156C72.8822 7.45403 73.3155 6.16558 74.1821 5.27621C75.06 4.38684 76.2516 3.94215 77.7567 3.94215ZM81.7589 11.5189V9.05605C81.7589 7.64217 81.4054 6.57036 80.6984 5.84062C80.0029 5.11088 79.0223 4.74601 77.7567 4.74601C76.491 4.74601 75.5047 5.11088 74.7978 5.84062C74.1023 6.57036 73.7545 7.64217 73.7545 9.05605V11.5189H81.7589ZM98.0884 16L95.2321 11.9978C94.8103 12.0548 94.4226 12.0833 94.0691 12.0833H90.6484V16H89.7762V4.02767H94.0691C95.5742 4.02767 96.7543 4.38684 97.6095 5.10518C98.4647 5.81211 98.8922 6.79841 98.8922 8.06405C98.8922 9.01044 98.6471 9.80859 98.1568 10.4585C97.6779 11.097 96.9881 11.5474 96.0873 11.8097L99.0804 16H98.0884ZM94.0691 11.3137C95.3462 11.3137 96.321 11.0343 96.9938 10.4756C97.6665 9.90551 98.0029 9.10166 98.0029 8.06405C98.0029 7.02645 97.6665 6.2283 96.9938 5.66959C96.321 5.09948 95.3462 4.81442 94.0691 4.81442H90.6484V11.3137H94.0691ZM107.234 4.81442V15.2132H109.748V16H103.848V15.2132H106.362V4.81442H103.848V4.02767H109.748V4.81442H107.234ZM120.672 16.0855C119.497 16.0855 118.437 15.8233 117.491 15.2988C116.544 14.7629 115.797 14.0331 115.25 13.1095C114.714 12.186 114.446 11.1541 114.446 10.0138C114.446 8.87361 114.714 7.84171 115.25 6.91813C115.797 5.99455 116.544 5.27051 117.491 4.74601C118.437 4.2101 119.497 3.94215 120.672 3.94215C121.846 3.94215 122.907 4.2044 123.853 4.7289C124.799 5.25341 125.541 5.97745 126.077 6.90103C126.624 7.82461 126.897 8.86221 126.897 10.0138C126.897 11.1655 126.624 12.2031 126.077 13.1266C125.541 14.0502 124.799 14.7743 123.853 15.2988C122.907 15.8233 121.846 16.0855 120.672 16.0855ZM120.672 15.2817C121.675 15.2817 122.582 15.0536 123.391 14.5975C124.201 14.1414 124.839 13.5143 125.307 12.7162C125.774 11.9066 126.008 11.0058 126.008 10.0138C126.008 9.02184 125.774 8.12677 125.307 7.32861C124.839 6.51905 124.201 5.88623 123.391 5.43014C122.582 4.97405 121.675 4.74601 120.672 4.74601C119.668 4.74601 118.756 4.97405 117.935 5.43014C117.126 5.88623 116.487 6.51905 116.02 7.32861C115.552 8.12677 115.319 9.02184 115.319 10.0138C115.319 11.0058 115.552 11.9066 116.02 12.7162C116.487 13.5143 117.126 14.1414 117.935 14.5975C118.756 15.0536 119.668 15.2817 120.672 15.2817ZM138.064 16.0855C136.89 16.0855 135.829 15.8233 134.883 15.2988C133.948 14.7743 133.207 14.0502 132.659 13.1266C132.124 12.2031 131.856 11.1655 131.856 10.0138C131.856 8.86221 132.124 7.82461 132.659 6.90103C133.207 5.97745 133.948 5.25341 134.883 4.7289C135.829 4.2044 136.89 3.94215 138.064 3.94215C138.931 3.94215 139.729 4.08468 140.459 4.36973C141.188 4.64339 141.81 5.05387 142.323 5.60117L141.776 6.16558C140.818 5.2192 139.592 4.74601 138.098 4.74601C137.095 4.74601 136.183 4.97405 135.362 5.43014C134.541 5.88623 133.897 6.51905 133.429 7.32861C132.962 8.12677 132.728 9.02184 132.728 10.0138C132.728 11.0058 132.962 11.9066 133.429 12.7162C133.897 13.5143 134.541 14.1414 135.362 14.5975C136.183 15.0536 137.095 15.2817 138.098 15.2817C139.581 15.2817 140.806 14.8028 141.776 13.845L142.323 14.4094C141.81 14.9567 141.183 15.3729 140.441 15.6579C139.712 15.943 138.919 16.0855 138.064 16.0855ZM153.095 3.94215C154.611 3.94215 155.803 4.38684 156.669 5.27621C157.536 6.16558 157.969 7.45403 157.969 9.14156V16H157.097V12.3057H149.093V16H148.22V9.14156C148.22 7.45403 148.654 6.16558 149.52 5.27621C150.398 4.38684 151.59 3.94215 153.095 3.94215ZM157.097 11.5189V9.05605C157.097 7.64217 156.744 6.57036 156.037 5.84062C155.341 5.11088 154.36 4.74601 153.095 4.74601C151.829 4.74601 150.843 5.11088 150.136 5.84062C149.44 6.57036 149.093 7.64217 149.093 9.05605V11.5189H157.097ZM62.4181 25.8064C61.3919 25.8064 60.6165 26.0345 60.092 26.4905C59.5675 26.9466 59.3052 27.6194 59.3052 28.5087V29.5349H64.5218V31.4163H59.3052V36H57.0818V28.5087C57.0818 27.0607 57.5436 25.9261 58.4672 25.1052C59.4022 24.2728 60.6849 23.8566 62.3154 23.8566C62.9996 23.8566 63.6381 23.9307 64.231 24.079C64.8239 24.2272 65.3427 24.4438 65.7874 24.7289L65.0862 26.5419C64.3792 26.0516 63.4899 25.8064 62.4181 25.8064ZM75.4843 23.8566C76.5561 23.8566 77.4911 24.0676 78.2893 24.4895C79.0874 24.9113 79.7032 25.5385 80.1364 26.3708C80.5811 27.1918 80.8035 28.1895 80.8035 29.3639V36H78.58V32.9214H72.3544V36H70.1652V29.3639C70.1652 28.1895 70.3818 27.1918 70.8151 26.3708C71.2598 25.5385 71.8812 24.9113 72.6794 24.4895C73.4775 24.0676 74.4125 23.8566 75.4843 23.8566ZM78.58 31.0571V29.1587C78.58 28.0527 78.3064 27.2203 77.7591 26.6616C77.2118 26.0915 76.4478 25.8064 75.4672 25.8064C74.4866 25.8064 73.7227 26.0915 73.1754 26.6616C72.6281 27.2203 72.3544 28.0527 72.3544 29.1587V31.0571H78.58ZM97.6044 24.0277L92.3879 36H90.1987L84.9651 24.0277H87.3766L91.3617 33.2635L95.381 24.0277H97.6044ZM107.406 36.171C106.186 36.171 105.085 35.9088 104.105 35.3843C103.124 34.8484 102.354 34.1129 101.796 33.178C101.237 32.2316 100.958 31.1769 100.958 30.0138C100.958 28.8508 101.237 27.8018 101.796 26.8668C102.354 25.9204 103.124 25.185 104.105 24.6605C105.085 24.1246 106.186 23.8566 107.406 23.8566C108.626 23.8566 109.726 24.1246 110.707 24.6605C111.687 25.185 112.457 25.9147 113.015 26.8497C113.574 27.7847 113.854 28.8394 113.854 30.0138C113.854 31.1883 113.574 32.243 113.015 33.178C112.457 34.1129 111.687 34.8484 110.707 35.3843C109.726 35.9088 108.626 36.171 107.406 36.171ZM107.406 34.2213C108.204 34.2213 108.922 34.0445 109.561 33.6911C110.199 33.3262 110.701 32.8245 111.066 32.186C111.431 31.536 111.613 30.812 111.613 30.0138C111.613 29.2157 111.431 28.4973 111.066 27.8588C110.701 27.2089 110.199 26.7072 109.561 26.3537C108.922 25.9888 108.204 25.8064 107.406 25.8064C106.607 25.8064 105.889 25.9888 105.251 26.3537C104.612 26.7072 104.11 27.2089 103.745 27.8588C103.381 28.4973 103.198 29.2157 103.198 30.0138C103.198 30.812 103.381 31.536 103.745 32.186C104.11 32.8245 104.612 33.3262 105.251 33.6911C105.889 34.0445 106.607 34.2213 107.406 34.2213ZM127.122 36L124.676 32.4938C124.574 32.5052 124.42 32.5109 124.215 32.5109H121.512V36H119.289V24.0277H124.215C125.252 24.0277 126.153 24.1987 126.917 24.5408C127.692 24.8828 128.285 25.3731 128.696 26.0117C129.106 26.6502 129.311 27.4084 129.311 28.2864C129.311 29.1872 129.089 29.9625 128.644 30.6124C128.211 31.2624 127.584 31.747 126.763 32.0662L129.517 36H127.122ZM127.071 28.2864C127.071 27.5224 126.82 26.9352 126.318 26.5248C125.817 26.1143 125.081 25.909 124.112 25.909H121.512V30.6809H124.112C125.081 30.6809 125.817 30.4756 126.318 30.0651C126.82 29.6433 127.071 29.0503 127.071 28.2864ZM138.384 25.8919V34.1357H140.59V36H133.971V34.1357H136.178V25.8919H133.971V24.0277H140.59V25.8919H138.384ZM154.286 27.0036C153.157 26.3651 151.982 25.9774 150.762 25.8406V36H148.539V25.8406C147.308 25.9774 146.127 26.3651 144.999 27.0036L144.229 25.2933C145.027 24.8144 145.882 24.4553 146.794 24.2158C147.718 23.9764 148.664 23.8566 149.634 23.8566C150.603 23.8566 151.549 23.9764 152.473 24.2158C153.396 24.4553 154.257 24.8144 155.055 25.2933L154.286 27.0036ZM164.657 23.8566C165.729 23.8566 166.664 24.0676 167.462 24.4895C168.261 24.9113 168.876 25.5385 169.31 26.3708C169.754 27.1918 169.977 28.1895 169.977 29.3639V36H167.753V32.9214H161.528V36H159.338V29.3639C159.338 28.1895 159.555 27.1918 159.988 26.3708C160.433 25.5385 161.054 24.9113 161.853 24.4895C162.651 24.0676 163.586 23.8566 164.657 23.8566ZM167.753 31.0571V29.1587C167.753 28.0527 167.48 27.2203 166.932 26.6616C166.385 26.0915 165.621 25.8064 164.64 25.8064C163.66 25.8064 162.896 26.0915 162.349 26.6616C161.801 27.2203 161.528 28.0527 161.528 29.1587V31.0571H167.753Z" fill="#FFB800"/>
<path fill-rule="evenodd" clip-rule="evenodd" d="M19.6892 24.6116L19.6892 39.3785C8.81517 39.3785 0 30.5633 0 19.6893C0 17.9532 0.224693 16.2696 0.646585 14.6659L14.4716 18.3703V19.3939H9.84462H0.344562H0.0345574L0.0495703 19.7036C0.0838426 20.4104 0.288158 21.632 0.987567 22.686C1.66453 23.7062 2.79542 24.5514 4.61686 24.6302C4.68529 25.5193 4.98576 26.7177 5.69695 27.7398C6.49674 28.8892 7.81056 29.8046 9.84462 29.8046H14.4716V38.6648H15.0623V24.6116H19.6892ZM14.4716 17.7588V16.8474L2.56154 9.97111C1.82734 11.2623 1.23492 12.6447 0.805496 14.097L14.4716 17.7588ZM14.4716 15.0131V16.1653L2.8612 9.46206C3.64479 8.17549 4.57177 6.98584 5.61995 5.91533L14.4716 14.767V15.0131ZM14.5062 13.9663C14.5722 13.4136 14.7369 12.7774 15.0481 12.1621L9.62242 2.76459C8.32405 3.53853 7.12226 4.45762 6.03945 5.49948L14.5062 13.9663ZM15.4881 11.4494C15.4559 11.4926 15.4246 11.5362 15.3941 11.5801L10.1343 2.46981C11.4304 1.74906 12.8164 1.17041 14.2712 0.754897L16.8175 10.2578C16.2648 10.5813 15.8276 10.994 15.4881 11.4494ZM17.3566 9.98762C17.9295 9.74491 18.604 9.58907 19.3939 9.55594V0.00221062C17.8252 0.025277 16.3009 0.231801 14.8416 0.601283L17.3566 9.98762ZM19.6892 23.8486V19.9846H15.0635C15.0829 20.9837 15.3394 21.7098 15.7071 22.2422C16.0907 22.7977 16.6097 23.1627 17.1551 23.403C18.1917 23.8595 19.2883 23.8514 19.6335 23.8489L19.6892 23.8486ZM19.6892 19.3939V19.0248C18.1971 19.0248 17.0164 18.362 16.1555 17.5507C15.7091 17.13 15.3446 16.666 15.0623 16.2252V19.3939H19.6892ZM19.6892 18.4341L19.6892 11.2806C19.6379 11.3666 19.5831 11.4514 19.5252 11.535C19.1614 12.0606 18.6645 12.5575 18.1242 13.0057C17.113 13.8445 15.9177 14.5388 15.0623 14.9535V14.9573C15.2954 15.5402 15.797 16.4013 16.5606 17.1209C17.343 17.8581 18.3855 18.4341 19.6892 18.4341ZM17.7471 12.551C16.8803 13.2701 15.8637 13.8832 15.0696 14.2899C15.1144 13.567 15.3588 12.6112 15.9617 11.8024C16.6177 10.9225 17.7146 10.193 19.5142 10.1428C19.4527 10.4836 19.2895 10.8377 19.0395 11.1988C18.7168 11.665 18.263 12.1231 17.7471 12.551ZM10.173 19.9846H14.4727C14.4923 21.0887 14.777 21.9349 15.221 22.5778C15.6804 23.2429 16.296 23.67 16.9171 23.9436C16.9789 23.9708 17.0409 23.9966 17.103 24.0209H14.7669C13.4267 24.0209 12.2705 23.2554 11.4356 22.2978C11.0204 21.8215 10.6932 21.3068 10.471 20.8364C10.3179 20.5123 10.22 20.2208 10.173 19.9846ZM5.19304 19.9846H9.57342C9.62413 20.3163 9.75246 20.6983 9.93691 21.0887C10.1823 21.6081 10.5393 22.1686 10.9904 22.686C11.8314 23.6506 13.0297 24.4977 14.4716 24.601V29.2139H9.84462C8.01959 29.2139 6.88045 28.4065 6.18181 27.4024C5.47303 26.3838 5.21243 25.1517 5.19295 24.3338L5.1896 24.1932H5.19304V19.9846ZM4.60236 19.9846V24.0382C3.00358 23.9577 2.05296 23.2232 1.47974 22.3594C0.950555 21.5619 0.735194 20.6397 0.664143 19.9846H4.60236Z" fill="#FFB800"/>
<path fill-rule="evenodd" clip-rule="evenodd" d="M39.3784 19.6892C39.3784 8.81517 30.5633 3.18906e-06 19.6892 0H39.3784L39.3784 19.6892Z" fill="#FFB800"/>
<line x1="19.6892" y1="19.6892" x2="39.3784" y2="19.6892" stroke="#FFB800" stroke-width="0.590677"/>
<path d="M19.6892 29.5338C22.9707 29.7061 29.5338 29.5338 29.5338 19.96C29.4682 23.1513 29.5338 29.5338 39.3046 29.5338C36.0477 29.542 29.5338 29.5338 29.5338 39.3785C29.5338 29.5338 22.9707 29.5995 19.6892 29.5338Z" stroke="#FFB800" stroke-width="0.590677"/>
</svg>
